<?xml version="1.0" standalone="no"?>
<!DOCTYPE svg PUBLIC "-//W3C//DTD SVG 1.1//EN" "http://www.w3.org/Graphics/SVG/1.1/DTD/svg11.dtd" >
<svg xmlns="http://www.w3.org/2000/svg" xmlns:xlink="http://www.w3.org/1999/xlink" version="1.1">
<metadata>
Created by FontForge 20170731 at Sat May  2 00:38:38 2015
 By Aleksey,,,
(c) 2014 The Monotype Corporation. All Rights Reserved. 
</metadata>
<defs>
<font id="GillSansNova" horiz-adv-x="682" >
  <font-face 
    font-family="Gill Sans Nova"
    font-weight="500"
    font-stretch="normal"
    units-per-em="2048"
    panose-1="2 11 6 2 2 1 4 2 2 3"
    ascent="1638"
    descent="-410"
    x-height="920"
    cap-height="1397"
    bbox="-844 -512 2193 1884"
    underline-thickness="209"
    underline-position="-836"
    unicode-range="U+0020-2122"
  />
<missing-glyph horiz-adv-x="1024" 
d="M25 0v1372h972v-1372h-972zM180 1276l332 -502l330 502h-662zM123 1186v-998l330 498zM901 186v1000l-332 -500zM842 98l-330 500l-332 -500h662z" />
    <glyph glyph-name=".notdef" horiz-adv-x="1024" 
d="M25 0v1372h972v-1372h-972zM180 1276l332 -502l330 502h-662zM123 1186v-998l330 498zM901 186v1000l-332 -500zM842 98l-330 500l-332 -500h662z" />
    <glyph glyph-name="glyph1" horiz-adv-x="0" 
 />
    <glyph glyph-name="glyph2" horiz-adv-x="569" 
 />
    <glyph glyph-name="space" unicode=" " horiz-adv-x="569" 
 />
    <glyph glyph-name="exclam" unicode="!" horiz-adv-x="555" 
d="M322 506q-11 -45 -22 -74t-19 -29q-21 0 -45 99q-29 114 -50.5 303.5t-21.5 314.5q0 148 29.5 221.5t85.5 73.5q57 0 84.5 -68.5t27.5 -218.5q0 -151 -20.5 -319t-48.5 -303zM279 -18q-52 0 -89.5 33.5t-37.5 88.5q0 54 35.5 90.5t88.5 36.5q54 0 89.5 -36.5t35.5 -88.5
q0 -51 -34.5 -87.5t-87.5 -36.5z" />
    <glyph glyph-name="quotedbl" unicode="&#x22;" horiz-adv-x="725" 
d="M252 879h-111l-47 274v244h205v-244zM584 879h-111l-47 274v244h205v-244z" />
    <glyph glyph-name="numbersign" unicode="#" horiz-adv-x="1366" 
d="M948 1012l84 399h144l-82 -399h186v-142h-217l-72 -348h289v-145h-317l-84 -395h-146l82 395h-397l-82 -395h-148l82 395h-184v145h215l72 348h-287v142h315l84 399h148l-82 -399h397zM918 870h-398l-74 -348h400z" />
    <glyph glyph-name="dollar" unicode="$" horiz-adv-x="1024" 
d="M442 -20q-88 8 -187 45.5t-198 99.5v252q90 -84 183.5 -137.5t201.5 -73.5v440q-182 51 -282.5 147.5t-100.5 231.5q0 78 45.5 156t132.5 133t205 67v105h168v-105q199 -30 305 -120v-230q-55 60 -136 106t-169 64v-405q172 -45 271.5 -151.5t99.5 -235.5
q0 -152 -98.5 -256.5t-272.5 -132.5v-222h-168v222zM258 989q0 -55 42 -98t142 -82v352q-84 -8 -134 -59t-50 -113zM780 344q0 55 -25.5 91t-54 54.5t-90.5 49.5v-371q170 41 170 176z" />
    <glyph glyph-name="percent" unicode="%" horiz-adv-x="1405" 
d="M383 795q-84 0 -155.5 41t-113.5 112.5t-42 157.5t42 157.5t113.5 112.5t155.5 41t154.5 -42t113.5 -112.5t43 -156.5t-42 -157.5t-113.5 -112.5t-155.5 -41zM172 -18l920 1435h153l-919 -1435h-154zM541 1104q0 67 -46 116.5t-112 49.5t-112 -48t-46 -118q0 -68 45 -115
t113 -47t113 47t45 115zM1022 -18q-84 0 -155.5 42t-113.5 113.5t-42 155.5t42 155.5t113.5 113.5t155.5 42t154.5 -41t113.5 -112.5t43 -157.5q0 -84 -42 -155.5t-113.5 -113.5t-155.5 -42zM1180 291q0 67 -47.5 116.5t-114.5 49.5q-66 0 -110 -49.5t-44 -116.5
q0 -68 44 -115t112 -47q67 0 113.5 47t46.5 115z" />
    <glyph glyph-name="ampersand" unicode="&#x26;" horiz-adv-x="1280" 
d="M387 725q-158 162 -158 324q0 73 35 147t113 124t201 50q114 0 193 -45t117 -115.5t38 -144.5q0 -98 -58.5 -185t-199.5 -186l196 -225q80 84 150 225h200q-67 -184 -227 -366l283 -328h-256l-162 190q-117 -94 -221.5 -151t-224.5 -57q-89 0 -169.5 42t-130 115.5
t-49.5 161.5q0 127 81 226.5t249 197.5zM737 1057q0 59 -46 101t-111 42q-62 0 -108 -39t-46 -94t35 -117.5t94 -120.5q182 111 182 228zM430 172q76 0 145.5 41t153.5 117l-227 262q-135 -90 -189.5 -148.5t-54.5 -126.5q0 -59 50 -102t122 -43z" />
    <glyph glyph-name="quotesingle" unicode="'" horiz-adv-x="383" 
d="M248 879h-113l-45 274v244h205v-244z" />
    <glyph glyph-name="parenleft" unicode="(" horiz-adv-x="662" 
d="M342 467q0 -270 78 -512t217 -426h-113q-170 203 -281.5 431t-111.5 511q0 191 48 349.5t132 295.5t213 299h113q-154 -219 -224.5 -436t-70.5 -512z" />
    <glyph glyph-name="parenright" unicode=")" horiz-adv-x="662" 
d="M319 475q0 270 -74.5 509t-219.5 431h112q150 -188 226.5 -307t121.5 -271.5t45 -365.5q0 -268 -99 -486t-294 -456h-112q153 225 223.5 441t70.5 505z" />
    <glyph glyph-name="asterisk" unicode="*" horiz-adv-x="854" 
d="M485 1309l-41 -207q25 0 41 -21l168 160q25 25 50.5 40t48.5 15q26 0 45.5 -20.5t19.5 -50.5q0 -35 -19.5 -53.5t-68.5 -36.5l-231 -84q4 -7 4 -23q0 -18 -4 -24l190 -66q129 -45 129 -111q0 -24 -19.5 -46.5t-47.5 -22.5q-21 0 -51.5 18.5t-61.5 48.5l-152 150
q-16 -21 -41 -21l31 -159q19 -93 19 -146q0 -86 -72 -86q-29 0 -47.5 24.5t-18.5 63.5q0 31 17 92q8 35 10 48l31 163q-23 0 -39 21l-160 -148q-41 -36 -65.5 -51.5t-47.5 -15.5q-30 0 -48.5 21.5t-18.5 45.5q0 31 26.5 55.5t90.5 47.5l208 74q-4 6 -4 22q0 18 4 25l-227 84
q-94 34 -94 88q0 30 22.5 52.5t47.5 22.5q18 0 46.5 -18t57.5 -45l162 -154q18 19 39 21l-39 207q-2 14 -8.5 39.5t-6.5 48.5q0 90 70 90q33 0 50.5 -22.5t17.5 -59.5t-13 -96z" />
    <glyph glyph-name="plus" unicode="+" horiz-adv-x="1126" 
d="M473 1178h180v-381h381v-181h-381v-380h-180v380h-381v181h381v381z" />
    <glyph glyph-name="comma" unicode="," horiz-adv-x="449" 
d="M340 74q0 -111 -63.5 -198t-176.5 -120v37q43 45 63.5 91t20.5 116q-49 14 -77.5 48t-28.5 83q0 53 37 93t86 40q61 0 100 -56t39 -134z" />
    <glyph glyph-name="hyphen" unicode="-" horiz-adv-x="662" 
d="M82 356v195h498v-195h-498z" />
    <glyph glyph-name="period" unicode="." horiz-adv-x="449" 
d="M348 98q0 -51 -37 -88t-88 -37q-49 0 -86 36t-37 87q0 56 37 90.5t86 34.5t87 -35.5t38 -87.5z" />
    <glyph glyph-name="slash" unicode="/" horiz-adv-x="575" 
d="M14 -18l402 1433h145l-401 -1433h-146z" />
    <glyph glyph-name="zero" unicode="0" horiz-adv-x="1024" 
d="M963 702q0 -217 -60.5 -380.5t-163 -251.5t-227.5 -88q-133 0 -235.5 90t-159 252.5t-56.5 373.5q0 228 66 390.5t171 244.5t222 82q129 0 229.5 -93t157 -255t56.5 -365zM510 166q115 0 183.5 140t68.5 390q0 170 -33 291t-90 182.5t-129 61.5q-70 0 -126 -62.5
t-89 -181.5t-33 -285q0 -251 67.5 -393.5t180.5 -142.5z" />
    <glyph glyph-name="one" unicode="1" horiz-adv-x="1024" 
d="M496 0v1071l-252 -203l-119 144l496 403h75v-1415h-200z" />
    <glyph glyph-name="two" unicode="2" horiz-adv-x="1024" 
d="M854 985q0 -178 -112.5 -360.5t-282.5 -386.5q-8 -13 -18.5 -23t-18.5 -22h532v-193h-884v14l36 41q197 207 372 452t175 449q0 99 -41 157t-96 81t-104 23q-86 0 -168 -50.5t-146 -138.5v254q160 133 338 133q119 0 214 -55t149.5 -153.5t54.5 -221.5z" />
    <glyph glyph-name="three" unicode="3" horiz-adv-x="1024" 
d="M668 737q94 -32 147 -121.5t53 -209.5q0 -125 -57 -221.5t-154.5 -149.5t-214.5 -53q-166 0 -311 79v218q154 -99 305 -99q101 0 162 56.5t61 162.5q0 111 -76.5 170.5t-213.5 59.5v184q280 0 280 211q0 90 -65.5 149.5t-175.5 59.5q-60 0 -116 -16.5t-126 -51.5v191
q121 59 266 59q191 0 302.5 -99t111.5 -276q0 -108 -44 -182t-134 -121z" />
    <glyph glyph-name="four" unicode="4" horiz-adv-x="1024" 
d="M965 631v-172h-156v-459h-195v459h-591v88l704 868h82v-784h156zM614 631v405l-323 -405h323z" />
    <glyph glyph-name="five" unicode="5" horiz-adv-x="1024" 
d="M389 1219v-353h39q139 0 245.5 -56t165 -155.5t58.5 -224.5q0 -129 -58.5 -231.5t-164 -159.5t-242.5 -57q-164 0 -330 86v206q70 -45 148 -71.5t149 -26.5q84 0 151.5 34t105.5 92t38 128q0 94 -56 152.5t-131 83t-134 24.5q-43 0 -97.5 -6t-68.5 -14v727h620v-178h-438
z" />
    <glyph glyph-name="six" unicode="6" horiz-adv-x="1024" 
d="M336 750q104 57 227 57q103 0 192 -48t143 -139.5t54 -216.5q0 -116 -52 -212.5t-148.5 -152.5t-219.5 -56q-133 0 -232 61t-154.5 175t-55.5 267q0 273 141.5 507.5t417.5 422.5l121 -153q-156 -99 -270.5 -227t-163.5 -285zM535 168q100 0 158.5 60.5t58.5 168.5
q0 105 -67 165.5t-173 60.5q-82 0 -151.5 -37t-69.5 -148q0 -94 39 -154.5t95 -88t110 -27.5z" />
    <glyph glyph-name="seven" unicode="7" horiz-adv-x="1024" 
d="M371 -18l-178 77l512 1147h-605v191h901v-8z" />
    <glyph glyph-name="eight" unicode="8" horiz-adv-x="1024" 
d="M938 1024q0 -94 -41 -171t-133 -140q194 -111 194 -330q0 -115 -57 -207t-158.5 -143t-228.5 -51q-133 0 -234.5 57t-157.5 149.5t-56 194.5t50 189t148 141q-94 78 -130 150.5t-36 158.5q0 111 58.5 201t157 141t208.5 51q115 0 210 -51t150.5 -141t55.5 -199zM520 807
q86 0 152.5 58.5t66.5 150.5q0 90 -62.5 149.5t-160.5 59.5q-94 0 -157.5 -58.5t-63.5 -148.5q0 -92 68.5 -151.5t156.5 -59.5zM516 174q109 0 174.5 62.5t65.5 158.5q0 94 -67.5 155.5t-180.5 61.5q-109 0 -174.5 -63.5t-65.5 -155.5q0 -94 69 -156.5t179 -62.5z" />
    <glyph glyph-name="nine" unicode="9" horiz-adv-x="1024" 
d="M944 911q0 -168 -70.5 -345t-198.5 -330.5t-292 -253.5l-123 147q170 111 280.5 247t145.5 277q-104 -61 -223 -61q-115 0 -203 54t-137 146.5t-49 198.5q0 123 56 219.5t152.5 150.5t209.5 54q124 0 227.5 -59.5t164 -173t60.5 -271.5zM485 776q113 0 185.5 38t72.5 147
q0 110 -67.5 190t-181.5 80q-99 0 -159.5 -62.5t-60.5 -169.5q0 -92 59.5 -157.5t151.5 -65.5z" />
    <glyph glyph-name="colon" unicode=":" horiz-adv-x="469" 
d="M358 815q0 -51 -36.5 -88t-88.5 -37q-49 0 -85.5 36t-36.5 87q0 55 36.5 90t85.5 35q50 0 87.5 -36t37.5 -87zM358 98q0 -51 -36.5 -88t-88.5 -37q-49 0 -85.5 36t-36.5 87q0 56 36.5 90.5t85.5 34.5q50 0 87.5 -35.5t37.5 -87.5z" />
    <glyph glyph-name="semicolon" unicode=";" horiz-adv-x="469" 
d="M369 815q0 -51 -37 -88t-88 -37q-49 0 -86 36t-37 87q0 55 37 90t86 35t87 -36t38 -87zM365 74q0 -111 -63.5 -198t-176.5 -120v37q43 45 63.5 91t20.5 116q-49 14 -78 48t-29 83q0 55 37 94t86 39q62 0 101 -56t39 -134z" />
    <glyph glyph-name="less" unicode="&#x3c;" horiz-adv-x="1126" 
d="M1034 981l-692 -293q96 -45 330 -139q33 -14 154.5 -63.5t207.5 -92.5v-196l-942 426v133l942 420v-195z" />
    <glyph glyph-name="equal" unicode="=" horiz-adv-x="1126" 
d="M1034 860h-942v180h942v-180zM1034 373h-942v180h942v-180z" />
    <glyph glyph-name="greater" unicode="&#x3e;" horiz-adv-x="1126" 
d="M453 825q-103 41 -204.5 83t-156.5 73v195l942 -420v-133l-942 -426v196l688 295q-88 43 -327 137z" />
    <glyph glyph-name="question" unicode="?" 
d="M313 1415q113 0 197 -71.5t84 -227.5q0 -84 -40 -174t-124 -199q-145 -190 -145 -342q0 -18 6 -43q-62 25 -91.5 64t-29.5 106q0 70 22.5 136.5t79.5 158.5q68 107 90.5 162t22.5 111q0 63 -39 99t-100 36q-49 0 -113 -33l70 207q51 10 110 10zM418 104q0 -49 -37 -85.5
t-88 -36.5t-86 33.5t-35 86.5q0 54 37 89.5t86 35.5q47 0 85 -35.5t38 -87.5z" />
    <glyph glyph-name="at" unicode="@" horiz-adv-x="1870" 
d="M866 -301q-229 0 -408 97.5t-280.5 283.5t-101.5 446q0 244 113.5 448t323.5 323.5t484 119.5q230 0 412 -82t284.5 -235.5t102.5 -358.5q0 -182 -65.5 -321t-186.5 -216t-280 -77q-86 0 -134.5 47t-52.5 135q-82 -90 -160.5 -136t-168.5 -46q-127 0 -202 97.5t-75 258.5
q0 160 64.5 289t195.5 204t320 75q155 0 301 -45l-107 -584q-8 -62 -8 -84q0 -37 15.5 -53.5t54.5 -16.5q96 0 171.5 60.5t119.5 169t44 245.5q0 166 -78.5 289t-224 189.5t-342.5 66.5q-233 0 -407 -97t-268.5 -270t-94.5 -395q0 -213 78 -370.5t223.5 -243.5t343.5 -86
q197 0 347.5 45t269.5 137l72 -104q-127 -101 -295 -153t-400 -52zM1022 905q-115 0 -199 -53t-129 -145.5t-45 -206.5q0 -105 43 -168.5t125 -63.5q68 0 132.5 49.5t131.5 135.5l78 434q-20 8 -60 13t-77 5z" />
    <glyph glyph-name="A" unicode="A" horiz-adv-x="1366" 
d="M1161 0l-186 412h-594l-176 -412h-205l600 1405h141l625 -1405h-205zM668 1098l-209 -506h434z" />
    <glyph glyph-name="B" unicode="B" horiz-adv-x="1151" 
d="M989 1034q0 -207 -213 -295q154 -28 244 -126.5t90 -231.5q0 -131 -72.5 -217t-188.5 -125t-249 -39h-446v1397h403q207 0 319.5 -100.5t112.5 -262.5zM782 1018q0 106 -60 154.5t-198 48.5h-172v-426h142q147 0 217.5 63.5t70.5 159.5zM903 399q0 224 -348 224h-203
v-447h211q174 0 257 54.5t83 168.5z" />
    <glyph glyph-name="C" unicode="C" horiz-adv-x="1444" 
d="M1337 1300v-210q-247 139 -483 139q-164 0 -290 -75t-194.5 -197.5t-68.5 -262.5q0 -139 66.5 -260t191.5 -193.5t293 -72.5q264 0 500 156v-220q-230 -122 -508 -122q-244 0 -414 106.5t-254 270t-84 337.5q0 201 101.5 366t275.5 259t379 94q235 0 489 -115z" />
    <glyph glyph-name="D" unicode="D" horiz-adv-x="1530" 
d="M1438 715q0 -213 -95.5 -375t-266.5 -251t-390 -89h-532v1397h530q229 0 399 -88t262.5 -243t92.5 -351zM1231 709q0 233 -148.5 371.5t-435.5 138.5h-293v-1039h322q264 0 409.5 139.5t145.5 389.5z" />
    <glyph glyph-name="E" unicode="E" horiz-adv-x="1067" 
d="M354 1219v-426h572v-179h-572v-434h611v-180h-811v1397h792v-178h-592z" />
    <glyph glyph-name="F" unicode="F" horiz-adv-x="958" 
d="M354 1217v-388h545v-180h-545v-649h-200v1397h745v-180h-545z" />
    <glyph glyph-name="G" unicode="G" horiz-adv-x="1505" 
d="M844 1237q-150 0 -274 -70.5t-196.5 -193.5t-72.5 -275q0 -153 70.5 -276t196.5 -193.5t284 -70.5q78 0 137.5 12t177.5 49v291h-268v176h469v-590q-250 -114 -512 -114q-252 0 -424 103t-256 265t-84 336q0 197 94.5 364t267.5 266t394 99q121 0 229.5 -25.5
t261.5 -93.5v-204q-118 69 -247 107t-248 38z" />
    <glyph glyph-name="H" unicode="H" horiz-adv-x="1493" 
d="M1139 793v604h200v-1397h-200v608h-785v-608h-200v1397h200v-604h785z" />
    <glyph glyph-name="I" unicode="I" horiz-adv-x="508" 
d="M154 0v1397h200v-1397h-200z" />
    <glyph glyph-name="J" unicode="J" horiz-adv-x="508" 
d="M-27 -473q-28 0 -65 6l-37 186q127 0 184.5 21.5t78 83t20.5 199.5v1374h200v-1387q0 -178 -39 -283.5t-121.5 -152.5t-220.5 -47z" />
    <glyph glyph-name="K" unicode="K" horiz-adv-x="1343" 
d="M944 1397h250l-606 -662l755 -735h-274l-713 690v-690h-202v1397h202v-639z" />
    <glyph glyph-name="L" unicode="L" horiz-adv-x="1006" 
d="M985 182v-182h-831v1397h202v-1215h629z" />
    <glyph glyph-name="M" unicode="M" horiz-adv-x="1610" 
d="M1270 1397h186v-1397h-201v1087l-430 -540h-37l-434 540v-1087h-200v1397h188l465 -574z" />
    <glyph glyph-name="N" unicode="N" horiz-adv-x="1602" 
d="M1255 1397h193v-1397h-174l-928 1075v-1075h-192v1397h165l936 -1084v1084z" />
    <glyph glyph-name="O" unicode="O" horiz-adv-x="1686" 
d="M1593 700q0 -190 -91 -355t-265 -264t-408 -99q-215 0 -382.5 97t-261 260t-93.5 355q0 187 88 352.5t257 267t403 101.5q217 0 389 -95t268 -259t96 -361zM299 694q0 -149 72.5 -269t195.5 -187.5t267 -67.5q153 0 278 60.5t199.5 180t74.5 291.5q0 125 -62 246
t-185 200t-293 79q-168 0 -292 -71t-189.5 -191.5t-65.5 -270.5z" />
    <glyph glyph-name="P" unicode="P" horiz-adv-x="1092" 
d="M1034 1001q0 -200 -127 -297.5t-360 -97.5h-193v-606h-200v1397h426q213 0 333.5 -105.5t120.5 -290.5zM827 1006q0 104 -64.5 159.5t-223.5 55.5h-185v-439h185q163 0 225.5 56.5t62.5 167.5z" />
    <glyph glyph-name="Q" unicode="Q" horiz-adv-x="1686" 
d="M1014 4q241 -121 409 -121q29 0 55.5 6.5t77.5 22.5l3 -4l-197 -193q-309 29 -821 322q-215 90 -332 263t-117 394q0 211 99.5 375t270.5 255t380 91q237 0 407 -103.5t257 -267t87 -342.5q0 -167 -71.5 -313.5t-203.5 -248t-304 -136.5zM842 170q157 0 281 66.5
t193.5 186.5t69.5 275q0 131 -61 253t-185 199t-300 77q-174 0 -296 -74t-183.5 -195.5t-61.5 -263.5q0 -147 70.5 -267t194.5 -188.5t278 -68.5z" />
    <glyph glyph-name="R" unicode="R" horiz-adv-x="1231" 
d="M963 1008q0 -123 -59.5 -211t-174.5 -133q68 -43 114 -94.5t142 -196.5l246 -373h-238l-221 344q-98 156 -172 210t-156 54h-90v-608h-200v1397h385q133 0 229 -53.5t145.5 -142.5t49.5 -193zM758 1008q0 102 -60.5 157.5t-173.5 55.5h-170v-437h129q127 0 201 47.5
t74 176.5z" />
    <glyph glyph-name="S" unicode="S" horiz-adv-x="977" 
d="M831 1317v-227q-149 145 -327 145q-94 0 -149.5 -44t-55.5 -118q0 -47 14.5 -83t64.5 -82t150 -103q148 -86 224.5 -152.5t105.5 -136.5t29 -170q0 -102 -51.5 -185t-143.5 -131t-211 -48q-202 0 -377 129v254q74 -99 171.5 -152t205.5 -53q88 0 146.5 52t58.5 132
q0 53 -19.5 94t-85 94.5t-198.5 131.5q-156 90 -220.5 182t-64.5 221q0 98 53.5 178t146.5 125t212 45q172 0 321 -98z" />
    <glyph glyph-name="T" unicode="T" horiz-adv-x="1237" 
d="M715 1221v-1221h-201v1221h-479v176h1167v-176h-487z" />
    <glyph glyph-name="U" unicode="U" horiz-adv-x="1470" 
d="M737 160q203 0 300.5 102.5t97.5 327.5v807h200v-807q0 -291 -150.5 -449.5t-447.5 -158.5q-295 0 -448.5 150.5t-153.5 455.5v809h201v-809q0 -228 98 -328t303 -100z" />
    <glyph glyph-name="V" unicode="V" horiz-adv-x="1237" 
d="M1038 1397h199l-590 -1405h-45l-602 1405h201l424 -981z" />
    <glyph glyph-name="W" unicode="W" horiz-adv-x="2132" 
d="M973 1397h190l389 -963l381 963h199l-565 -1405h-43l-457 1138l-461 -1138h-43l-563 1405h201l385 -963z" />
    <glyph glyph-name="X" unicode="X" horiz-adv-x="1450" 
d="M729 864l436 533h242l-557 -674l596 -723h-242l-475 578q-244 -293 -481 -578h-244l602 723l-559 674h244z" />
    <glyph glyph-name="Y" unicode="Y" horiz-adv-x="1237" 
d="M995 1397h242l-516 -658v-739h-205v739l-516 658h242l374 -482z" />
    <glyph glyph-name="Z" unicode="Z" horiz-adv-x="1323" 
d="M1286 176v-176h-1261l895 1221h-838v176h1204l-893 -1221h893z" />
    <glyph glyph-name="bracketleft" unicode="[" 
d="M373 1231v-1520h280v-164h-477v1850h477v-166h-280z" />
    <glyph glyph-name="backslash" unicode="\" horiz-adv-x="575" 
d="M416 -18l-402 1433h146l401 -1433h-145z" />
    <glyph glyph-name="bracketright" unicode="]" 
d="M31 -453v164h278v1522h-278v164h475v-1850h-475z" />
    <glyph glyph-name="asciicircum" unicode="^" horiz-adv-x="1126" 
d="M1022 725h-195l-266 459l-264 -459h-195l398 672h121z" />
    <glyph glyph-name="underscore" unicode="_" horiz-adv-x="1024" 
d="M-12 -270v131h1048v-131h-1048z" />
    <glyph glyph-name="grave" unicode="`" 
d="M338 1036l-236 310h226l137 -310h-127z" />
    <glyph glyph-name="a" unicode="a" horiz-adv-x="866" 
d="M719 641v-463q0 -43 35 -43q30 0 96 49v-131q-107 -71 -191 -71q-102 0 -124 94q-119 -94 -248 -94q-97 0 -161.5 66.5t-64.5 158.5q0 90 57.5 151.5t139.5 97.5t215 79l64 20v51q0 84 -41 122t-125 38q-78 0 -153 -38t-138 -114v199q106 125 305 125q156 0 245 -81
t89 -216zM377 111q80 0 160 75v269q-158 -52 -224.5 -101t-66.5 -114q0 -56 36.5 -92.5t94.5 -36.5z" />
    <glyph glyph-name="b" unicode="b" horiz-adv-x="1038" 
d="M489 -20q-188 0 -356 71v1346h182v-543q113 84 254 84q115 0 205 -60.5t140.5 -167t50.5 -241.5q0 -154 -61.5 -264.5t-170 -167.5t-244.5 -57zM496 139q125 0 204.5 86t79.5 238q0 145 -71.5 230t-188.5 85q-108 0 -205 -90v-520q50 -14 89.5 -21.5t91.5 -7.5z" />
    <glyph glyph-name="c" unicode="c" horiz-adv-x="893" 
d="M795 874v-194q-70 45 -129.5 65.5t-126.5 20.5q-88 0 -150.5 -43t-95.5 -112.5t-33 -149.5q0 -121 74 -214t239 -93q66 0 121.5 16t120.5 45v-180q-135 -53 -268 -53q-166 0 -272.5 70.5t-153.5 177t-47 216.5q0 150 58 261.5t160.5 171t233.5 59.5q68 0 129.5 -14.5
t139.5 -49.5z" />
    <glyph glyph-name="d" unicode="d" horiz-adv-x="1042" 
d="M547 0q-166 0 -271.5 68.5t-153.5 172t-48 214.5q0 151 62.5 260.5t167 166t224.5 56.5q97 0 199 -37v496h182v-1397h-362zM584 160h143v575q-80 43 -182 43q-127 0 -207 -86t-80 -239q0 -140 85 -216.5t241 -76.5z" />
    <glyph glyph-name="e" unicode="e" horiz-adv-x="981" 
d="M905 463v-19h-647q10 -131 89 -209.5t208 -78.5q88 0 174 28.5t160 83.5v-178q-88 -59 -173 -83.5t-186 -24.5q-124 0 -228.5 59t-166 168.5t-61.5 257.5q0 133 53 240.5t150.5 169t226.5 61.5q114 0 205.5 -56.5t143.5 -164t52 -254.5zM502 780q-96 0 -164 -65.5
t-76 -161.5h463q-6 106 -63.5 166.5t-159.5 60.5z" />
    <glyph glyph-name="f" unicode="f" horiz-adv-x="532" 
d="M606 1395v-170q-41 16 -106 16q-86 0 -127 -57.5t-41 -192.5v-71h164v-164h-164v-756h-185v756h-129v164h129v73q0 199 88.5 309.5t235.5 110.5q70 0 135 -18z" />
    <glyph glyph-name="g" unicode="g" horiz-adv-x="874" 
d="M770 578q0 -125 -74.5 -199t-201.5 -98q-19 -5 -72 -14t-82 -26.5t-29 -45.5q0 -35 63.5 -65t174.5 -46q309 -51 309 -268q0 -135 -118.5 -212t-315.5 -77q-209 0 -316.5 78t-107.5 200q0 95 51 159.5t180 94.5q-92 56 -92 117q0 94 146 137q-203 84 -203 287
q0 145 108.5 232.5t307.5 87.5h364v-142h-188q96 -73 96 -200zM426 426q80 0 130 45t50 129q0 68 -51 115t-129 47t-129 -48t-51 -120q0 -78 54 -123t126 -45zM426 -328q123 0 189.5 35t66.5 100q0 70 -83 108t-218 38q-88 0 -148.5 -38t-60.5 -103q0 -68 65.5 -104
t188.5 -36z" />
    <glyph glyph-name="h" unicode="h" horiz-adv-x="1030" 
d="M907 575v-575h-182v571q0 215 -178 215q-66 0 -118 -28.5t-114 -98.5v-659h-182v1397h182v-598q56 67 129.5 103t153.5 36q152 0 230.5 -96.5t78.5 -266.5z" />
    <glyph glyph-name="i" unicode="i" horiz-adv-x="449" 
d="M332 1200q0 -43 -32 -75.5t-77 -32.5t-75.5 33.5t-30.5 74.5t30.5 74t75.5 33t77 -32t32 -75zM133 0v920h182v-920h-182z" />
    <glyph glyph-name="j" unicode="j" horiz-adv-x="449" 
d="M328 1200q0 -49 -30 -78.5t-79 -29.5q-45 0 -75.5 33.5t-30.5 74.5t31.5 74t74.5 33q47 0 78 -33t31 -74zM131 -471l-137 133q72 29 105.5 82t33.5 174v1002h182v-992q0 -121 -16 -191.5t-55 -117.5t-113 -90z" />
    <glyph glyph-name="k" unicode="k" horiz-adv-x="987" 
d="M133 0v1397h184v-1397h-184zM1030 0h-244l-460 469l407 451h217l-397 -449z" />
    <glyph glyph-name="l" unicode="l" horiz-adv-x="449" 
d="M133 0v1397h182v-1397h-182z" />
    <glyph glyph-name="m" unicode="m" horiz-adv-x="1591" 
d="M858 772q92 92 157.5 129t145.5 37q150 0 228.5 -95t78.5 -265v-578h-180v563q0 107 -50 163t-140 56q-51 0 -106.5 -30.5t-100.5 -83.5v-668h-180v551q0 121 -44 177t-137 56q-63 0 -115.5 -29.5t-101.5 -86.5v-668h-180v920h180v-121q74 73 137.5 106t137.5 33
q88 0 158.5 -41t111.5 -125z" />
    <glyph glyph-name="n" unicode="n" horiz-adv-x="1030" 
d="M907 555v-555h-182v551q0 235 -188 235q-64 0 -122.5 -34.5t-99.5 -94.5v-657h-182v920h182v-117q58 65 134.5 100t146.5 35q147 0 229 -100.5t82 -282.5z" />
    <glyph glyph-name="o" unicode="o" horiz-adv-x="1130" 
d="M1057 459q0 -158 -75 -265.5t-187.5 -159.5t-231.5 -52q-153 0 -265 69.5t-168 178t-56 223.5q0 137 61.5 247.5t174 174t259.5 63.5q138 0 249.5 -60.5t175 -169t63.5 -249.5zM260 459q0 -144 87 -229t220 -85q135 0 219 89.5t84 226.5q0 153 -91 233t-222 80
q-129 0 -213 -86t-84 -229z" />
    <glyph glyph-name="p" unicode="p" horiz-adv-x="1044" 
d="M514 -18q-55 0 -92 7t-107 34v-494h-182v1391h342q230 0 363 -120t133 -341q0 -133 -58.5 -243t-162 -172t-236.5 -62zM496 141q127 0 207.5 88t80.5 230q0 145 -79.5 223t-237.5 78h-152v-576q33 -18 81 -30.5t100 -12.5z" />
    <glyph glyph-name="q" unicode="q" horiz-adv-x="1040" 
d="M725 16q-109 -34 -199 -34q-127 0 -230 60t-162.5 167.5t-59.5 241.5q0 137 61.5 243.5t170 166t247.5 59.5h354v-1391h-182v487zM561 139q88 0 164 39v582h-143q-144 0 -234 -75t-90 -230q0 -142 84 -229t219 -87z" />
    <glyph glyph-name="r" unicode="r" horiz-adv-x="791" 
d="M793 834l-97 -160q-41 39 -90 64.5t-86 25.5q-47 0 -98 -34t-85 -96.5t-34 -144.5v-489h-182v920h182v-211q76 125 141.5 177t133.5 52q55 0 111 -28.5t104 -75.5z" />
    <glyph glyph-name="s" unicode="s" horiz-adv-x="788" 
d="M383 938q141 0 279 -76v-182q-84 51 -145.5 74.5t-121.5 23.5q-59 0 -87.5 -20.5t-28.5 -48.5q0 -27 11 -45.5t50 -47t121 -75.5q112 -66 179 -131.5t67 -165.5q0 -60 -32 -120.5t-103.5 -101t-180.5 -40.5q-78 0 -142.5 17t-164.5 67v196q66 -51 147.5 -86t145.5 -35
q72 0 106.5 24.5t34.5 61.5q0 31 -13 51.5t-57.5 51t-148.5 92.5q-102 63 -155.5 125.5t-53.5 150.5q0 105 83 172.5t210 67.5z" />
    <glyph glyph-name="t" unicode="t" horiz-adv-x="711" 
d="M342 920h291v-164h-291v-428q0 -84 25.5 -132.5t103.5 -48.5q107 0 209 66v-170q-47 -29 -113.5 -45t-122.5 -16q-141 0 -212.5 80.5t-71.5 265.5v428h-160v18l338 336h4v-190z" />
    <glyph glyph-name="u" unicode="u" horiz-adv-x="1030" 
d="M494 133q63 0 120.5 34t100.5 95v658h182v-920h-182v117q-60 -64 -134.5 -99.5t-146.5 -35.5q-311 0 -311 415v523h182v-549q0 -129 48 -183.5t141 -54.5z" />
    <glyph glyph-name="v" unicode="v" horiz-adv-x="883" 
d="M686 920h197l-406 -938h-61l-416 938h199l247 -566z" />
    <glyph glyph-name="w" unicode="w" horiz-adv-x="1473" 
d="M670 920h135l233 -558l240 558h195l-406 -938h-57l-273 643l-268 -643h-59l-410 938h195l241 -558z" />
    <glyph glyph-name="x" unicode="x" horiz-adv-x="1024" 
d="M764 920h233l-379 -453l406 -467h-233l-289 330l-273 -330h-229l387 467l-387 453h229l273 -316z" />
    <glyph glyph-name="y" unicode="y" horiz-adv-x="897" 
d="M700 920h197l-651 -1391h-195l314 668l-365 723h207l256 -519z" />
    <glyph glyph-name="z" unicode="z" horiz-adv-x="854" 
d="M342 168h487v-168h-802v6l479 744h-463v170h782v-7z" />
    <glyph glyph-name="braceleft" unicode="{" 
d="M430 1022v-176q0 -111 -16.5 -179.5t-61.5 -113.5t-129 -72q111 -35 159 -111.5t48 -234.5v-207q0 -100 16.5 -147t58.5 -65.5t132 -18.5v-152q-148 0 -226.5 32t-113.5 114t-35 237v203q0 154 -48 213t-157 59v158q115 8 160 70.5t45 214.5v172q0 170 22.5 250
t101.5 114.5t251 34.5v-151q-102 0 -144 -19.5t-52.5 -65.5t-10.5 -159z" />
    <glyph glyph-name="bar" unicode="|" horiz-adv-x="532" 
d="M188 -475v1872h156v-1872h-156z" />
    <glyph glyph-name="braceright" unicode="}" 
d="M252 1022q0 113 -10.5 159t-52.5 65.5t-144 19.5v151q172 0 251 -34.5t101.5 -114.5t22.5 -250v-172q0 -152 45 -214.5t160 -70.5v-158q-109 0 -157 -59t-48 -213v-203q0 -155 -35 -237t-113.5 -114t-226.5 -32v152q90 0 132 18.5t58.5 65.5t16.5 147v207q0 158 48 234.5
t159 111.5q-84 27 -129 72t-61.5 113.5t-16.5 179.5v176v0z" />
    <glyph glyph-name="asciitilde" unicode="~" horiz-adv-x="1126" 
d="M354 889q56 0 107 -19.5t129 -60.5q69 -37 112 -54.5t86 -17.5q64 0 117 33t129 115v-201q-69 -66 -128.5 -96.5t-127.5 -30.5q-59 0 -115.5 21.5t-134.5 62.5q-69 35 -108 51.5t-76 16.5q-65 0 -123.5 -36t-128.5 -114v201q68 67 128.5 98t133.5 31z" />
    <glyph glyph-name="uni00A0" unicode="&#xa0;" horiz-adv-x="569" 
 />
    <glyph glyph-name="exclamdown" unicode="&#xa1;" horiz-adv-x="555" 
d="M274 938q52 0 89.5 -34t37.5 -89q0 -53 -35.5 -90t-89.5 -37q-53 0 -88.5 37t-35.5 88t34.5 88t87.5 37zM231 434q11 45 22 74t19 29q21 0 45 -99q29 -114 50.5 -301.5t21.5 -312.5q0 -291 -115 -291q-57 0 -84.5 66.5t-27.5 216.5q0 151 20.5 317t48.5 301z" />
    <glyph glyph-name="cent" unicode="&#xa2;" horiz-adv-x="1024" 
d="M662 932l122 338h95l-129 -361q30 -8 90 -35v-194q-76 49 -148 72l-209 -576q62 -22 135 -22q66 0 121.5 16t120.5 45v-180q-135 -53 -268 -53q-92 0 -170 22l-141 -393h-97l156 430q-113 63 -167 175t-54 230q0 150 58.5 261.5t160.5 171t233 59.5q47 0 91 -6zM406 221
l196 547h-18q-88 0 -151.5 -44t-96.5 -113.5t-33 -149.5q0 -68 24.5 -131.5t78.5 -108.5z" />
    <glyph glyph-name="sterling" unicode="&#xa3;" horiz-adv-x="1024" 
d="M844 1225q-109 0 -198 -98.5t-161 -362.5h156v-160h-203l-108 -405q37 4 78 4q100 0 161.5 -9.5t71.5 -11.5q72 -14 127 -14q125 0 207 45v-195q-70 -20 -108 -28t-99 -8q-127 0 -233 20q-72 14 -140 14q-168 0 -315 -34l168 622h-154v160h195q78 264 196.5 457.5
t321.5 193.5q31 0 72 -8l114 -213q-12 12 -61 21.5t-88 9.5z" />
    <glyph glyph-name="currency" unicode="&#xa4;" horiz-adv-x="1130" 
d="M141 698q0 125 72 236l-139 137l114 119l140 -141q104 73 237 73q129 0 238 -73l139 141l115 -119l-139 -137q71 -109 71 -236t-71 -235l139 -135l-115 -119l-139 139q-113 -74 -238 -74q-133 0 -237 74l-140 -139l-114 119l139 135q-72 110 -72 235zM823 698
q0 111 -75.5 185.5t-186.5 74.5q-67 0 -126.5 -34.5t-94.5 -95t-35 -130.5q0 -71 35 -130.5t94.5 -94.5t128.5 -35q70 0 129.5 35t95 95.5t35.5 129.5z" />
    <glyph glyph-name="yen" unicode="&#xa5;" horiz-adv-x="1024" 
d="M61 756h342l-393 641h217l283 -486l287 486h217l-393 -641h342v-144h-353v-149h353v-144h-353v-319h-196v319h-353v144h353v149h-353v144z" />
    <glyph glyph-name="brokenbar" unicode="&#xa6;" horiz-adv-x="532" 
d="M188 633v764h156v-764h-156zM188 -475v764h156v-764h-156z" />
    <glyph glyph-name="section" unicode="&#xa7;" horiz-adv-x="877" 
d="M471 1255q-137 0 -137 -125q0 -61 39 -125.5t137 -154.5q108 -98 162.5 -153.5t98.5 -137.5t44 -176q0 -84 -41 -154.5t-135 -150.5q51 -66 71.5 -128.5t20.5 -144.5q0 -88 -45 -150.5t-118.5 -94t-157.5 -31.5q-166 0 -267 86v176q160 -102 254 -102q74 0 113 30.5
t39 87.5q0 70 -37 133.5t-143 170.5l-37 36q-86 86 -139.5 147.5t-92.5 144.5t-39 179q0 72 36 138.5t126 144.5q-71 92 -71 227q0 74 34.5 139.5t107.5 106.5t177 41q84 0 140.5 -19.5t107.5 -52.5v-182q-70 51 -127 72.5t-121 21.5zM246 633q0 -60 25.5 -111t84 -116.5
t199.5 -208.5q76 79 76 159q0 56 -24.5 105t-88 118.5t-207.5 206.5q-37 -41 -51 -75.5t-14 -77.5z" />
    <glyph glyph-name="dieresis" unicode="&#xa8;" 
d="M160 1317q43 0 74.5 -32t31.5 -75t-31.5 -73.5t-74.5 -30.5t-75 30.5t-32 73.5t32 75t75 32zM524 1317q43 0 74 -32t31 -75t-31 -73.5t-74 -30.5t-74.5 30.5t-31.5 73.5t31.5 75t74.5 32z" />
    <glyph glyph-name="copyright" unicode="&#xa9;" horiz-adv-x="1628" 
d="M815 1438q197 0 364 -97.5t265 -264.5t98 -365q0 -195 -96 -362t-263 -265t-366 -98q-194 0 -362 96t-268.5 262t-100.5 367q0 194 97.5 361t265 266.5t366.5 99.5zM817 68q176 0 323.5 87t232.5 235.5t85 322.5t-87 321.5t-233.5 234.5t-320.5 87q-176 0 -324.5 -87
t-235.5 -235.5t-87 -322.5q0 -176 87 -323.5t236.5 -233.5t323.5 -86zM854 281q-139 0 -240.5 54t-154.5 149.5t-53 217.5q0 117 51 214.5t152.5 155.5t242.5 58q127 0 264 -51v-151q-112 59 -231 59q-140 0 -218.5 -78t-78.5 -202q0 -127 82 -204t217 -77q57 0 111.5 13.5
t119.5 45.5v-149q-76 -29 -135 -42t-129 -13z" />
    <glyph glyph-name="ordfeminine" unicode="&#xaa;" horiz-adv-x="586" 
d="M483 1208v-247q0 -17 3 -23t12 -6q10 0 37.5 18.5t33.5 22.5v-88q-37 -25 -65.5 -36t-65.5 -11q-61 0 -82 47q-26 -19 -74.5 -33t-93.5 -14q-61 0 -104 43t-43 100q0 76 84 125q49 29 231 78q0 63 -23.5 89.5t-80.5 26.5q-55 0 -109.5 -30.5t-91.5 -75.5v141
q101 80 217 80q101 0 158 -52t57 -155zM254 928q57 0 102 37v147l-59 -16q-61 -21 -88 -42.5t-27 -56.5q0 -30 18.5 -49.5t53.5 -19.5z" />
    <glyph glyph-name="guillemotleft" unicode="&#xab;" horiz-adv-x="1004" 
d="M541 0h-181l-303 461l303 459h181l-303 -459zM956 0h-180l-301 461l301 459h180l-303 -459z" />
    <glyph glyph-name="logicalnot" unicode="&#xac;" horiz-adv-x="1126" 
d="M1034 395h-180v445h-762v180h942v-625z" />
    <glyph glyph-name="uni00AD" unicode="&#xad;" horiz-adv-x="662" 
d="M82 356v195h498v-195h-498z" />
    <glyph glyph-name="registered" unicode="&#xae;" horiz-adv-x="1628" 
d="M815 1438q197 0 364 -97.5t265 -264.5t98 -365q0 -195 -96 -362t-263 -265t-366 -98q-194 0 -362 96t-268.5 262t-100.5 367q0 194 97.5 361t265 266.5t366.5 99.5zM817 68q176 0 323.5 87t232.5 235.5t85 322.5t-87 321.5t-233.5 234.5t-320.5 87q-176 0 -324.5 -87
t-235.5 -235.5t-87 -322.5q0 -176 87 -323.5t236.5 -233.5t323.5 -86zM1128 899q0 -84 -61 -144.5t-162 -74.5q49 -16 81 -46t69 -85l155 -238h-190l-121 203q-43 74 -75.5 97.5t-96.5 23.5h-65v-324h-164v809h348q135 0 208.5 -58t73.5 -163zM950 881q0 127 -168 127h-120
v-260h114q80 0 127 33.5t47 99.5z" />
    <glyph glyph-name="macron" unicode="&#xaf;" horiz-adv-x="1024" 
d="M-12 1553v131h1048v-131h-1048z" />
    <glyph glyph-name="degree" unicode="&#xb0;" horiz-adv-x="811" 
d="M682 1139q0 -74 -37 -138.5t-100.5 -102.5t-138.5 -38q-76 0 -139.5 37t-101.5 100.5t-38 141.5q0 73 38 136.5t101.5 101.5t139.5 38q75 0 138.5 -36t100.5 -99t37 -141zM406 969q69 0 118 50t49 120q0 69 -50 118.5t-117 49.5q-68 0 -119 -49.5t-51 -118.5
q0 -70 50 -120t120 -50z" />
    <glyph glyph-name="plusminus" unicode="&#xb1;" horiz-adv-x="1126" 
d="M473 1249h180v-366h381v-181h-381v-366h-180v366h-381v181h381v366zM1034 0h-942v180h942v-180z" />
    <glyph glyph-name="uni00B2" unicode="&#xb2;" horiz-adv-x="662" 
d="M229 1208q105 117 138.5 177.5t33.5 117.5q0 60 -36.5 92.5t-94.5 32.5q-104 0 -194 -119v160q96 74 209 74q108 0 184 -61.5t76 -165.5q0 -80 -54.5 -167t-193.5 -231h307v-110h-547v14q52 51 172 186z" />
    <glyph glyph-name="uni00B3" unicode="&#xb3;" horiz-adv-x="662" 
d="M539 1544q0 -104 -97 -153q111 -43 111 -172q0 -97 -78 -159.5t-188 -62.5q-94 0 -193 46v129q101 -60 191 -60q55 0 88 27.5t33 77.5q0 55 -38 82.5t-135 29.5v107h21q145 0 145 102q0 45 -34.5 71.5t-94.5 26.5q-69 0 -155 -41v113q41 19 77.5 27t90.5 8q112 0 184 -51
t72 -148z" />
    <glyph glyph-name="acute" unicode="&#xb4;" 
d="M209 1036l135 310h223l-231 -310h-127z" />
    <glyph glyph-name="mu" unicode="&#xb5;" horiz-adv-x="1069" 
d="M315 274q84 -141 207 -141q96 0 150.5 59.5t54.5 149.5v578h182v-709q0 -76 47 -76q25 0 43.5 9.5t40.5 25.5v-131q-41 -31 -88 -44t-80 -13q-65 0 -103 31.5t-42 86.5q-43 -63 -93 -90.5t-114 -27.5q-65 0 -114.5 30.5t-90.5 98.5v-580h-182v1389h182v-646z" />
    <glyph glyph-name="paragraph" unicode="&#xb6;" horiz-adv-x="1110" 
d="M2 975q0 192 121 307t336 115h647v-172h-143v-1700h-166v1700h-224v-1700h-167v1044q-187 11 -295.5 122.5t-108.5 283.5z" />
    <glyph glyph-name="periodcentered" unicode="&#xb7;" horiz-adv-x="449" 
d="M348 713q0 -51 -37 -88t-88 -37q-49 0 -86 35.5t-37 87.5q0 55 37 90t86 35t87 -36t38 -87z" />
    <glyph glyph-name="cedilla" unicode="&#xb8;" 
d="M551 -213q0 -84 -77 -133t-206 -49q-69 0 -114 8v115q49 -9 102 -9q111 0 111 66q0 65 -86 65q-37 0 -62 -4l64 170h125l-29 -77q90 -9 131 -46.5t41 -105.5z" />
    <glyph glyph-name="uni00B9" unicode="&#xb9;" horiz-adv-x="662" 
d="M311 1008v518l-139 -121l-72 96l287 242h59v-735h-135z" />
    <glyph glyph-name="ordmasculine" unicode="&#xba;" horiz-adv-x="702" 
d="M350 840q-129 0 -215 82t-86 204q0 80 39 146.5t107.5 104.5t154.5 38q131 0 217 -83t86 -206q0 -125 -86 -205.5t-217 -80.5zM512 1128q0 84 -46 129.5t-114 45.5q-69 0 -114 -45.5t-45 -129.5q0 -81 44 -126.5t115 -45.5q70 0 115 45.5t45 126.5z" />
    <glyph glyph-name="guillemotright" unicode="&#xbb;" horiz-adv-x="1004" 
d="M225 0h-178l303 459l-303 461h178l303 -461zM641 0h-178l303 459l-303 461h178l303 -461z" />
    <glyph glyph-name="onequarter" unicode="&#xbc;" horiz-adv-x="1606" 
d="M311 670v518l-139 -121l-72 96l287 242h59v-735h-135zM282 -55l930 1470h139l-932 -1470h-137zM1556 334v-101h-92v-233h-139v233h-348v54l420 448h67v-401h92zM1325 334v174l-160 -174h160z" />
    <glyph glyph-name="onehalf" unicode="&#xbd;" horiz-adv-x="1606" 
d="M311 670v518l-139 -121l-72 96l287 242h59v-735h-135zM231 -55l930 1470h139l-932 -1470h-137zM1175 201q105 116 138.5 176.5t33.5 118.5q0 59 -36.5 92t-94.5 33q-104 0 -194 -119v160q96 73 209 73q108 0 184 -61.5t76 -165.5q0 -80 -54.5 -167t-193.5 -230h307v-111
h-547v14q52 52 172 187z" />
    <glyph glyph-name="threequarters" unicode="&#xbe;" horiz-adv-x="1606" 
d="M268 -55l930 1470h139l-932 -1470h-137zM1556 334v-101h-92v-233h-139v233h-348v54l420 448h67v-401h92zM1325 334v174l-160 -174h160zM539 1206q0 -104 -97 -153q111 -43 111 -172q0 -97 -78 -159.5t-188 -62.5q-94 0 -193 46v129q101 -60 191 -60q55 0 88 27.5t33 77.5
q0 55 -38 82.5t-135 29.5v107h21q145 0 145 102q0 45 -34.5 71.5t-94.5 26.5q-69 0 -155 -41v113q41 19 77.5 27t90.5 8q112 0 184 -51t72 -148z" />
    <glyph glyph-name="questiondown" unicode="&#xbf;" 
d="M264 815q0 49 37 86t88 37t86 -34t35 -87t-37 -89t-86 -36q-47 0 -85 36t-38 87zM369 -473q-113 0 -197 71.5t-84 227.5q0 84 40 174t124 199q145 190 145 342q0 18 -6 43q62 -25 91.5 -64t29.5 -106q0 -70 -22.5 -136.5t-79.5 -158.5q-68 -107 -90.5 -162t-22.5 -111
q0 -63 39 -99t100 -36q49 0 113 33l-70 -207q-51 -10 -110 -10z" />
    <glyph glyph-name="Agrave" unicode="&#xc0;" horiz-adv-x="1366" 
d="M1161 0l-186 412h-594l-176 -412h-205l600 1405h141l625 -1405h-205zM668 1098l-209 -506h434zM711 1493l-275 307h252l150 -307h-127z" />
    <glyph glyph-name="Aacute" unicode="&#xc1;" horiz-adv-x="1366" 
d="M1161 0l-186 412h-594l-176 -412h-205l600 1405h141l625 -1405h-205zM668 1098l-209 -506h434zM661 1493h-126l149 307h252z" />
    <glyph glyph-name="Acircumflex" unicode="&#xc2;" horiz-adv-x="1366" 
d="M1161 0l-186 412h-594l-176 -412h-205l600 1405h141l625 -1405h-205zM668 1098l-209 -506h434zM1024 1493h-127l-213 180l-215 -180h-125l193 307h290z" />
    <glyph glyph-name="Atilde" unicode="&#xc3;" horiz-adv-x="1366" 
d="M1161 0l-186 412h-594l-176 -412h-205l600 1405h141l625 -1405h-205zM668 1098l-209 -506h434zM729 1698q29 -12 56.5 -21.5t45.5 -9.5q35 0 51.5 19.5t22.5 60.5h99q-3 -111 -57 -173.5t-128 -62.5q-33 0 -64.5 10.5t-88.5 32.5q-33 15 -67 26t-60 11q-64 0 -72 -80
h-105q3 107 55 171.5t132 64.5q43 0 84 -13.5t96 -35.5z" />
    <glyph glyph-name="Adieresis" unicode="&#xc4;" horiz-adv-x="1366" 
d="M1161 0l-186 412h-594l-176 -412h-205l600 1405h141l625 -1405h-205zM668 1098l-209 -506h434zM500 1761q43 0 75.5 -32.5t32.5 -75.5q0 -45 -32.5 -77t-75.5 -32t-76 32t-33 77q0 43 33 75.5t76 32.5zM868 1761q43 0 76 -32.5t33 -75.5q0 -45 -33 -77t-76 -32t-75.5 32
t-32.5 77t32.5 76.5t75.5 31.5z" />
    <glyph glyph-name="Aring" unicode="&#xc5;" horiz-adv-x="1366" 
d="M1161 0l-186 412h-594l-176 -412h-205l600 1405h141l625 -1405h-205zM668 1098l-209 -506h434zM684 1711q82 0 139.5 -57.5t57.5 -138.5q0 -82 -57.5 -138.5t-139.5 -56.5t-138.5 56.5t-56.5 138.5q0 81 56.5 138.5t138.5 57.5zM684 1408q45 0 77 30.5t32 76.5
q0 45 -32 76.5t-77 31.5t-75.5 -31.5t-30.5 -76.5q0 -46 30.5 -76.5t75.5 -30.5z" />
    <glyph glyph-name="AE" unicode="&#xc6;" horiz-adv-x="1843" 
d="M1145 1219v-422h555v-181h-555v-436h596v-180h-797v616h-381l-364 -616h-219l827 1397h911v-178h-573zM944 1262l-276 -465h276v465z" />
    <glyph glyph-name="Ccedilla" unicode="&#xc7;" horiz-adv-x="1444" 
d="M1337 1300v-215q-247 140 -483 140q-166 0 -292 -74t-193.5 -195.5t-67.5 -261.5q0 -139 66.5 -260t191.5 -193.5t293 -72.5q264 0 500 156v-220q-213 -116 -488 -122l-14 -43q90 -9 131 -46.5t41 -105.5q0 -84 -77 -133t-206 -49q-69 0 -114 8v115q49 -9 102 -9
q111 0 111 66q0 65 -86 65q-37 0 -62 -4l51 142q-209 20 -356 128.5t-220 264.5t-73 315q0 201 101.5 366t275.5 259t379 94q221 0 489 -115z" />
    <glyph glyph-name="Egrave" unicode="&#xc8;" horiz-adv-x="1067" 
d="M354 1219v-426h572v-179h-572v-434h611v-180h-811v1397h792v-178h-592zM572 1493l-275 307h252l150 -307h-127z" />
    <glyph glyph-name="Eacute" unicode="&#xc9;" horiz-adv-x="1067" 
d="M354 1219v-426h572v-179h-572v-434h611v-180h-811v1397h792v-178h-592zM573 1493h-126l149 307h252z" />
    <glyph glyph-name="Ecircumflex" unicode="&#xca;" horiz-adv-x="1067" 
d="M354 1219v-426h572v-179h-572v-434h611v-180h-811v1397h792v-178h-592zM885 1493h-127l-213 180l-215 -180h-125l193 307h290z" />
    <glyph glyph-name="Edieresis" unicode="&#xcb;" horiz-adv-x="1067" 
d="M354 1219v-426h572v-179h-572v-434h611v-180h-811v1397h792v-178h-592zM361 1761q43 0 75.5 -32.5t32.5 -75.5q0 -45 -32.5 -77t-75.5 -32t-76 32t-33 77q0 43 33 75.5t76 32.5zM729 1761q43 0 76 -32.5t33 -75.5q0 -45 -33 -77t-76 -32t-75.5 32t-32.5 77t32.5 76.5
t75.5 31.5z" />
    <glyph glyph-name="Igrave" unicode="&#xcc;" horiz-adv-x="508" 
d="M154 0v1397h200v-1397h-200zM284 1493l-275 307h252l150 -307h-127z" />
    <glyph glyph-name="Iacute" unicode="&#xcd;" horiz-adv-x="508" 
d="M154 0v1397h200v-1397h-200zM234 1493h-126l149 307h252z" />
    <glyph glyph-name="Icircumflex" unicode="&#xce;" horiz-adv-x="508" 
d="M154 0v1397h200v-1397h-200zM597 1493h-127l-213 180l-215 -180h-125l193 307h290z" />
    <glyph glyph-name="Idieresis" unicode="&#xcf;" horiz-adv-x="508" 
d="M154 0v1397h200v-1397h-200zM73 1761q43 0 75.5 -32.5t32.5 -75.5q0 -45 -32.5 -77t-75.5 -32t-76 32t-33 77q0 43 33 75.5t76 32.5zM441 1761q43 0 76 -32.5t33 -75.5q0 -45 -33 -77t-76 -32t-75.5 32t-32.5 77t32.5 76.5t75.5 31.5z" />
    <glyph glyph-name="Eth" unicode="&#xd0;" horiz-adv-x="1530" 
d="M1438 715q0 -213 -95.5 -375t-266.5 -251t-390 -89h-532v633h-154v131h154v633h530q229 0 399 -88t262.5 -243t92.5 -351zM1231 709q0 233 -148.5 371.5t-435.5 138.5h-293v-455h398v-131h-398v-453h322q264 0 409.5 139.5t145.5 389.5z" />
    <glyph glyph-name="Ntilde" unicode="&#xd1;" horiz-adv-x="1602" 
d="M1255 1397h193v-1397h-174l-928 1075v-1075h-192v1397h165l936 -1084v1084zM840 1698q29 -12 56.5 -21.5t45.5 -9.5q35 0 51.5 19.5t22.5 60.5h99q-3 -111 -57 -173.5t-128 -62.5q-33 0 -64.5 10.5t-88.5 32.5q-33 15 -67 26t-60 11q-64 0 -72 -80h-105q3 107 55 171.5
t132 64.5q43 0 84 -13.5t96 -35.5z" />
    <glyph glyph-name="Ograve" unicode="&#xd2;" horiz-adv-x="1686" 
d="M1593 700q0 -190 -91 -355t-265 -264t-408 -99q-215 0 -382.5 97t-261 260t-93.5 355q0 187 88 352.5t257 267t403 101.5q217 0 389 -95t268 -259t96 -361zM299 694q0 -149 72.5 -269t195.5 -187.5t267 -67.5q153 0 278 60.5t199.5 180t74.5 291.5q0 125 -62 246
t-185 200t-293 79q-168 0 -292 -71t-189.5 -191.5t-65.5 -270.5zM891 1493l-275 307h252l150 -307h-127z" />
    <glyph glyph-name="Oacute" unicode="&#xd3;" horiz-adv-x="1686" 
d="M1593 700q0 -190 -91 -355t-265 -264t-408 -99q-215 0 -382.5 97t-261 260t-93.5 355q0 187 88 352.5t257 267t403 101.5q217 0 389 -95t268 -259t96 -361zM299 694q0 -149 72.5 -269t195.5 -187.5t267 -67.5q153 0 278 60.5t199.5 180t74.5 291.5q0 125 -62 246
t-185 200t-293 79q-168 0 -292 -71t-189.5 -191.5t-65.5 -270.5zM821 1493h-126l149 307h252z" />
    <glyph glyph-name="Ocircumflex" unicode="&#xd4;" horiz-adv-x="1686" 
d="M1593 700q0 -190 -91 -355t-265 -264t-408 -99q-215 0 -382.5 97t-261 260t-93.5 355q0 187 88 352.5t257 267t403 101.5q217 0 389 -95t268 -259t96 -361zM299 694q0 -149 72.5 -269t195.5 -187.5t267 -67.5q153 0 278 60.5t199.5 180t74.5 291.5q0 125 -62 246
t-185 200t-293 79q-168 0 -292 -71t-189.5 -191.5t-65.5 -270.5zM1184 1493h-127l-213 180l-215 -180h-125l193 307h290z" />
    <glyph glyph-name="Otilde" unicode="&#xd5;" horiz-adv-x="1686" 
d="M1593 700q0 -190 -91 -355t-265 -264t-408 -99q-215 0 -382.5 97t-261 260t-93.5 355q0 187 88 352.5t257 267t403 101.5q217 0 389 -95t268 -259t96 -361zM299 694q0 -149 72.5 -269t195.5 -187.5t267 -67.5q153 0 278 60.5t199.5 180t74.5 291.5q0 125 -62 246
t-185 200t-293 79q-168 0 -292 -71t-189.5 -191.5t-65.5 -270.5zM889 1698q29 -12 56.5 -21.5t45.5 -9.5q35 0 51.5 19.5t22.5 60.5h99q-3 -111 -57 -173.5t-128 -62.5q-33 0 -64.5 10.5t-88.5 32.5q-33 15 -67 26t-60 11q-64 0 -72 -80h-105q3 107 55 171.5t132 64.5
q43 0 84 -13.5t96 -35.5z" />
    <glyph glyph-name="Odieresis" unicode="&#xd6;" horiz-adv-x="1686" 
d="M1593 700q0 -190 -91 -355t-265 -264t-408 -99q-215 0 -382.5 97t-261 260t-93.5 355q0 187 88 352.5t257 267t403 101.5q217 0 389 -95t268 -259t96 -361zM299 694q0 -149 72.5 -269t195.5 -187.5t267 -67.5q153 0 278 60.5t199.5 180t74.5 291.5q0 125 -62 246
t-185 200t-293 79q-168 0 -292 -71t-189.5 -191.5t-65.5 -270.5zM660 1761q43 0 75.5 -32.5t32.5 -75.5q0 -45 -32.5 -77t-75.5 -32t-76 32t-33 77q0 43 33 75.5t76 32.5zM1028 1761q43 0 76 -32.5t33 -75.5q0 -45 -33 -77t-76 -32t-75.5 32t-32.5 77t32.5 76.5t75.5 31.5z
" />
    <glyph glyph-name="multiply" unicode="&#xd7;" horiz-adv-x="1126" 
d="M231 1165l330 -329l340 335l127 -127l-338 -335l332 -334l-127 -127l-334 334l-336 -340l-127 127l336 340l-330 327z" />
    <glyph glyph-name="Oslash" unicode="&#xd8;" horiz-adv-x="1686" 
d="M92 694q0 187 88 352.5t257 267t403 101.5q237 0 428 -119l106 123l94 -82l-100 -116q107 -101 166 -235t59 -286q0 -190 -91 -355t-265 -264t-408 -99q-235 0 -417 116l-105 -121l-94 82l100 117q-106 98 -163.5 233.5t-57.5 284.5zM299 694q0 -108 38 -200.5
t107 -163.5l697 817q-129 80 -295 80q-178 0 -302 -80t-184.5 -202t-60.5 -251zM1237 1067l-696 -817q131 -80 282 -80q201 0 327 85t181 207t55 240q0 97 -37.5 194t-111.5 171z" />
    <glyph glyph-name="Ugrave" unicode="&#xd9;" horiz-adv-x="1470" 
d="M737 160q203 0 300.5 102.5t97.5 327.5v807h200v-807q0 -291 -150.5 -449.5t-447.5 -158.5q-295 0 -448.5 150.5t-153.5 455.5v809h201v-809q0 -228 98 -328t303 -100zM764 1493l-275 307h252l150 -307h-127z" />
    <glyph glyph-name="Uacute" unicode="&#xda;" horiz-adv-x="1470" 
d="M737 160q203 0 300.5 102.5t97.5 327.5v807h200v-807q0 -291 -150.5 -449.5t-447.5 -158.5q-295 0 -448.5 150.5t-153.5 455.5v809h201v-809q0 -228 98 -328t303 -100zM714 1493h-126l149 307h252z" />
    <glyph glyph-name="Ucircumflex" unicode="&#xdb;" horiz-adv-x="1470" 
d="M737 160q203 0 300.5 102.5t97.5 327.5v807h200v-807q0 -291 -150.5 -449.5t-447.5 -158.5q-295 0 -448.5 150.5t-153.5 455.5v809h201v-809q0 -228 98 -328t303 -100zM1077 1493h-127l-213 180l-215 -180h-125l193 307h290z" />
    <glyph glyph-name="Udieresis" unicode="&#xdc;" horiz-adv-x="1470" 
d="M737 160q203 0 300.5 102.5t97.5 327.5v807h200v-807q0 -291 -150.5 -449.5t-447.5 -158.5q-295 0 -448.5 150.5t-153.5 455.5v809h201v-809q0 -228 98 -328t303 -100zM553 1761q43 0 75.5 -32.5t32.5 -75.5q0 -45 -32.5 -77t-75.5 -32t-76 32t-33 77q0 43 33 75.5
t76 32.5zM921 1761q43 0 76 -32.5t33 -75.5q0 -45 -33 -77t-76 -32t-75.5 32t-32.5 77t32.5 76.5t75.5 31.5z" />
    <glyph glyph-name="Yacute" unicode="&#xdd;" horiz-adv-x="1237" 
d="M995 1397h242l-516 -658v-739h-205v739l-516 658h242l374 -482zM659 1493h-126l149 307h252z" />
    <glyph glyph-name="Thorn" unicode="&#xde;" horiz-adv-x="1092" 
d="M580 1096q213 0 333.5 -105.5t120.5 -290.5q0 -200 -127 -297.5t-360 -97.5h-193v-305h-200v1397h200v-301h226zM827 705q0 104 -64.5 159.5t-223.5 55.5h-185v-439h185q163 0 225.5 56.5t62.5 167.5z" />
    <glyph glyph-name="germandbls" unicode="&#xdf;" horiz-adv-x="1042" 
d="M610 -18q-59 0 -141 18v168q29 -12 49.5 -17.5t50.5 -5.5q101 0 157 73t56 188q0 274 -297 274v164q242 0 242 217q0 88 -57.5 139t-149.5 51q-104 0 -154.5 -69.5t-50.5 -223.5v-958h-182v950q0 232 93 348.5t294 116.5q187 0 288 -98t101 -254q0 -111 -55 -184.5
t-145 -108.5q120 -31 190 -128t70 -241q0 -104 -40 -200.5t-121 -157.5t-198 -61z" />
    <glyph glyph-name="agrave" unicode="&#xe0;" horiz-adv-x="866" 
d="M719 641v-463q0 -43 35 -43q30 0 96 49v-131q-107 -71 -191 -71q-102 0 -124 94q-119 -94 -248 -94q-97 0 -161.5 66.5t-64.5 158.5q0 90 57.5 151.5t139.5 97.5t215 79l64 20v51q0 84 -41 122t-125 38q-78 0 -153 -38t-138 -114v199q106 125 305 125q156 0 245 -81
t89 -216zM377 111q80 0 160 75v269q-158 -52 -224.5 -101t-66.5 -114q0 -56 36.5 -92.5t94.5 -36.5zM401 1036l-236 310h226l137 -310h-127z" />
    <glyph glyph-name="aacute" unicode="&#xe1;" horiz-adv-x="866" 
d="M719 641v-463q0 -43 35 -43q30 0 96 49v-131q-107 -71 -191 -71q-102 0 -124 94q-119 -94 -248 -94q-97 0 -161.5 66.5t-64.5 158.5q0 90 57.5 151.5t139.5 97.5t215 79l64 20v51q0 84 -41 122t-125 38q-78 0 -153 -38t-138 -114v199q106 125 305 125q156 0 245 -81
t89 -216zM377 111q80 0 160 75v269q-158 -52 -224.5 -101t-66.5 -114q0 -56 36.5 -92.5t94.5 -36.5zM272 1036l135 310h223l-231 -310h-127z" />
    <glyph glyph-name="acircumflex" unicode="&#xe2;" horiz-adv-x="866" 
d="M719 641v-463q0 -43 35 -43q30 0 96 49v-131q-107 -71 -191 -71q-102 0 -124 94q-119 -94 -248 -94q-97 0 -161.5 66.5t-64.5 158.5q0 90 57.5 151.5t139.5 97.5t215 79l64 20v51q0 84 -41 122t-125 38q-78 0 -153 -38t-138 -114v199q106 125 305 125q156 0 245 -81
t89 -216zM377 111q80 0 160 75v269q-158 -52 -224.5 -101t-66.5 -114q0 -56 36.5 -92.5t94.5 -36.5zM567 1036l-168 176l-160 -176h-119l176 310h211l183 -310h-123z" />
    <glyph glyph-name="atilde" unicode="&#xe3;" horiz-adv-x="866" 
d="M719 641v-463q0 -43 35 -43q30 0 96 49v-131q-107 -71 -191 -71q-102 0 -124 94q-119 -94 -248 -94q-97 0 -161.5 66.5t-64.5 158.5q0 90 57.5 151.5t139.5 97.5t215 79l64 20v51q0 84 -41 122t-125 38q-78 0 -153 -38t-138 -114v199q106 125 305 125q156 0 245 -81
t89 -216zM377 111q80 0 160 75v269q-158 -52 -224.5 -101t-66.5 -114q0 -56 36.5 -92.5t94.5 -36.5zM450 1260q29 -13 56.5 -22t45.5 -9q35 0 51.5 19.5t22.5 60.5h99q-3 -111 -57 -173.5t-128 -62.5q-33 0 -64.5 10.5t-88.5 32.5q-33 14 -67 25.5t-60 11.5q-64 0 -72 -80
h-105q3 107 55 171.5t132 64.5q43 0 84 -13.5t96 -35.5z" />
    <glyph glyph-name="adieresis" unicode="&#xe4;" horiz-adv-x="866" 
d="M719 641v-463q0 -43 35 -43q30 0 96 49v-131q-107 -71 -191 -71q-102 0 -124 94q-119 -94 -248 -94q-97 0 -161.5 66.5t-64.5 158.5q0 90 57.5 151.5t139.5 97.5t215 79l64 20v51q0 84 -41 122t-125 38q-78 0 -153 -38t-138 -114v199q106 125 305 125q156 0 245 -81
t89 -216zM377 111q80 0 160 75v269q-158 -52 -224.5 -101t-66.5 -114q0 -56 36.5 -92.5t94.5 -36.5zM223 1317q43 0 74.5 -32t31.5 -75t-31.5 -73.5t-74.5 -30.5t-75 30.5t-32 73.5t32 75t75 32zM587 1317q43 0 74 -32t31 -75t-31 -73.5t-74 -30.5t-74.5 30.5t-31.5 73.5
t31.5 75t74.5 32z" />
    <glyph glyph-name="aring" unicode="&#xe5;" horiz-adv-x="866" 
d="M719 641v-463q0 -43 35 -43q30 0 96 49v-131q-107 -71 -191 -71q-102 0 -124 94q-119 -94 -248 -94q-97 0 -161.5 66.5t-64.5 158.5q0 90 57.5 151.5t139.5 97.5t215 79l64 20v51q0 84 -41 122t-125 38q-78 0 -153 -38t-138 -114v199q106 125 305 125q156 0 245 -81
t89 -216zM377 111q80 0 160 75v269q-158 -52 -224.5 -101t-66.5 -114q0 -56 36.5 -92.5t94.5 -36.5zM403 1427q82 0 139.5 -57t57.5 -139t-57.5 -138.5t-139.5 -56.5t-138.5 56.5t-56.5 138.5t56.5 139t138.5 57zM403 1120q47 0 80 33t33 78q0 47 -33 79.5t-80 32.5
q-45 0 -78 -32.5t-33 -79.5q0 -45 33 -78t78 -33z" />
    <glyph glyph-name="ae" unicode="&#xe6;" horiz-adv-x="1343" 
d="M389 938q82 0 150.5 -30.5t113.5 -96.5q70 70 133.5 98.5t139.5 28.5q164 0 257 -116.5t93 -307.5v-14h-567q0 -164 76.5 -258.5t211.5 -94.5q68 0 141.5 30t137.5 81v-178q-80 -55 -149.5 -76.5t-161.5 -21.5q-99 0 -188 38.5t-138 102.5q-90 -74 -169 -107.5
t-161 -33.5q-112 0 -180 66.5t-68 168.5q0 100 74 168t161 101.5t230 74.5v33q0 174 -153 174q-84 0 -153.5 -39t-137.5 -113v220q135 102 307 102zM920 780q-68 0 -120 -45t-69 -127h363q-13 86 -58 129t-116 43zM242 238q0 -60 34.5 -96t96.5 -36q94 0 213 99
q-27 51 -43.5 115.5t-16.5 123.5v15q-106 -39 -162.5 -66.5t-89 -64.5t-32.5 -90z" />
    <glyph glyph-name="ccedilla" unicode="&#xe7;" horiz-adv-x="893" 
d="M795 874v-194q-70 47 -130.5 67.5t-125.5 20.5q-88 0 -151.5 -44t-96.5 -113.5t-33 -149.5q0 -121 75 -214t240 -93q66 0 121.5 16t120.5 45v-180q-121 -49 -258 -53l-14 -43q90 -9 131 -46.5t41 -105.5q0 -84 -77 -133t-206 -49q-70 0 -115 8v115q50 -9 103 -9
q110 0 110 66q0 65 -86 65q-36 0 -61 -4l53 146q-127 22 -208 95t-117.5 168t-36.5 191q0 150 58 261.5t160.5 171t233.5 59.5q68 0 129.5 -14.5t139.5 -49.5z" />
    <glyph glyph-name="egrave" unicode="&#xe8;" horiz-adv-x="981" 
d="M905 463v-19h-647q10 -131 89 -209.5t208 -78.5q88 0 174 28.5t160 83.5v-178q-88 -59 -173 -83.5t-186 -24.5q-124 0 -228.5 59t-166 168.5t-61.5 257.5q0 133 53 240.5t150.5 169t226.5 61.5q114 0 205.5 -56.5t143.5 -164t52 -254.5zM502 780q-96 0 -164 -65.5
t-76 -161.5h463q-6 106 -63.5 166.5t-159.5 60.5zM510 1036l-236 310h226l137 -310h-127z" />
    <glyph glyph-name="eacute" unicode="&#xe9;" horiz-adv-x="981" 
d="M905 463v-19h-647q10 -131 89 -209.5t208 -78.5q88 0 174 28.5t160 83.5v-178q-88 -59 -173 -83.5t-186 -24.5q-124 0 -228.5 59t-166 168.5t-61.5 257.5q0 133 53 240.5t150.5 169t226.5 61.5q114 0 205.5 -56.5t143.5 -164t52 -254.5zM502 780q-96 0 -164 -65.5
t-76 -161.5h463q-6 106 -63.5 166.5t-159.5 60.5zM381 1036l135 310h223l-231 -310h-127z" />
    <glyph glyph-name="ecircumflex" unicode="&#xea;" horiz-adv-x="981" 
d="M905 463v-19h-647q10 -131 89 -209.5t208 -78.5q88 0 174 28.5t160 83.5v-178q-88 -59 -173 -83.5t-186 -24.5q-124 0 -228.5 59t-166 168.5t-61.5 257.5q0 133 53 240.5t150.5 169t226.5 61.5q114 0 205.5 -56.5t143.5 -164t52 -254.5zM502 780q-96 0 -164 -65.5
t-76 -161.5h463q-6 106 -63.5 166.5t-159.5 60.5zM666 1036l-168 176l-160 -176h-119l176 310h211l183 -310h-123z" />
    <glyph glyph-name="edieresis" unicode="&#xeb;" horiz-adv-x="981" 
d="M905 463v-19h-647q10 -131 89 -209.5t208 -78.5q88 0 174 28.5t160 83.5v-178q-88 -59 -173 -83.5t-186 -24.5q-124 0 -228.5 59t-166 168.5t-61.5 257.5q0 133 53 240.5t150.5 169t226.5 61.5q114 0 205.5 -56.5t143.5 -164t52 -254.5zM502 780q-96 0 -164 -65.5
t-76 -161.5h463q-6 106 -63.5 166.5t-159.5 60.5zM322 1317q43 0 74.5 -32t31.5 -75t-31.5 -73.5t-74.5 -30.5t-75 30.5t-32 73.5t32 75t75 32zM686 1317q43 0 74 -32t31 -75t-31 -73.5t-74 -30.5t-74.5 30.5t-31.5 73.5t31.5 75t74.5 32z" />
    <glyph glyph-name="igrave" unicode="&#xec;" horiz-adv-x="449" 
d="M133 0v920h182v-920h-182zM222 1036l-236 310h226l137 -310h-127z" />
    <glyph glyph-name="iacute" unicode="&#xed;" horiz-adv-x="449" 
d="M133 0v920h182v-920h-182zM93 1036l135 310h223l-231 -310h-127z" />
    <glyph glyph-name="icircumflex" unicode="&#xee;" horiz-adv-x="449" 
d="M133 0v920h182v-920h-182zM388 1036l-168 176l-160 -176h-119l176 310h211l183 -310h-123z" />
    <glyph glyph-name="idieresis" unicode="&#xef;" horiz-adv-x="449" 
d="M133 0v920h182v-920h-182zM44 1317q43 0 74.5 -32t31.5 -75t-31.5 -73.5t-74.5 -30.5t-75 30.5t-32 73.5t32 75t75 32zM408 1317q43 0 74 -32t31 -75t-31 -73.5t-74 -30.5t-74.5 30.5t-31.5 73.5t31.5 75t74.5 32z" />
    <glyph glyph-name="eth" unicode="&#xf0;" horiz-adv-x="1153" 
d="M606 1309l217 104l47 -110l-149 -76q162 -140 248 -321t86 -386q0 -190 -73 -311t-186.5 -174t-238.5 -53q-145 0 -254.5 68.5t-169 177t-59.5 225.5q0 127 56 237.5t168 179t267 68.5q66 0 118 -14.5t108 -44.5q-46 90 -100 153.5t-126 116.5l-293 -137l-45 112l226 103
q-86 39 -181 59l90 127q74 -20 128.5 -45t115.5 -59zM870 463q0 143 -87 227t-220 84q-137 0 -220 -87t-83 -234q0 -134 83 -221t224 -87q138 0 220.5 86t82.5 232z" />
    <glyph glyph-name="ntilde" unicode="&#xf1;" horiz-adv-x="1030" 
d="M907 555v-555h-182v551q0 235 -188 235q-64 0 -122.5 -34.5t-99.5 -94.5v-657h-182v920h182v-117q58 65 134.5 100t146.5 35q147 0 229 -100.5t82 -282.5zM567 1260q29 -13 56.5 -22t45.5 -9q35 0 51.5 19.5t22.5 60.5h99q-3 -111 -57 -173.5t-128 -62.5
q-33 0 -64.5 10.5t-88.5 32.5q-33 14 -67 25.5t-60 11.5q-64 0 -72 -80h-105q3 107 55 171.5t132 64.5q43 0 84 -13.5t96 -35.5z" />
    <glyph glyph-name="ograve" unicode="&#xf2;" horiz-adv-x="1130" 
d="M1057 459q0 -158 -75 -265.5t-187.5 -159.5t-231.5 -52q-153 0 -265 69.5t-168 178t-56 223.5q0 137 61.5 247.5t174 174t259.5 63.5q138 0 249.5 -60.5t175 -169t63.5 -249.5zM260 459q0 -144 87 -229t220 -85q135 0 219 89.5t84 226.5q0 153 -91 233t-222 80
q-129 0 -213 -86t-84 -229zM584 1036l-236 310h226l137 -310h-127z" />
    <glyph glyph-name="oacute" unicode="&#xf3;" horiz-adv-x="1130" 
d="M1057 459q0 -158 -75 -265.5t-187.5 -159.5t-231.5 -52q-153 0 -265 69.5t-168 178t-56 223.5q0 137 61.5 247.5t174 174t259.5 63.5q138 0 249.5 -60.5t175 -169t63.5 -249.5zM260 459q0 -144 87 -229t220 -85q135 0 219 89.5t84 226.5q0 153 -91 233t-222 80
q-129 0 -213 -86t-84 -229zM434 1036l135 310h223l-231 -310h-127z" />
    <glyph glyph-name="ocircumflex" unicode="&#xf4;" horiz-adv-x="1130" 
d="M1057 459q0 -158 -75 -265.5t-187.5 -159.5t-231.5 -52q-153 0 -265 69.5t-168 178t-56 223.5q0 137 61.5 247.5t174 174t259.5 63.5q138 0 249.5 -60.5t175 -169t63.5 -249.5zM260 459q0 -144 87 -229t220 -85q135 0 219 89.5t84 226.5q0 153 -91 233t-222 80
q-129 0 -213 -86t-84 -229zM750 1036l-168 176l-160 -176h-119l176 310h211l183 -310h-123z" />
    <glyph glyph-name="otilde" unicode="&#xf5;" horiz-adv-x="1130" 
d="M1057 459q0 -158 -75 -265.5t-187.5 -159.5t-231.5 -52q-153 0 -265 69.5t-168 178t-56 223.5q0 137 61.5 247.5t174 174t259.5 63.5q138 0 249.5 -60.5t175 -169t63.5 -249.5zM260 459q0 -144 87 -229t220 -85q135 0 219 89.5t84 226.5q0 153 -91 233t-222 80
q-129 0 -213 -86t-84 -229zM633 1260q29 -13 56.5 -22t45.5 -9q35 0 51.5 19.5t22.5 60.5h99q-3 -111 -57 -173.5t-128 -62.5q-33 0 -64.5 10.5t-88.5 32.5q-33 14 -67 25.5t-60 11.5q-64 0 -72 -80h-105q3 107 55 171.5t132 64.5q43 0 84 -13.5t96 -35.5z" />
    <glyph glyph-name="odieresis" unicode="&#xf6;" horiz-adv-x="1130" 
d="M1057 459q0 -158 -75 -265.5t-187.5 -159.5t-231.5 -52q-153 0 -265 69.5t-168 178t-56 223.5q0 137 61.5 247.5t174 174t259.5 63.5q138 0 249.5 -60.5t175 -169t63.5 -249.5zM260 459q0 -144 87 -229t220 -85q135 0 219 89.5t84 226.5q0 153 -91 233t-222 80
q-129 0 -213 -86t-84 -229zM406 1317q43 0 74.5 -32t31.5 -75t-31.5 -73.5t-74.5 -30.5t-75 30.5t-32 73.5t32 75t75 32zM770 1317q43 0 74 -32t31 -75t-31 -73.5t-74 -30.5t-74.5 30.5t-31.5 73.5t31.5 75t74.5 32z" />
    <glyph glyph-name="divide" unicode="&#xf7;" horiz-adv-x="1126" 
d="M684 1047q0 -50 -35 -84.5t-86 -34.5q-49 0 -83 35.5t-34 83.5q0 49 35 82.5t82 33.5q49 0 85 -33.5t36 -82.5zM1034 608h-942v180h942v-180zM684 352q0 -47 -35 -83t-86 -36q-49 0 -83 35t-34 84q0 45 35 81t82 36q49 0 85 -34t36 -83z" />
    <glyph glyph-name="oslash" unicode="&#xf8;" horiz-adv-x="1130" 
d="M74 453q0 137 61.5 247.5t174 174t259.5 63.5q158 0 279 -80l94 111l68 -62l-90 -104q65 -66 101 -154t36 -190q0 -158 -75 -265.5t-187.5 -159.5t-231.5 -52q-164 0 -280 77l-115 -135l-68 62l113 131q-68 67 -103.5 156t-35.5 180zM260 459q0 -127 68 -207l407 475
q-82 47 -178 47q-129 0 -213 -86t-84 -229zM803 666l-408 -476q72 -45 172 -45q135 0 219 89.5t84 226.5q0 123 -67 205z" />
    <glyph glyph-name="ugrave" unicode="&#xf9;" horiz-adv-x="1030" 
d="M494 133q63 0 120.5 34t100.5 95v658h182v-920h-182v117q-60 -64 -134.5 -99.5t-146.5 -35.5q-311 0 -311 415v523h182v-549q0 -129 48 -183.5t141 -54.5zM510 1036l-236 310h226l137 -310h-127z" />
    <glyph glyph-name="uacute" unicode="&#xfa;" horiz-adv-x="1030" 
d="M494 133q63 0 120.5 34t100.5 95v658h182v-920h-182v117q-60 -64 -134.5 -99.5t-146.5 -35.5q-311 0 -311 415v523h182v-549q0 -129 48 -183.5t141 -54.5zM381 1036l135 310h223l-231 -310h-127z" />
    <glyph glyph-name="ucircumflex" unicode="&#xfb;" horiz-adv-x="1030" 
d="M494 133q63 0 120.5 34t100.5 95v658h182v-920h-182v117q-60 -64 -134.5 -99.5t-146.5 -35.5q-311 0 -311 415v523h182v-549q0 -129 48 -183.5t141 -54.5zM676 1036l-168 176l-160 -176h-119l176 310h211l183 -310h-123z" />
    <glyph glyph-name="udieresis" unicode="&#xfc;" horiz-adv-x="1030" 
d="M494 133q63 0 120.5 34t100.5 95v658h182v-920h-182v117q-60 -64 -134.5 -99.5t-146.5 -35.5q-311 0 -311 415v523h182v-549q0 -129 48 -183.5t141 -54.5zM332 1317q43 0 74.5 -32t31.5 -75t-31.5 -73.5t-74.5 -30.5t-75 30.5t-32 73.5t32 75t75 32zM696 1317
q43 0 74 -32t31 -75t-31 -73.5t-74 -30.5t-74.5 30.5t-31.5 73.5t31.5 75t74.5 32z" />
    <glyph glyph-name="yacute" unicode="&#xfd;" horiz-adv-x="897" 
d="M700 920h197l-651 -1391h-195l314 668l-365 723h207l256 -519zM315 1036l135 310h223l-231 -310h-127z" />
    <glyph glyph-name="thorn" unicode="&#xfe;" horiz-adv-x="1044" 
d="M514 -18q-55 0 -90 7t-105 34v-494h-186v1868h186v-477h134q243 0 380.5 -120t137.5 -341q0 -133 -58.5 -243t-162 -172t-236.5 -62zM496 141q127 0 207.5 88t80.5 230q0 291 -317 291h-148v-566q76 -43 177 -43z" />
    <glyph glyph-name="ydieresis" unicode="&#xff;" horiz-adv-x="897" 
d="M700 920h197l-651 -1391h-195l314 668l-365 723h207l256 -519zM287 1317q43 0 74.5 -32t31.5 -75t-31.5 -73.5t-74.5 -30.5t-75 30.5t-32 73.5t32 75t75 32zM651 1317q43 0 74 -32t31 -75t-31 -73.5t-74 -30.5t-74.5 30.5t-31.5 73.5t31.5 75t74.5 32z" />
    <glyph glyph-name="Amacron" unicode="&#x100;" horiz-adv-x="1366" 
d="M1161 0l-186 412h-594l-176 -412h-205l600 1405h141l625 -1405h-205zM668 1098l-209 -506h434zM960 1577h-555v149h555v-149z" />
    <glyph glyph-name="amacron" unicode="&#x101;" horiz-adv-x="866" 
d="M719 641v-463q0 -43 35 -43q30 0 96 49v-131q-107 -71 -191 -71q-102 0 -124 94q-119 -94 -248 -94q-97 0 -161.5 66.5t-64.5 158.5q0 90 57.5 151.5t139.5 97.5t215 79l64 20v51q0 84 -41 122t-125 38q-78 0 -153 -38t-138 -114v199q106 125 305 125q156 0 245 -81
t89 -216zM377 111q80 0 160 75v269q-158 -52 -224.5 -101t-66.5 -114q0 -56 36.5 -92.5t94.5 -36.5zM681 1286v-149h-555v149h555z" />
    <glyph glyph-name="Abreve" unicode="&#x102;" horiz-adv-x="1366" 
d="M1161 0l-186 412h-594l-176 -412h-205l600 1405h141l625 -1405h-205zM668 1098l-209 -506h434zM690 1649q72 0 116 32.5t66 102.5h152q-25 -137 -116 -214t-224 -77q-143 0 -232.5 78t-109.5 213h152q41 -135 196 -135z" />
    <glyph glyph-name="abreve" unicode="&#x103;" horiz-adv-x="866" 
d="M719 641v-463q0 -43 35 -43q30 0 96 49v-131q-107 -71 -191 -71q-102 0 -124 94q-119 -94 -248 -94q-97 0 -161.5 66.5t-64.5 158.5q0 90 57.5 151.5t139.5 97.5t215 79l64 20v51q0 84 -41 122t-125 38q-78 0 -153 -38t-138 -114v199q106 125 305 125q156 0 245 -81
t89 -216zM377 111q80 0 160 75v269q-158 -52 -224.5 -101t-66.5 -114q0 -56 36.5 -92.5t94.5 -36.5zM407 1180q64 0 95.5 26.5t52.5 93.5h139q-13 -116 -94.5 -190t-196.5 -74t-190.5 70t-98.5 194h139q15 -55 53 -87.5t101 -32.5z" />
    <glyph glyph-name="Aogonek" unicode="&#x104;" horiz-adv-x="1366" 
d="M1315 0q-58 -82 -58 -127t27 -68.5t74 -23.5q39 0 100 22v-137q-43 -18 -72.5 -24.5t-64.5 -6.5q-107 0 -163 51.5t-56 137.5q0 94 72 176h-13l-186 412h-594l-176 -412h-205l600 1405h141l625 -1405h-51zM668 1098l-209 -506h434z" />
    <glyph glyph-name="aogonek" unicode="&#x105;" horiz-adv-x="874" 
d="M719 641v-483q0 -43 35 -43q30 0 96 49v-111q-78 -53 -129 -65q-47 -72 -47 -115q0 -45 26.5 -68.5t73.5 -23.5q39 0 100 22v-137q-43 -18 -72.5 -24.5t-64.5 -6.5q-106 0 -162.5 51.5t-56.5 137.5q0 92 72 174q-43 22 -55 78q-119 -94 -248 -94q-97 0 -161.5 66.5
t-64.5 158.5q0 90 57.5 151.5t139.5 97.5t215 79l64 20v51q0 84 -41 122t-125 38q-78 0 -153 -38t-138 -114v199q106 125 305 125q156 0 245 -81t89 -216zM377 111q80 0 160 75v269q-158 -52 -224.5 -101t-66.5 -114q0 -56 36.5 -92.5t94.5 -36.5z" />
    <glyph glyph-name="Cacute" unicode="&#x106;" horiz-adv-x="1444" 
d="M1337 1300v-210q-247 139 -483 139q-164 0 -290 -75t-194.5 -197.5t-68.5 -262.5q0 -139 66.5 -260t191.5 -193.5t293 -72.5q264 0 500 156v-220q-230 -122 -508 -122q-244 0 -414 106.5t-254 270t-84 337.5q0 201 101.5 366t275.5 259t379 94q235 0 489 -115zM780 1493
h-126l149 307h252z" />
    <glyph glyph-name="cacute" unicode="&#x107;" horiz-adv-x="893" 
d="M795 874v-194q-70 45 -129.5 65.5t-126.5 20.5q-88 0 -150.5 -43t-95.5 -112.5t-33 -149.5q0 -121 74 -214t239 -93q66 0 121.5 16t120.5 45v-180q-135 -53 -268 -53q-166 0 -272.5 70.5t-153.5 177t-47 216.5q0 150 58 261.5t160.5 171t233.5 59.5q68 0 129.5 -14.5
t139.5 -49.5zM373 1036l135 310h223l-231 -310h-127z" />
    <glyph glyph-name="Ccaron" unicode="&#x10c;" horiz-adv-x="1444" 
d="M1337 1300v-210q-247 139 -483 139q-164 0 -290 -75t-194.5 -197.5t-68.5 -262.5q0 -139 66.5 -260t191.5 -193.5t293 -72.5q264 0 500 156v-220q-230 -122 -508 -122q-244 0 -414 106.5t-254 270t-84 337.5q0 201 101.5 366t275.5 259t379 94q235 0 489 -115zM850 1620
l215 180h125l-193 -307h-290l-197 307h127z" />
    <glyph glyph-name="ccaron" unicode="&#x10d;" horiz-adv-x="893" 
d="M795 874v-194q-70 45 -129.5 65.5t-126.5 20.5q-88 0 -150.5 -43t-95.5 -112.5t-33 -149.5q0 -121 74 -214t239 -93q66 0 121.5 16t120.5 45v-180q-135 -53 -268 -53q-166 0 -272.5 70.5t-153.5 177t-47 216.5q0 150 58 261.5t160.5 171t233.5 59.5q68 0 129.5 -14.5
t139.5 -49.5zM693 1346h125l-218 -310h-208l-213 310h122l197 -175z" />
    <glyph glyph-name="Dcaron" unicode="&#x10e;" horiz-adv-x="1530" 
d="M1438 715q0 -213 -95.5 -375t-266.5 -251t-390 -89h-532v1397h530q229 0 399 -88t262.5 -243t92.5 -351zM1231 709q0 233 -148.5 371.5t-435.5 138.5h-293v-1039h322q264 0 409.5 139.5t145.5 389.5zM715 1620l215 180h125l-193 -307h-290l-197 307h127z" />
    <glyph glyph-name="dcaron" unicode="&#x10f;" horiz-adv-x="1241" 
d="M547 0q-166 0 -271.5 68.5t-153.5 172t-48 214.5q0 151 62.5 260.5t167 166t224.5 56.5q97 0 199 -37v496h182v-1397h-362zM584 160h143v575q-80 43 -182 43q-127 0 -207 -86t-80 -239q0 -140 85 -216.5t241 -76.5zM1028 1001q52 19 78.5 71t28.5 116q-47 4 -70.5 30.5
t-23.5 73.5q0 56 33.5 89.5t82.5 33.5q54 0 89.5 -42t35.5 -113q0 -60 -19.5 -111t-53 -91t-79.5 -64.5t-102 -30.5v38z" />
    <glyph glyph-name="Dcroat" unicode="&#x110;" horiz-adv-x="1530" 
d="M1438 715q0 -213 -95.5 -375t-266.5 -251t-390 -89h-532v633h-154v131h154v633h530q229 0 399 -88t262.5 -243t92.5 -351zM1231 709q0 233 -148.5 371.5t-435.5 138.5h-293v-455h398v-131h-398v-453h322q264 0 409.5 139.5t145.5 389.5z" />
    <glyph glyph-name="dcroat" unicode="&#x111;" horiz-adv-x="1042" 
d="M909 1397v-189h160v-106h-160v-1102h-397q-109 0 -190.5 36t-137 97.5t-83 144t-27.5 179.5q0 116 38 206.5t100 150.5t144 92t172 32q60 0 107 -10t90 -27v201h-219v106h219v189h184zM258 453q0 -146 74 -222.5t243 -76.5h150v585q-43 23 -86 33t-98 10
q-60 0 -112 -22.5t-90 -64.5t-59.5 -103.5t-21.5 -138.5z" />
    <glyph glyph-name="Emacron" unicode="&#x112;" horiz-adv-x="1067" 
d="M354 1219v-426h572v-179h-572v-434h611v-180h-811v1397h792v-178h-592zM821 1577h-555v149h555v-149z" />
    <glyph glyph-name="emacron" unicode="&#x113;" horiz-adv-x="981" 
d="M905 463v-19h-647q10 -131 89 -209.5t208 -78.5q88 0 174 28.5t160 83.5v-178q-88 -59 -173 -83.5t-186 -24.5q-124 0 -228.5 59t-166 168.5t-61.5 257.5q0 133 53 240.5t150.5 169t226.5 61.5q114 0 205.5 -56.5t143.5 -164t52 -254.5zM502 780q-96 0 -164 -65.5
t-76 -161.5h463q-6 106 -63.5 166.5t-159.5 60.5zM790 1286v-149h-555v149h555z" />
    <glyph glyph-name="Edotaccent" unicode="&#x116;" horiz-adv-x="1067" 
d="M354 1219v-426h572v-179h-572v-434h611v-180h-811v1397h792v-178h-592zM664 1661q0 -47 -35 -82t-84 -35t-84 35t-35 82t35 82t84 35t84 -35t35 -82z" />
    <glyph glyph-name="edotaccent" unicode="&#x117;" horiz-adv-x="981" 
d="M905 463v-19h-647q10 -131 89 -209.5t208 -78.5q88 0 174 28.5t160 83.5v-178q-88 -59 -173 -83.5t-186 -24.5q-124 0 -228.5 59t-166 168.5t-61.5 257.5q0 133 53 240.5t150.5 169t226.5 61.5q114 0 205.5 -56.5t143.5 -164t52 -254.5zM502 780q-96 0 -164 -65.5
t-76 -161.5h463q-6 106 -63.5 166.5t-159.5 60.5zM623 1206q0 -47 -35 -81.5t-84 -34.5t-84 34.5t-35 81.5t35 82t84 35t84 -35t35 -82z" />
    <glyph glyph-name="Eogonek" unicode="&#x118;" horiz-adv-x="1067" 
d="M354 1219v-426h572v-179h-572v-434h611v-180h-146q-57 -82 -57 -127t26.5 -68.5t73.5 -23.5q39 0 101 22v-137q-43 -18 -73 -24.5t-65 -6.5q-106 0 -162.5 51.5t-56.5 137.5q0 94 72 176h-524v1397h792v-178h-592z" />
    <glyph glyph-name="eogonek" unicode="&#x119;" horiz-adv-x="981" 
d="M905 463v-19h-647q10 -131 89 -209.5t208 -78.5q88 0 174 28.5t160 83.5v-178q-78 -51 -135 -72q-31 -38 -48.5 -77t-17.5 -68q0 -45 26.5 -68.5t73.5 -23.5q39 0 101 22v-137q-43 -18 -73 -24.5t-64 -6.5q-107 0 -163.5 51.5t-56.5 137.5q0 84 60 160q-21 -2 -62 -2
q-124 0 -228.5 59t-166 168.5t-61.5 257.5q0 133 53 240.5t150.5 169t226.5 61.5q114 0 205.5 -56.5t143.5 -164t52 -254.5zM502 780q-96 0 -164 -65.5t-76 -161.5h463q-6 106 -63.5 166.5t-159.5 60.5z" />
    <glyph glyph-name="Ecaron" unicode="&#x11a;" horiz-adv-x="1067" 
d="M354 1219v-426h572v-179h-572v-434h611v-180h-811v1397h792v-178h-592zM553 1620l215 180h125l-193 -307h-290l-197 307h127z" />
    <glyph glyph-name="ecaron" unicode="&#x11b;" horiz-adv-x="981" 
d="M905 463v-19h-647q10 -131 89 -209.5t208 -78.5q88 0 174 28.5t160 83.5v-178q-88 -59 -173 -83.5t-186 -24.5q-124 0 -228.5 59t-166 168.5t-61.5 257.5q0 133 53 240.5t150.5 169t226.5 61.5q114 0 205.5 -56.5t143.5 -164t52 -254.5zM502 780q-96 0 -164 -65.5
t-76 -161.5h463q-6 106 -63.5 166.5t-159.5 60.5zM711 1346h125l-218 -310h-208l-213 310h122l197 -175z" />
    <glyph glyph-name="Gbreve" unicode="&#x11e;" horiz-adv-x="1505" 
d="M844 1237q-150 0 -274 -70.5t-196.5 -193.5t-72.5 -275q0 -153 70.5 -276t196.5 -193.5t284 -70.5q78 0 137.5 12t177.5 49v291h-268v176h469v-590q-250 -114 -512 -114q-252 0 -424 103t-256 265t-84 336q0 197 94.5 364t267.5 266t394 99q121 0 229.5 -25.5
t261.5 -93.5v-204q-118 69 -247 107t-248 38zM807 1649q72 0 116 32.5t66 102.5h152q-25 -137 -116 -214t-224 -77q-143 0 -232.5 78t-109.5 213h152q41 -135 196 -135z" />
    <glyph glyph-name="gbreve" unicode="&#x11f;" horiz-adv-x="874" 
d="M770 578q0 -125 -74.5 -199t-201.5 -98q-19 -5 -72 -14t-82 -26.5t-29 -45.5q0 -35 63.5 -65t174.5 -46q309 -51 309 -268q0 -135 -118.5 -212t-315.5 -77q-209 0 -316.5 78t-107.5 200q0 95 51 159.5t180 94.5q-92 56 -92 117q0 94 146 137q-203 84 -203 287
q0 145 108.5 232.5t307.5 87.5h364v-142h-188q96 -73 96 -200zM426 426q80 0 130 45t50 129q0 68 -51 115t-129 47t-129 -48t-51 -120q0 -78 54 -123t126 -45zM426 -328q123 0 189.5 35t66.5 100q0 70 -83 108t-218 38q-88 0 -148.5 -38t-60.5 -103q0 -68 65.5 -104
t188.5 -36zM471 1180q64 0 95.5 26.5t52.5 93.5h139q-13 -116 -94.5 -190t-196.5 -74t-190.5 70t-98.5 194h139q15 -55 53 -87.5t101 -32.5z" />
    <glyph glyph-name="uni0122" unicode="&#x122;" horiz-adv-x="1505" 
d="M844 1237q-150 0 -274 -70.5t-196.5 -193.5t-72.5 -275q0 -153 70.5 -276t196.5 -193.5t284 -70.5q78 0 137.5 12t177.5 49v291h-268v176h469v-590q-250 -114 -512 -114q-252 0 -424 103t-256 265t-84 336q0 197 94.5 364t267.5 266t394 99q121 0 229.5 -25.5
t261.5 -93.5v-204q-118 69 -247 107t-248 38zM617 -473q102 37 106 129q-47 4 -70.5 30.5t-23.5 73.5q0 56 34 89.5t83 33.5q53 0 89 -42t36 -113q0 -103 -69 -165.5t-185 -74.5v39z" />
    <glyph glyph-name="uni0123" unicode="&#x123;" horiz-adv-x="874" 
d="M770 578q0 -125 -74.5 -199t-201.5 -98q-19 -5 -72 -14t-82 -26.5t-29 -45.5q0 -35 63.5 -65t174.5 -46q309 -51 309 -268q0 -135 -118.5 -212t-315.5 -77q-209 0 -316.5 78t-107.5 200q0 95 51 159.5t180 94.5q-92 56 -92 117q0 94 146 137q-203 84 -203 287
q0 145 108.5 232.5t307.5 87.5h364v-142h-188q96 -73 96 -200zM426 426q80 0 130 45t50 129q0 68 -51 115t-129 47t-129 -48t-51 -120q0 -78 54 -123t126 -45zM426 -328q123 0 189.5 35t66.5 100q0 70 -83 108t-218 38q-88 0 -148.5 -38t-60.5 -103q0 -68 65.5 -104
t188.5 -36zM547 1440q-27 -23 -44.5 -42.5t-28.5 -40t-15 -43t-7 -50.5q46 -11 72.5 -38.5t26.5 -68.5q0 -43 -33 -74.5t-80 -31.5q-57 0 -92 43t-35 102q0 37 14.5 76t42 75.5t68.5 66.5t94 46z" />
    <glyph glyph-name="Imacron" unicode="&#x12a;" horiz-adv-x="508" 
d="M154 0v1397h200v-1397h-200zM533 1577h-555v149h555v-149z" />
    <glyph glyph-name="imacron" unicode="&#x12b;" horiz-adv-x="449" 
d="M133 0v920h182v-920h-182zM502 1286v-149h-555v149h555z" />
    <glyph glyph-name="Iogonek" unicode="&#x12e;" horiz-adv-x="508" 
d="M305 0q-57 -82 -57 -127t26.5 -68.5t73.5 -23.5q39 0 101 22v-137q-43 -18 -73 -24.5t-65 -6.5q-106 0 -162.5 51.5t-56.5 137.5q0 94 72 176h-10v1397h200v-1397h-49z" />
    <glyph glyph-name="iogonek" unicode="&#x12f;" horiz-adv-x="449" 
d="M332 1200q0 -43 -32 -75.5t-77 -32.5t-75.5 33.5t-30.5 74.5t30.5 74t75.5 33t77 -32t32 -75zM279 0q-5 -6 -21 -31.5t-26.5 -49t-10.5 -46.5q0 -45 26.5 -68.5t74.5 -23.5q38 0 100 22v-137q-43 -18 -73 -24.5t-64 -6.5q-107 0 -163 51.5t-56 137.5q0 94 71 176h-4v920
h182v-920h-36z" />
    <glyph glyph-name="Idotaccent" unicode="&#x130;" horiz-adv-x="508" 
d="M154 0v1397h200v-1397h-200zM376 1661q0 -47 -35 -82t-84 -35t-84 35t-35 82t35 82t84 35t84 -35t35 -82z" />
    <glyph glyph-name="dotlessi" unicode="&#x131;" horiz-adv-x="449" 
d="M133 0v920h182v-920h-182z" />
    <glyph glyph-name="uni0136" unicode="&#x136;" horiz-adv-x="1343" 
d="M944 1397h250l-606 -662l755 -735h-274l-713 690v-690h-202v1397h202v-639zM521 -473q102 37 106 129q-47 4 -70.5 30.5t-23.5 73.5q0 56 34 89.5t83 33.5q53 0 89 -42t36 -113q0 -103 -69 -165.5t-185 -74.5v39z" />
    <glyph glyph-name="uni0137" unicode="&#x137;" horiz-adv-x="987" 
d="M133 0v1397h184v-1397h-184zM1030 0h-244l-460 469l407 451h217l-397 -449zM383 -473q102 37 106 129q-47 4 -70.5 30.5t-23.5 73.5q0 56 34 89.5t83 33.5q53 0 89 -42t36 -113q0 -103 -69 -165.5t-185 -74.5v39z" />
    <glyph glyph-name="Lacute" unicode="&#x139;" horiz-adv-x="1006" 
d="M985 182v-182h-831v1397h202v-1215h629zM318 1493h-126l149 307h252z" />
    <glyph glyph-name="lacute" unicode="&#x13a;" horiz-adv-x="449" 
d="M133 0v1397h182v-1397h-182zM93 1470l135 310h223l-231 -310h-127z" />
    <glyph glyph-name="uni013B" unicode="&#x13b;" horiz-adv-x="1006" 
d="M985 182v-182h-831v1397h202v-1215h629zM414 -473q102 37 106 129q-47 4 -70.5 30.5t-23.5 73.5q0 56 34 89.5t83 33.5q53 0 89 -42t36 -113q0 -103 -69 -165.5t-185 -74.5v39z" />
    <glyph glyph-name="uni013C" unicode="&#x13c;" horiz-adv-x="449" 
d="M133 0v1397h182v-1397h-182zM87 -473q102 37 106 129q-47 4 -70.5 30.5t-23.5 73.5q0 56 34 89.5t83 33.5q53 0 89 -42t36 -113q0 -103 -69 -165.5t-185 -74.5v39z" />
    <glyph glyph-name="Lcaron" unicode="&#x13d;" horiz-adv-x="1006" 
d="M985 182v-182h-831v1397h202v-1215h629zM602 1001q52 19 78.5 71t28.5 116q-47 4 -70.5 30.5t-23.5 73.5q0 56 33.5 89.5t82.5 33.5q54 0 89.5 -42t35.5 -113q0 -60 -19.5 -111t-53 -91t-79.5 -64.5t-102 -30.5v38z" />
    <glyph glyph-name="lcaron" unicode="&#x13e;" horiz-adv-x="651" 
d="M133 0v1397h182v-1397h-182zM438 1001q52 19 78.5 71t28.5 116q-47 4 -70.5 30.5t-23.5 73.5q0 56 33.5 89.5t82.5 33.5q54 0 89.5 -42t35.5 -113q0 -60 -19.5 -111t-53 -91t-79.5 -64.5t-102 -30.5v38z" />
    <glyph glyph-name="Lslash" unicode="&#x141;" horiz-adv-x="1006" 
d="M637 1085v-176l-283 -243v-484h631v-182h-831v512l-183 -145v186l183 149v695h200v-543z" />
    <glyph glyph-name="lslash" unicode="&#x142;" horiz-adv-x="449" 
d="M477 987v-162l-162 -133v-692h-182v545l-162 -125v162l162 131v684h182v-539z" />
    <glyph glyph-name="Nacute" unicode="&#x143;" horiz-adv-x="1602" 
d="M1255 1397h193v-1397h-174l-928 1075v-1075h-192v1397h165l936 -1084v1084zM833 1493h-126l149 307h252z" />
    <glyph glyph-name="nacute" unicode="&#x144;" horiz-adv-x="1030" 
d="M907 555v-555h-182v551q0 235 -188 235q-64 0 -122.5 -34.5t-99.5 -94.5v-657h-182v920h182v-117q58 65 134.5 100t146.5 35q147 0 229 -100.5t82 -282.5zM389 1036l135 310h223l-231 -310h-127z" />
    <glyph glyph-name="uni0145" unicode="&#x145;" horiz-adv-x="1602" 
d="M1255 1397h193v-1397h-174l-928 1075v-1075h-192v1397h165l936 -1084v1084zM652 -473q102 37 106 129q-47 4 -70.5 30.5t-23.5 73.5q0 56 34 89.5t83 33.5q53 0 89 -42t36 -113q0 -103 -69 -165.5t-185 -74.5v39z" />
    <glyph glyph-name="uni0146" unicode="&#x146;" horiz-adv-x="1030" 
d="M907 555v-555h-182v551q0 235 -188 235q-64 0 -122.5 -34.5t-99.5 -94.5v-657h-182v920h182v-117q58 65 134.5 100t146.5 35q147 0 229 -100.5t82 -282.5zM381 -473q102 37 106 129q-47 4 -70.5 30.5t-23.5 73.5q0 56 34 89.5t83 33.5q53 0 89 -42t36 -113
q0 -103 -69 -165.5t-185 -74.5v39z" />
    <glyph glyph-name="Ncaron" unicode="&#x147;" horiz-adv-x="1602" 
d="M1255 1397h193v-1397h-174l-928 1075v-1075h-192v1397h165l936 -1084v1084zM803 1620l215 180h125l-193 -307h-290l-197 307h127z" />
    <glyph glyph-name="ncaron" unicode="&#x148;" horiz-adv-x="1030" 
d="M907 555v-555h-182v551q0 235 -188 235q-64 0 -122.5 -34.5t-99.5 -94.5v-657h-182v920h182v-117q58 65 134.5 100t146.5 35q147 0 229 -100.5t82 -282.5zM719 1346h125l-218 -310h-208l-213 310h122l197 -175z" />
    <glyph glyph-name="Omacron" unicode="&#x14c;" horiz-adv-x="1686" 
d="M1593 700q0 -190 -91 -355t-265 -264t-408 -99q-215 0 -382.5 97t-261 260t-93.5 355q0 187 88 352.5t257 267t403 101.5q217 0 389 -95t268 -259t96 -361zM299 694q0 -149 72.5 -269t195.5 -187.5t267 -67.5q153 0 278 60.5t199.5 180t74.5 291.5q0 125 -62 246
t-185 200t-293 79q-168 0 -292 -71t-189.5 -191.5t-65.5 -270.5zM1120 1577h-555v149h555v-149z" />
    <glyph glyph-name="omacron" unicode="&#x14d;" horiz-adv-x="1130" 
d="M1057 459q0 -158 -75 -265.5t-187.5 -159.5t-231.5 -52q-153 0 -265 69.5t-168 178t-56 223.5q0 137 61.5 247.5t174 174t259.5 63.5q138 0 249.5 -60.5t175 -169t63.5 -249.5zM260 459q0 -144 87 -229t220 -85q135 0 219 89.5t84 226.5q0 153 -91 233t-222 80
q-129 0 -213 -86t-84 -229zM843 1286v-149h-555v149h555z" />
    <glyph glyph-name="Ohungarumlaut" unicode="&#x150;" horiz-adv-x="1686" 
d="M1593 700q0 -190 -91 -355t-265 -264t-408 -99q-215 0 -382.5 97t-261 260t-93.5 355q0 187 88 352.5t257 267t403 101.5q217 0 389 -95t268 -259t96 -361zM299 694q0 -149 72.5 -269t195.5 -187.5t267 -67.5q153 0 278 60.5t199.5 180t74.5 291.5q0 125 -62 246
t-185 200t-293 79q-168 0 -292 -71t-189.5 -191.5t-65.5 -270.5zM721 1493h-106l90 307h235zM1057 1493h-106l90 307h235z" />
    <glyph glyph-name="ohungarumlaut" unicode="&#x151;" horiz-adv-x="1130" 
d="M1057 459q0 -158 -75 -265.5t-187.5 -159.5t-231.5 -52q-153 0 -265 69.5t-168 178t-56 223.5q0 137 61.5 247.5t174 174t259.5 63.5q138 0 249.5 -60.5t175 -169t63.5 -249.5zM260 459q0 -144 87 -229t220 -85q135 0 219 89.5t84 226.5q0 153 -91 233t-222 80
q-129 0 -213 -86t-84 -229zM391 1036l133 299h215l-227 -299h-121zM709 1036l135 299h215l-227 -299h-123z" />
    <glyph glyph-name="OE" unicode="&#x152;" horiz-adv-x="1892" 
d="M1196 1223v-426h551v-181h-551v-442h594v-174h-928q-233 0 -408 92t-268.5 251t-93.5 349q0 219 103.5 379t282.5 243t401 83h888v-174h-571zM909 174h86v1049h-73q-279 0 -449 -134.5t-170 -390.5q0 -153 71.5 -272t209 -185.5t325.5 -66.5z" />
    <glyph glyph-name="oe" unicode="&#x153;" horiz-adv-x="1731" 
d="M1253 938q115 0 206 -56.5t143.5 -164t52.5 -254.5v-19h-645q10 -131 89 -209.5t206 -78.5q88 0 174 28.5t159 83.5v-178q-88 -59 -173 -83.5t-185 -24.5q-115 0 -208 49t-150 141q-64 -94 -165.5 -142t-209.5 -48q-141 0 -249 61t-166 168.5t-58 241.5q0 137 59.5 247.5
t168 174t251.5 63.5q119 0 213 -49t154 -137q55 88 142 137t191 49zM1251 780q-96 0 -163.5 -66.5t-75.5 -160.5h463q-7 106 -64 166.5t-160 60.5zM840 461q0 117 -49.5 186.5t-118 98t-129.5 28.5q-123 0 -203 -86t-80 -229q0 -144 82 -229t209 -85q129 0 209 89.5
t80 226.5z" />
    <glyph glyph-name="Racute" unicode="&#x154;" horiz-adv-x="1231" 
d="M963 1008q0 -123 -59.5 -211t-174.5 -133q68 -43 114 -94.5t142 -196.5l246 -373h-238l-221 344q-98 156 -172 210t-156 54h-90v-608h-200v1397h385q133 0 229 -53.5t145.5 -142.5t49.5 -193zM758 1008q0 102 -60.5 157.5t-173.5 55.5h-170v-437h129q127 0 201 47.5
t74 176.5zM530 1493h-126l149 307h252z" />
    <glyph glyph-name="racute" unicode="&#x155;" horiz-adv-x="791" 
d="M793 834l-97 -160q-41 39 -90 64.5t-86 25.5q-47 0 -98 -34t-85 -96.5t-34 -144.5v-489h-182v920h182v-211q76 125 141.5 177t133.5 52q55 0 111 -28.5t104 -75.5zM315 1036l135 310h223l-231 -310h-127z" />
    <glyph glyph-name="uni0156" unicode="&#x156;" horiz-adv-x="1231" 
d="M963 1008q0 -123 -59.5 -211t-174.5 -133q68 -43 114 -94.5t142 -196.5l246 -373h-238l-221 344q-98 156 -172 210t-156 54h-90v-608h-200v1397h385q133 0 229 -53.5t145.5 -142.5t49.5 -193zM758 1008q0 102 -60.5 157.5t-173.5 55.5h-170v-437h129q127 0 201 47.5
t74 176.5zM512 -473q102 37 106 129q-47 4 -70.5 30.5t-23.5 73.5q0 56 34 89.5t83 33.5q53 0 89 -42t36 -113q0 -103 -69 -165.5t-185 -74.5v39z" />
    <glyph glyph-name="uni0157" unicode="&#x157;" horiz-adv-x="791" 
d="M793 834l-97 -160q-41 39 -90 64.5t-86 25.5q-47 0 -98 -34t-85 -96.5t-34 -144.5v-489h-182v920h182v-211q76 125 141.5 177t133.5 52q55 0 111 -28.5t104 -75.5zM71 -473q102 37 106 129q-47 4 -70.5 30.5t-23.5 73.5q0 56 34 89.5t83 33.5q53 0 89 -42t36 -113
q0 -103 -69 -165.5t-185 -74.5v39z" />
    <glyph glyph-name="Rcaron" unicode="&#x158;" horiz-adv-x="1231" 
d="M963 1008q0 -123 -59.5 -211t-174.5 -133q68 -43 114 -94.5t142 -196.5l246 -373h-238l-221 344q-98 156 -172 210t-156 54h-90v-608h-200v1397h385q133 0 229 -53.5t145.5 -142.5t49.5 -193zM758 1008q0 102 -60.5 157.5t-173.5 55.5h-170v-437h129q127 0 201 47.5
t74 176.5zM520 1620l215 180h125l-193 -307h-290l-197 307h127z" />
    <glyph glyph-name="rcaron" unicode="&#x159;" horiz-adv-x="791" 
d="M793 834l-97 -160q-41 39 -90 64.5t-86 25.5q-47 0 -98 -34t-85 -96.5t-34 -144.5v-489h-182v920h182v-211q76 125 141.5 177t133.5 52q55 0 111 -28.5t104 -75.5zM645 1346h125l-218 -310h-208l-213 310h122l197 -175z" />
    <glyph glyph-name="Sacute" unicode="&#x15a;" horiz-adv-x="977" 
d="M831 1317v-227q-149 145 -327 145q-94 0 -149.5 -44t-55.5 -118q0 -47 14.5 -83t64.5 -82t150 -103q148 -86 224.5 -152.5t105.5 -136.5t29 -170q0 -102 -51.5 -185t-143.5 -131t-211 -48q-202 0 -377 129v254q74 -99 171.5 -152t205.5 -53q88 0 146.5 52t58.5 132
q0 53 -19.5 94t-85 94.5t-198.5 131.5q-156 90 -220.5 182t-64.5 221q0 98 53.5 178t146.5 125t212 45q172 0 321 -98zM493 1493h-126l149 307h252z" />
    <glyph glyph-name="sacute" unicode="&#x15b;" horiz-adv-x="788" 
d="M383 938q141 0 279 -76v-182q-84 51 -145.5 74.5t-121.5 23.5q-59 0 -87.5 -20.5t-28.5 -48.5q0 -27 11 -45.5t50 -47t121 -75.5q112 -66 179 -131.5t67 -165.5q0 -60 -32 -120.5t-103.5 -101t-180.5 -40.5q-78 0 -142.5 17t-164.5 67v196q66 -51 147.5 -86t145.5 -35
q72 0 106.5 24.5t34.5 61.5q0 31 -13 51.5t-57.5 51t-148.5 92.5q-102 63 -155.5 125.5t-53.5 150.5q0 105 83 172.5t210 67.5zM293 1036l135 310h223l-231 -310h-127z" />
    <glyph glyph-name="Scedilla" unicode="&#x15e;" horiz-adv-x="977" 
d="M831 1317v-227q-149 145 -327 145q-94 0 -149.5 -44t-55.5 -118q0 -47 14.5 -83t64.5 -82t150 -103q148 -86 224.5 -152.5t105.5 -136.5t29 -170q0 -98 -46 -178t-131 -129t-196 -55l-16 -45q90 -9 131 -46.5t41 -105.5q0 -84 -77 -133t-206 -49q-70 0 -115 8v115
q50 -9 103 -9q110 0 110 66q0 65 -86 65q-37 0 -61 -4l53 142q-147 20 -287 123v254q74 -99 171.5 -152t205.5 -53q88 0 146.5 52t58.5 132q0 53 -19.5 94t-85 94.5t-198.5 131.5q-156 90 -220.5 182t-64.5 221q0 98 53.5 178t146.5 125t212 45q172 0 321 -98z" />
    <glyph glyph-name="scedilla" unicode="&#x15f;" horiz-adv-x="788" 
d="M383 938q141 0 279 -76v-182q-84 51 -145.5 74.5t-121.5 23.5q-59 0 -87.5 -20.5t-28.5 -48.5q0 -27 11 -45.5t50 -47t121 -75.5q112 -66 179 -131.5t67 -165.5q0 -58 -30 -116t-95.5 -100t-165.5 -46l-17 -43q90 -9 131 -46.5t41 -105.5q0 -84 -76.5 -133t-205.5 -49
q-70 0 -115 8v115q49 -9 102 -9q111 0 111 66q0 65 -86 65q-37 0 -61 -4l53 144q-92 16 -209 76v196q66 -51 147.5 -86t145.5 -35q72 0 106.5 24.5t34.5 61.5q0 31 -13 51.5t-56 50t-150 93.5q-102 61 -155.5 124.5t-53.5 151.5q0 105 83 172.5t210 67.5z" />
    <glyph glyph-name="Scaron" unicode="&#x160;" horiz-adv-x="977" 
d="M831 1317v-227q-149 145 -327 145q-94 0 -149.5 -44t-55.5 -118q0 -47 14.5 -83t64.5 -82t150 -103q148 -86 224.5 -152.5t105.5 -136.5t29 -170q0 -102 -51.5 -185t-143.5 -131t-211 -48q-202 0 -377 129v254q74 -99 171.5 -152t205.5 -53q88 0 146.5 52t58.5 132
q0 53 -19.5 94t-85 94.5t-198.5 131.5q-156 90 -220.5 182t-64.5 221q0 98 53.5 178t146.5 125t212 45q172 0 321 -98zM514 1620l215 180h125l-193 -307h-290l-197 307h127z" />
    <glyph glyph-name="scaron" unicode="&#x161;" horiz-adv-x="788" 
d="M383 938q141 0 279 -76v-182q-84 51 -145.5 74.5t-121.5 23.5q-59 0 -87.5 -20.5t-28.5 -48.5q0 -27 11 -45.5t50 -47t121 -75.5q112 -66 179 -131.5t67 -165.5q0 -60 -32 -120.5t-103.5 -101t-180.5 -40.5q-78 0 -142.5 17t-164.5 67v196q66 -51 147.5 -86t145.5 -35
q72 0 106.5 24.5t34.5 61.5q0 31 -13 51.5t-57.5 51t-148.5 92.5q-102 63 -155.5 125.5t-53.5 150.5q0 105 83 172.5t210 67.5zM592 1346h125l-218 -310h-208l-213 310h122l197 -175z" />
    <glyph glyph-name="uni0162" unicode="&#x162;" horiz-adv-x="1237" 
d="M715 1221v-1221h-201v1221h-479v176h1167v-176h-487zM821 -270q0 -101 -70.5 -151t-228.5 -50q-35 0 -84 6v119q41 -4 92 -4q56 0 81.5 17.5t25.5 51.5q0 31 -27.5 47.5t-70.5 16.5q-29 0 -52 -2l29 119h35q131 0 200.5 -44t69.5 -126z" />
    <glyph glyph-name="uni0163" unicode="&#x163;" horiz-adv-x="711" 
d="M342 920h291v-164h-291v-428q0 -84 25.5 -132.5t103.5 -48.5q107 0 209 66v-170q-47 -29 -113.5 -45t-122.5 -16q-141 0 -212.5 80.5t-71.5 265.5v428h-160v18l338 336h4v-190zM525 -246q0 -88 -63.5 -135t-190.5 -47q-41 0 -66 6v113q37 -4 62 -4q45 0 71.5 14t26.5 41
q0 55 -76 55q-20 0 -33 -2l39 105h6q224 0 224 -146z" />
    <glyph glyph-name="Tcaron" unicode="&#x164;" horiz-adv-x="1237" 
d="M715 1221v-1221h-201v1221h-479v176h1167v-176h-487zM608 1620l215 180h125l-193 -307h-290l-197 307h127z" />
    <glyph glyph-name="tcaron" unicode="&#x165;" horiz-adv-x="780" 
d="M342 920h291v-164h-291v-428q0 -84 25.5 -132.5t103.5 -48.5q107 0 209 66v-170q-47 -29 -113.5 -45t-122.5 -16q-141 0 -212.5 80.5t-71.5 265.5v428h-160v18l338 336h4v-190zM567 1001q52 19 78.5 71t28.5 116q-47 4 -70.5 30.5t-23.5 73.5q0 56 33.5 89.5t82.5 33.5
q54 0 89.5 -42t35.5 -113q0 -60 -19.5 -111t-53 -91t-79.5 -64.5t-102 -30.5v38z" />
    <glyph glyph-name="Umacron" unicode="&#x16a;" horiz-adv-x="1470" 
d="M737 160q203 0 300.5 102.5t97.5 327.5v807h200v-807q0 -291 -150.5 -449.5t-447.5 -158.5q-295 0 -448.5 150.5t-153.5 455.5v809h201v-809q0 -228 98 -328t303 -100zM1013 1577h-555v149h555v-149z" />
    <glyph glyph-name="umacron" unicode="&#x16b;" horiz-adv-x="1030" 
d="M494 133q63 0 120.5 34t100.5 95v658h182v-920h-182v117q-60 -64 -134.5 -99.5t-146.5 -35.5q-311 0 -311 415v523h182v-549q0 -129 48 -183.5t141 -54.5zM790 1286v-149h-555v149h555z" />
    <glyph glyph-name="Uring" unicode="&#x16e;" horiz-adv-x="1470" 
d="M737 160q203 0 300.5 102.5t97.5 327.5v807h200v-807q0 -291 -150.5 -449.5t-447.5 -158.5q-295 0 -448.5 150.5t-153.5 455.5v809h201v-809q0 -228 98 -328t303 -100zM737 1884q82 0 139.5 -57.5t57.5 -138.5q0 -82 -57.5 -138.5t-139.5 -56.5t-138.5 56.5t-56.5 138.5
q0 81 56.5 138.5t138.5 57.5zM737 1581q45 0 77 30.5t32 76.5q0 45 -32 76.5t-77 31.5t-75.5 -31.5t-30.5 -76.5q0 -46 30.5 -76.5t75.5 -30.5z" />
    <glyph glyph-name="uring" unicode="&#x16f;" horiz-adv-x="1030" 
d="M494 133q63 0 120.5 34t100.5 95v658h182v-920h-182v117q-60 -64 -134.5 -99.5t-146.5 -35.5q-311 0 -311 415v523h182v-549q0 -129 48 -183.5t141 -54.5zM512 1427q82 0 139.5 -57t57.5 -139t-57.5 -138.5t-139.5 -56.5t-138.5 56.5t-56.5 138.5t56.5 139t138.5 57z
M512 1120q47 0 80 33t33 78q0 47 -33 79.5t-80 32.5q-45 0 -78 -32.5t-33 -79.5q0 -45 33 -78t78 -33z" />
    <glyph glyph-name="Uhungarumlaut" unicode="&#x170;" horiz-adv-x="1470" 
d="M737 160q203 0 300.5 102.5t97.5 327.5v807h200v-807q0 -291 -150.5 -449.5t-447.5 -158.5q-295 0 -448.5 150.5t-153.5 455.5v809h201v-809q0 -228 98 -328t303 -100zM614 1493h-106l90 307h235zM950 1493h-106l90 307h235z" />
    <glyph glyph-name="uhungarumlaut" unicode="&#x171;" horiz-adv-x="1030" 
d="M494 133q63 0 120.5 34t100.5 95v658h182v-920h-182v117q-60 -64 -134.5 -99.5t-146.5 -35.5q-311 0 -311 415v523h182v-549q0 -129 48 -183.5t141 -54.5zM307 1036l133 299h215l-227 -299h-121zM625 1036l135 299h215l-227 -299h-123z" />
    <glyph glyph-name="Uogonek" unicode="&#x172;" horiz-adv-x="1470" 
d="M737 160q203 0 300.5 102.5t97.5 327.5v807h200v-807q0 -281 -139 -437.5t-414 -168.5q-45 -70 -45 -111q0 -45 27 -68.5t74 -23.5q39 0 100 22v-137q-43 -18 -72.5 -24.5t-64.5 -6.5q-107 0 -163 51.5t-56 137.5q0 88 61 162q-250 22 -379 172.5t-129 429.5v809h201
v-809q0 -228 98 -328t303 -100z" />
    <glyph glyph-name="uogonek" unicode="&#x173;" horiz-adv-x="1030" 
d="M494 133q63 0 119.5 34t99.5 95v658h184v-920h-39q-57 -82 -57 -127t26.5 -68.5t73.5 -23.5q39 0 100 22v-137q-43 -18 -72.5 -24.5t-64.5 -6.5q-106 0 -162.5 51.5t-56.5 137.5q0 94 72 176h-4v117q-60 -64 -133.5 -99.5t-145.5 -35.5q-311 0 -311 415v523h184v-549
q0 -129 47 -183.5t140 -54.5z" />
    <glyph glyph-name="Ydieresis" unicode="&#x178;" horiz-adv-x="1237" 
d="M995 1397h242l-516 -658v-739h-205v739l-516 658h242l374 -482zM437 1761q43 0 75.5 -32.5t32.5 -75.5q0 -45 -32.5 -77t-75.5 -32t-76 32t-33 77q0 43 33 75.5t76 32.5zM805 1761q43 0 76 -32.5t33 -75.5q0 -45 -33 -77t-76 -32t-75.5 32t-32.5 77t32.5 76.5t75.5 31.5z
" />
    <glyph glyph-name="Zacute" unicode="&#x179;" horiz-adv-x="1323" 
d="M1286 176v-176h-1261l895 1221h-838v176h1204l-893 -1221h893zM641 1493h-126l149 307h252z" />
    <glyph glyph-name="zacute" unicode="&#x17a;" horiz-adv-x="854" 
d="M342 168h487v-168h-802v6l479 744h-463v170h782v-7zM295 1036l135 310h223l-231 -310h-127z" />
    <glyph glyph-name="Zdotaccent" unicode="&#x17b;" horiz-adv-x="1323" 
d="M1286 176v-176h-1261l895 1221h-838v176h1204l-893 -1221h893zM783 1661q0 -47 -35 -82t-84 -35t-84 35t-35 82t35 82t84 35t84 -35t35 -82z" />
    <glyph glyph-name="zdotaccent" unicode="&#x17c;" horiz-adv-x="854" 
d="M342 168h487v-168h-802v6l479 744h-463v170h782v-7zM547 1206q0 -47 -35 -81.5t-84 -34.5t-84 34.5t-35 81.5t35 82t84 35t84 -35t35 -82z" />
    <glyph glyph-name="Zcaron" unicode="&#x17d;" horiz-adv-x="1323" 
d="M1286 176v-176h-1261l895 1221h-838v176h1204l-893 -1221h893zM661 1620l215 180h125l-193 -307h-290l-197 307h127z" />
    <glyph glyph-name="zcaron" unicode="&#x17e;" horiz-adv-x="854" 
d="M342 168h487v-168h-802v6l479 744h-463v170h782v-7zM625 1346h125l-218 -310h-208l-213 310h122l197 -175z" />
    <glyph glyph-name="florin" unicode="&#x192;" horiz-adv-x="1024" 
d="M784 1257q-69 0 -103 -60t-60 -214l-25 -135h205l-25 -139h-205l-129 -742q-41 -241 -114.5 -340.5t-192.5 -99.5q-53 0 -93 5t-114 19l35 156q33 -10 75 -16t60 -6q43 0 74 28.5t55.5 104.5t48.5 219l113 672h-201l25 139h201l24 135q29 156 63 246t97.5 138t171.5 48
q43 0 85 -9t108 -30l-37 -153q-35 16 -75 25t-67 9z" />
    <glyph glyph-name="Ohorn" unicode="&#x1a0;" horiz-adv-x="1729" 
d="M1378 1210q109 4 158 67.5t49 229.5h164q0 -200 -66.5 -300.5t-197.5 -127.5q108 -172 108 -379q0 -190 -91 -355t-265 -264t-408 -99q-215 0 -382.5 97t-261 260t-93.5 355q0 187 88 352.5t257 267t403 101.5q161 0 298.5 -53t239.5 -152zM299 694q0 -149 72.5 -269
t195.5 -187.5t267 -67.5q153 0 278 60.5t199.5 180t74.5 291.5q0 125 -62 246t-185 200t-293 79q-168 0 -292 -71t-189.5 -191.5t-65.5 -270.5z" />
    <glyph glyph-name="ohorn" unicode="&#x1a1;" horiz-adv-x="1204" 
d="M918 805q71 10 102 58t31 157h163q0 -150 -51 -231.5t-153 -112.5q47 -98 47 -217q0 -158 -75 -265.5t-187.5 -159.5t-231.5 -52q-153 0 -265 69.5t-168 178t-56 223.5q0 137 61.5 247.5t174 174t259.5 63.5q103 0 192 -35t157 -98zM260 459q0 -144 87 -229t220 -85
q135 0 219 89.5t84 226.5q0 153 -91 233t-222 80q-129 0 -213 -86t-84 -229z" />
    <glyph glyph-name="Uhorn" unicode="&#x1af;" horiz-adv-x="1636" 
d="M737 160q203 0 300.5 102.5t97.5 327.5v807h200v-187q99 9 144 72.5t45 224.5h164q0 -231 -88.5 -329.5t-264.5 -108.5v-479q0 -291 -150.5 -449.5t-447.5 -158.5q-295 0 -448.5 150.5t-153.5 455.5v809h201v-809q0 -228 98 -328t303 -100z" />
    <glyph glyph-name="uhorn" unicode="&#x1b0;" horiz-adv-x="1194" 
d="M494 133q63 0 120.5 34t100.5 95v658h182v-119q94 4 134 50t40 169h164q0 -191 -83 -273.5t-255 -89.5v-657h-182v117q-60 -64 -134.5 -99.5t-146.5 -35.5q-311 0 -311 415v523h182v-549q0 -129 48 -183.5t141 -54.5z" />
    <glyph glyph-name="circumflex" unicode="&#x2c6;" 
d="M504 1036l-168 176l-160 -176h-119l176 310h211l183 -310h-123z" />
    <glyph glyph-name="caron" unicode="&#x2c7;" 
d="M539 1346h125l-218 -310h-208l-213 310h122l197 -175z" />
    <glyph glyph-name="breve" unicode="&#x2d8;" 
d="M344 1180q64 0 95.5 26.5t52.5 93.5h139q-13 -116 -94.5 -190t-196.5 -74t-190.5 70t-98.5 194h139q15 -55 53 -87.5t101 -32.5z" />
    <glyph glyph-name="dotaccent" unicode="&#x2d9;" 
d="M461 1206q0 -47 -35 -81.5t-84 -34.5t-84 34.5t-35 81.5t35 82t84 35t84 -35t35 -82z" />
    <glyph glyph-name="ogonek" unicode="&#x2db;" 
d="M344 -127q0 -45 26.5 -68.5t73.5 -23.5q39 0 101 22v-137q-43 -18 -73 -24.5t-64 -6.5q-107 0 -163.5 51.5t-56.5 137.5q0 100 91 194h137q-72 -94 -72 -145z" />
    <glyph glyph-name="tilde" unicode="&#x2dc;" 
d="M387 1260q29 -13 56.5 -22t45.5 -9q35 0 51.5 19.5t22.5 60.5h99q-3 -111 -57 -173.5t-128 -62.5q-33 0 -64.5 10.5t-88.5 32.5q-33 14 -67 25.5t-60 11.5q-64 0 -72 -80h-105q3 107 55 171.5t132 64.5q43 0 84 -13.5t96 -35.5z" />
    <glyph glyph-name="hungarumlaut" unicode="&#x2dd;" 
d="M94 1036l133 299h215l-227 -299h-121zM412 1036l135 299h215l-227 -299h-123z" />
    <glyph glyph-name="gravecomb" unicode="&#x300;" horiz-adv-x="0" 
d="M-571 1036l-236 310h225l138 -310h-127z" />
    <glyph glyph-name="acutecomb" unicode="&#x301;" horiz-adv-x="0" 
d="M-702 1036l135 310h223l-231 -310h-127z" />
    <glyph glyph-name="tildecomb" unicode="&#x303;" horiz-adv-x="0" 
d="M-477 1260q28 -13 56 -22t46 -9q35 0 51.5 19.5t22.5 60.5h98q-2 -111 -56 -173.5t-128 -62.5q-33 0 -64.5 10.5t-89.5 32.5q-32 14 -66 25.5t-61 11.5q-63 0 -71 -80h-105q2 107 54.5 171.5t132.5 64.5q43 0 84 -13.5t96 -35.5z" />
    <glyph glyph-name="hookabovecomb" unicode="&#x309;" horiz-adv-x="0" 
d="M-500 1018h-125v164h52q43 0 70.5 16t27.5 47q0 35 -25.5 52.5t-81.5 17.5q-61 0 -112 -10v120q65 13 149 13q109 0 171.5 -49.5t62.5 -141.5q0 -78 -52.5 -121t-136.5 -47v-61z" />
    <glyph glyph-name="dotbelowcomb" unicode="&#x323;" horiz-adv-x="0" 
d="M-446 -268q0 -47 -35 -82t-84 -35t-84 35t-35 82t35 81.5t84 34.5t84 -34.5t35 -81.5z" />
    <glyph glyph-name="tonos" unicode="&#x384;" 
d="M352 1038h-123l97 301h204z" />
    <glyph glyph-name="dieresistonos" unicode="&#x385;" 
d="M342 1118h-102l71 301h185zM102 1341q41 0 71 -29.5t30 -70.5t-30 -70.5t-71 -29.5t-70.5 29.5t-29.5 70.5t29.5 70.5t70.5 29.5zM580 1341q41 0 70.5 -29.5t29.5 -70.5t-29.5 -70.5t-70.5 -29.5t-71 29.5t-30 70.5t30 70.5t71 29.5z" />
    <glyph glyph-name="Alphatonos" unicode="&#x386;" horiz-adv-x="1366" 
d="M1161 8l-186 412h-594l-176 -412h-205l600 1405h141l625 -1405h-205zM668 1106l-209 -506h434zM185 1055h-123l97 342h204z" />
    <glyph glyph-name="Epsilontonos" unicode="&#x388;" horiz-adv-x="1284" 
d="M571 1219v-426h572v-179h-572v-434h611v-180h-811v1397h792v-178h-592zM124 1055h-123l97 342h204z" />
    <glyph glyph-name="Etatonos" unicode="&#x389;" horiz-adv-x="1716" 
d="M1362 793v604h200v-1397h-200v608h-785v-608h-200v1397h200v-604h785zM124 1055h-123l97 342h204z" />
    <glyph glyph-name="Iotatonos" unicode="&#x38a;" horiz-adv-x="717" 
d="M363 0v1397h200v-1397h-200zM124 1055h-123l97 342h204z" />
    <glyph glyph-name="Omicrontonos" unicode="&#x38c;" horiz-adv-x="1769" 
d="M1677 700q0 -190 -91 -355t-265 -264t-408 -99q-215 0 -382.5 97t-261 260t-93.5 355q0 187 88 352.5t257 267t403 101.5q217 0 389 -95t268 -259t96 -361zM383 694q0 -149 72.5 -269t195.5 -187.5t267 -67.5q153 0 278 60.5t199.5 180t74.5 291.5q0 125 -62 246
t-185 200t-293 79q-168 0 -292 -71t-189.5 -191.5t-65.5 -270.5zM124 1055h-123l97 342h204z" />
    <glyph glyph-name="Upsilontonos" unicode="&#x38e;" horiz-adv-x="1571" 
d="M1329 1397h242l-516 -658v-739h-205v739l-516 658h242l374 -482zM124 1055h-123l97 342h204z" />
    <glyph glyph-name="Omegatonos" unicode="&#x38f;" horiz-adv-x="1665" 
d="M184 803q0 178 87 317.5t245 216t360 76.5q211 0 370 -83t243 -223t84 -304q0 -197 -80 -340.5t-281 -282.5h336v-180h-543v182q203 144 282 288t79 323q0 122 -56.5 219.5t-169 155t-272.5 57.5q-149 0 -257.5 -58.5t-164 -157t-55.5 -212.5q0 -179 82 -329.5
t272 -285.5v-182h-536v180h332q-197 139 -277 282.5t-80 340.5zM124 1055h-123l97 342h204z" />
    <glyph glyph-name="iotadieresistonos" unicode="&#x390;" horiz-adv-x="475" 
d="M315 209q0 -35 11.5 -48.5t38.5 -13.5q38 0 104 37v-127q-92 -80 -188 -80q-88 0 -118 46.5t-30 158.5v738h182v-711zM251 1118h-102l71 301h185zM11 1341q41 0 71 -29.5t30 -70.5t-30 -70.5t-71 -29.5t-70.5 29.5t-29.5 70.5t29.5 70.5t70.5 29.5zM489 1341
q41 0 70.5 -29.5t29.5 -70.5t-29.5 -70.5t-70.5 -29.5t-71 29.5t-30 70.5t30 70.5t71 29.5z" />
    <glyph glyph-name="Alpha" unicode="&#x391;" horiz-adv-x="1366" 
d="M1161 0l-186 412h-594l-176 -412h-205l600 1405h141l625 -1405h-205zM668 1098l-209 -506h434z" />
    <glyph glyph-name="Beta" unicode="&#x392;" horiz-adv-x="1151" 
d="M989 1034q0 -207 -213 -295q154 -28 244 -126.5t90 -231.5q0 -131 -72.5 -217t-188.5 -125t-249 -39h-446v1397h403q207 0 319.5 -100.5t112.5 -262.5zM782 1018q0 106 -60 154.5t-198 48.5h-172v-426h142q147 0 217.5 63.5t70.5 159.5zM903 399q0 224 -348 224h-203
v-447h211q174 0 257 54.5t83 168.5z" />
    <glyph glyph-name="Gamma" unicode="&#x393;" horiz-adv-x="1012" 
d="M987 1212h-633v-1212h-200v1397h833v-185z" />
    <glyph glyph-name="uni0394" unicode="&#x394;" horiz-adv-x="1358" 
d="M1358 0h-1358l616 1405h127zM283 178h792l-395 909z" />
    <glyph glyph-name="Epsilon" unicode="&#x395;" horiz-adv-x="1067" 
d="M354 1219v-426h572v-179h-572v-434h611v-180h-811v1397h792v-178h-592z" />
    <glyph glyph-name="Zeta" unicode="&#x396;" horiz-adv-x="1323" 
d="M1286 176v-176h-1261l895 1221h-838v176h1204l-893 -1221h893z" />
    <glyph glyph-name="Eta" unicode="&#x397;" horiz-adv-x="1493" 
d="M1139 793v604h200v-1397h-200v608h-785v-608h-200v1397h200v-604h785z" />
    <glyph glyph-name="Theta" unicode="&#x398;" horiz-adv-x="1686" 
d="M1593 700q0 -190 -91 -355t-265 -264t-408 -99q-215 0 -382.5 97t-261 260t-93.5 355q0 187 88 352.5t257 267t403 101.5q217 0 389 -95t268 -259t96 -361zM299 694q0 -149 72.5 -269t195.5 -187.5t267 -67.5q196 0 320 85t178 208t54 239q0 125 -62 246t-185 200
t-293 79q-178 0 -302 -80t-184.5 -202t-60.5 -251zM434 618v177h817v-177h-817z" />
    <glyph glyph-name="Iota" unicode="&#x399;" horiz-adv-x="508" 
d="M154 0v1397h200v-1397h-200z" />
    <glyph glyph-name="Kappa" unicode="&#x39a;" horiz-adv-x="1343" 
d="M944 1397h250l-606 -662l755 -735h-274l-713 690v-690h-202v1397h202v-639z" />
    <glyph glyph-name="Lambda" unicode="&#x39b;" horiz-adv-x="1358" 
d="M201 0h-201l616 1405h129l613 -1405h-197l-481 1090z" />
    <glyph glyph-name="Mu" unicode="&#x39c;" horiz-adv-x="1610" 
d="M1270 1397h186v-1397h-201v1087l-430 -540h-37l-434 540v-1087h-200v1397h188l465 -574z" />
    <glyph glyph-name="Nu" unicode="&#x39d;" horiz-adv-x="1602" 
d="M1255 1397h193v-1397h-174l-928 1075v-1075h-192v1397h165l936 -1084v1084z" />
    <glyph glyph-name="Xi" unicode="&#x39e;" horiz-adv-x="1255" 
d="M1149 1214l-1043 -2v185h1043v-183zM1036 612h-817v183h817v-183zM1169 0h-1083v184h1083v-184z" />
    <glyph glyph-name="Omicron" unicode="&#x39f;" horiz-adv-x="1686" 
d="M1593 700q0 -190 -91 -355t-265 -264t-408 -99q-215 0 -382.5 97t-261 260t-93.5 355q0 187 88 352.5t257 267t403 101.5q217 0 389 -95t268 -259t96 -361zM299 694q0 -149 72.5 -269t195.5 -187.5t267 -67.5q153 0 278 60.5t199.5 180t74.5 291.5q0 125 -62 246
t-185 200t-293 79q-168 0 -292 -71t-189.5 -191.5t-65.5 -270.5z" />
    <glyph glyph-name="Pi" unicode="&#x3a0;" horiz-adv-x="1493" 
d="M1339 0h-200v1212h-785v-1212h-200v1397h1185v-1397z" />
    <glyph glyph-name="Rho" unicode="&#x3a1;" horiz-adv-x="1092" 
d="M1034 1001q0 -200 -127 -297.5t-360 -97.5h-193v-606h-200v1397h426q213 0 333.5 -105.5t120.5 -290.5zM827 1006q0 104 -64.5 159.5t-223.5 55.5h-185v-439h185q163 0 225.5 56.5t62.5 167.5z" />
    <glyph glyph-name="Sigma" unicode="&#x3a3;" horiz-adv-x="1229" 
d="M1128 1397v-185h-700l408 -499l-408 -529h756v-184h-1153l561 713l-561 684h1097z" />
    <glyph glyph-name="Tau" unicode="&#x3a4;" horiz-adv-x="1237" 
d="M715 1221v-1221h-201v1221h-479v176h1167v-176h-487z" />
    <glyph glyph-name="Upsilon" unicode="&#x3a5;" horiz-adv-x="1237" 
d="M995 1397h242l-516 -658v-739h-205v739l-516 658h242l374 -482z" />
    <glyph glyph-name="Phi" unicode="&#x3a6;" horiz-adv-x="1597" 
d="M92 713q0 137 72 243.5t209 170t325 71.5v217h201v-217q178 -6 316.5 -71.5t214 -174t75.5 -241.5q0 -131 -73.5 -242t-211 -176.5t-321.5 -69.5v-241h-201v241q-182 6 -320 70.5t-212 174.5t-74 245zM301 713q0 -131 101.5 -220.5t295.5 -89.5v615q-125 0 -215 -41
t-136 -110.5t-46 -153.5zM1296 717q0 90 -54 158.5t-145 105.5t-198 37v-615q191 3 294 90t103 224z" />
    <glyph glyph-name="Chi" unicode="&#x3a7;" horiz-adv-x="1450" 
d="M729 864l436 533h242l-557 -674l596 -723h-242l-475 578q-244 -293 -481 -578h-244l602 723l-559 674h244z" />
    <glyph glyph-name="Psi" unicode="&#x3a8;" horiz-adv-x="1585" 
d="M102 1067v86h201q0 -342 88 -526.5t301 -216.5v1005h201v-1005q213 34 301 217.5t88 525.5h201v-86q0 -385 -152.5 -592t-437.5 -246v-247h-201v247q-291 31 -440.5 241t-149.5 597z" />
    <glyph glyph-name="uni03A9" unicode="&#x3a9;" horiz-adv-x="1573" 
d="M92 803q0 178 87 317.5t245 216t360 76.5q211 0 370 -83t243 -223t84 -304q0 -197 -80 -340.5t-281 -282.5h336v-180h-543v182q203 144 282 288t79 323q0 122 -56.5 219.5t-169 155t-272.5 57.5q-149 0 -257.5 -58.5t-164 -157t-55.5 -212.5q0 -179 82 -329.5t272 -285.5
v-182h-536v180h332q-197 139 -277 282.5t-80 340.5z" />
    <glyph glyph-name="Iotadieresis" unicode="&#x3aa;" horiz-adv-x="508" 
d="M154 0v1397h200v-1397h-200zM73 1761q43 0 75.5 -32.5t32.5 -75.5q0 -45 -32.5 -77t-75.5 -32t-76 32t-33 77q0 43 33 75.5t76 32.5zM441 1761q43 0 76 -32.5t33 -75.5q0 -45 -33 -77t-76 -32t-75.5 32t-32.5 77t32.5 76.5t75.5 31.5z" />
    <glyph glyph-name="Upsilondieresis" unicode="&#x3ab;" horiz-adv-x="1237" 
d="M995 1397h242l-516 -658v-739h-205v739l-516 658h242l374 -482zM437 1761q43 0 75.5 -32.5t32.5 -75.5q0 -45 -32.5 -77t-75.5 -32t-76 32t-33 77q0 43 33 75.5t76 32.5zM805 1761q43 0 76 -32.5t33 -75.5q0 -45 -33 -77t-76 -32t-75.5 32t-32.5 77t32.5 76.5t75.5 31.5z
" />
    <glyph glyph-name="alphatonos" unicode="&#x3ac;" horiz-adv-x="1065" 
d="M846 -18q-55 0 -87 29.5t-38 82.5q-121 -114 -264 -114q-109 0 -196 57t-137 167.5t-50 262.5q0 141 57 247.5t156.5 165t222.5 58.5q102 0 213 -53v35h182v-680q0 -52 10.5 -70t38.5 -18q21 0 34 5t27.5 14t20.5 13v-135q-116 -67 -190 -67zM545 778q-139 0 -212 -86
t-73 -231q0 -156 63.5 -239t174.5 -83q131 0 225 111v475q-88 53 -178 53zM555 1038h-123l97 301h204z" />
    <glyph glyph-name="epsilontonos" unicode="&#x3ad;" horiz-adv-x="877" 
d="M475 -20q-178 0 -287.5 68.5t-109.5 199.5q0 78 60.5 140.5t152.5 82.5v4q-82 14 -132 72.5t-50 132.5q0 115 89 186.5t267 71.5q174 0 311 -68v-161q-149 65 -289 65q-92 0 -143 -28.5t-51 -83.5q0 -70 56.5 -100t178.5 -30h72v-143h-102q-105 0 -169.5 -29.5
t-64.5 -89.5q0 -65 60.5 -96t189.5 -31q82 0 161 20.5t136 57.5v-176q-53 -31 -148.5 -48t-187.5 -17zM516 1038h-123l97 301h204z" />
    <glyph glyph-name="etatonos" unicode="&#x3ae;" horiz-adv-x="1057" 
d="M119 766q-37 0 -105 -47v133q117 84 193 84q57 0 90 -33t43 -100q135 135 283 135q147 0 229 -100.5t82 -272.5v-1036h-182v1026q0 231 -187 231q-131 0 -223 -129v-657h-182v711q0 55 -41 55zM610 1038h-123l97 301h204z" />
    <glyph glyph-name="iotatonos" unicode="&#x3af;" horiz-adv-x="475" 
d="M315 209q0 -35 11.5 -48.5t38.5 -13.5q38 0 104 37v-127q-92 -80 -188 -80q-88 0 -118 46.5t-30 158.5v738h182v-711zM257 1038h-123l97 301h204z" />
    <glyph glyph-name="upsilondieresistonos" unicode="&#x3b0;" horiz-adv-x="1012" 
d="M305 385q0 -244 201 -244q100 0 150.5 65.5t50.5 182.5v531h182v-529q0 -186 -94.5 -297.5t-286.5 -111.5q-191 0 -288 101t-97 302v535h182v-535zM508 1118h-102l71 301h185zM268 1341q41 0 71 -29.5t30 -70.5t-30 -70.5t-71 -29.5t-70.5 29.5t-29.5 70.5t29.5 70.5
t70.5 29.5zM746 1341q41 0 70.5 -29.5t29.5 -70.5t-29.5 -70.5t-70.5 -29.5t-71 29.5t-30 70.5t30 70.5t71 29.5z" />
    <glyph glyph-name="alpha" unicode="&#x3b1;" horiz-adv-x="1065" 
d="M846 -18q-55 0 -87 29.5t-38 82.5q-121 -114 -264 -114q-109 0 -196 57t-137 167.5t-50 262.5q0 141 57 247.5t156.5 165t222.5 58.5q102 0 213 -53v35h182v-680q0 -52 10.5 -70t38.5 -18q21 0 34 5t27.5 14t20.5 13v-135q-116 -67 -190 -67zM545 778q-139 0 -212 -86
t-73 -231q0 -156 63.5 -239t174.5 -83q131 0 225 111v475q-88 53 -178 53z" />
    <glyph glyph-name="beta" unicode="&#x3b2;" horiz-adv-x="1044" 
d="M582 -20q-74 0 -144.5 24.5t-122.5 75.5v-551h-182v1421q0 465 397 465q177 0 278 -96t101 -258q0 -94 -55 -176t-160 -113q133 -29 205 -124t72 -245q0 -120 -46 -216.5t-134.5 -151.5t-208.5 -55zM561 143q105 0 164 69t59 191q0 273 -301 281v160h17q110 0 168.5 54
t58.5 163q0 86 -54.5 138t-144.5 52q-112 0 -162.5 -70.5t-50.5 -222.5v-573q0 -109 67 -175.5t179 -66.5z" />
    <glyph glyph-name="gamma" unicode="&#x3b3;" horiz-adv-x="995" 
d="M145 942q99 0 158 -58.5t107.5 -192.5t117.5 -410q54 151 128.5 327t146.5 312h192q-112 -211 -227 -472.5t-174 -461.5q37 -121 37 -219q0 -111 -31 -172.5t-78 -61.5q-51 0 -85 61.5t-34 165.5q0 115 37 226q-84 340 -141 511t-102 228t-101 57q-43 0 -80 -37l-36 123
q40 43 80 58.5t85 15.5z" />
    <glyph glyph-name="delta" unicode="&#x3b4;" horiz-adv-x="1130" 
d="M532 1257q-167 0 -167 -59q0 -29 21.5 -52.5t89 -63.5t218.5 -117q191 -99 277 -219.5t86 -278.5q0 -145 -64.5 -255t-178.5 -170t-259 -60q-149 0 -259 69.5t-166 179t-56 228.5q0 184 112.5 307t300.5 139q-165 80 -232 148.5t-67 146.5q0 98 86 156.5t267 58.5
q180 0 377 -88l-58 -153q-168 83 -328 83zM870 471q0 127 -84 215t-229 88q-129 0 -213 -89t-84 -226q0 -146 82 -230t217 -84q141 0 226 89.5t85 236.5z" />
    <glyph glyph-name="epsilon" unicode="&#x3b5;" horiz-adv-x="877" 
d="M475 -20q-178 0 -287.5 68.5t-109.5 199.5q0 78 60.5 140.5t152.5 82.5v4q-82 14 -132 72.5t-50 132.5q0 115 89 186.5t267 71.5q174 0 311 -68v-161q-149 65 -289 65q-92 0 -143 -28.5t-51 -83.5q0 -70 56.5 -100t178.5 -30h72v-143h-102q-105 0 -169.5 -29.5
t-64.5 -89.5q0 -65 60.5 -96t189.5 -31q82 0 161 20.5t136 57.5v-176q-53 -31 -148.5 -48t-187.5 -17z" />
    <glyph glyph-name="zeta" unicode="&#x3b6;" horiz-adv-x="913" 
d="M477 -299q98 0 155.5 40t57.5 107q0 78 -55 112t-189 34q-188 0 -274 91t-86 286q0 151 75 324t265 431q-117 25 -185.5 60t-129.5 98l106 127q68 -59 160 -99t178 -48q63 53 146 90t147 37q98 0 98 -64q0 -98 -110.5 -150.5t-239.5 -66.5q-324 -381 -324 -733
q0 -84 19.5 -129t73 -65.5t157.5 -20.5q180 0 265 -78t85 -219q0 -96 -51 -172t-141 -118t-203 -42q-67 0 -147 18l41 158q45 -8 106 -8z" />
    <glyph glyph-name="eta" unicode="&#x3b7;" horiz-adv-x="1057" 
d="M119 766q-37 0 -105 -47v133q117 84 193 84q57 0 90 -33t43 -100q135 135 283 135q147 0 229 -100.5t82 -272.5v-1036h-182v1026q0 231 -187 231q-131 0 -223 -129v-657h-182v711q0 55 -41 55z" />
    <glyph glyph-name="theta" unicode="&#x3b8;" horiz-adv-x="989" 
d="M74 686q0 223 51 388t147.5 254t225.5 89q112 0 207.5 -78.5t152.5 -239.5t57 -394q0 -340 -111.5 -529.5t-309.5 -189.5q-121 0 -215.5 75.5t-149.5 232.5t-55 392zM489 1245q-106 0 -166.5 -123t-60.5 -346h467q-2 230 -64.5 349.5t-175.5 119.5zM494 158
q110 0 170.5 112.5t62.5 337.5h-467q10 -233 67.5 -341.5t166.5 -108.5z" />
    <glyph glyph-name="iota" unicode="&#x3b9;" horiz-adv-x="475" 
d="M315 209q0 -35 11.5 -48.5t38.5 -13.5q38 0 104 37v-127q-92 -80 -188 -80q-88 0 -118 46.5t-30 158.5v738h182v-711z" />
    <glyph glyph-name="kappa" unicode="&#x3ba;" horiz-adv-x="1030" 
d="M315 481l312 340q106 117 223 117q65 0 113 -33v-164q-19 11 -46.5 18t-50.5 7q-30 0 -67 -20.5t-68 -55.5l-192 -205l491 -485h-237l-478 471v-471h-182v920h182v-439z" />
    <glyph glyph-name="lambda" unicode="&#x3bb;" horiz-adv-x="926" 
d="M340 999q-37 115 -73 180.5t-105 84.5l74 151q73 -10 126.5 -66.5t94.5 -166.5l280 -762q43 -119 71 -175.5t52.5 -79t65.5 -42.5l-80 -141q-92 14 -151.5 103t-114.5 245l-127 350l-267 -680h-186l367 924z" />
    <glyph glyph-name="uni03BC" unicode="&#x3bc;" horiz-adv-x="1069" 
d="M315 274q84 -141 207 -141q96 0 150.5 59.5t54.5 149.5v578h182v-709q0 -76 47 -76q25 0 43.5 9.5t40.5 25.5v-131q-41 -31 -88 -44t-80 -13q-65 0 -103 31.5t-42 86.5q-43 -63 -93 -90.5t-114 -27.5q-65 0 -114.5 30.5t-90.5 98.5v-580h-182v1389h182v-646z" />
    <glyph glyph-name="nu" unicode="&#x3bd;" horiz-adv-x="932" 
d="M465 252q100 131 166.5 277.5t66.5 234.5q0 82 -73 121l166 51q47 -23 71.5 -67t24.5 -93q0 -139 -124 -356t-312 -438h-64l-387 938h199z" />
    <glyph glyph-name="xi" unicode="&#x3be;" horiz-adv-x="895" 
d="M518 -299q80 0 132 40t52 105q0 72 -55 109t-205 37q-170 0 -265 107.5t-95 271.5q0 157 89 282t249 191q-131 67 -131 188q0 76 51 135q-68 19 -135.5 62t-110.5 104l133 105q97 -103 242 -138q76 50 141.5 74.5t139.5 24.5q63 0 96 -17.5t33 -48.5q0 -43 -52.5 -88
t-142.5 -71q-57 -17 -176 -25q-37 -43 -37 -94q0 -58 48 -95.5t167 -37.5h82v-156h-45q-213 0 -334 -98.5t-121 -288.5q0 -219 226 -219q208 0 299.5 -85t91.5 -220q0 -88 -49.5 -162t-139.5 -117t-209 -43q-96 0 -168 27l52 159q80 -18 147 -18z" />
    <glyph glyph-name="omicron" unicode="&#x3bf;" horiz-adv-x="1130" 
d="M1057 459q0 -158 -75 -265.5t-187.5 -159.5t-231.5 -52q-153 0 -265 69.5t-168 178t-56 223.5q0 137 61.5 247.5t174 174t259.5 63.5q138 0 249.5 -60.5t175 -169t63.5 -249.5zM260 459q0 -144 87 -229t220 -85q135 0 219 89.5t84 226.5q0 153 -91 233t-222 80
q-129 0 -213 -86t-84 -229z" />
    <glyph glyph-name="pi" unicode="&#x3c0;" horiz-adv-x="1229" 
d="M31 707v155q57 31 111.5 44.5t119.5 13.5h936v-164h-192v-756h-183v756h-411v-756h-183v758q-65 -2 -102 -12.5t-96 -38.5z" />
    <glyph glyph-name="rho" unicode="&#x3c1;" horiz-adv-x="1176" 
d="M604 940q139 0 253 -59.5t179.5 -168t65.5 -249.5t-64.5 -251t-175 -170t-248.5 -60q-98 0 -169.5 27.5t-139.5 96.5v-573h-182v901q0 152 60.5 266.5t169 177t251.5 62.5zM915 463q0 135 -83.5 224t-225.5 89q-141 0 -221 -89t-80 -232q0 -140 83 -225t222 -85
q140 0 222.5 87t82.5 231z" />
    <glyph glyph-name="sigma1" unicode="&#x3c2;" horiz-adv-x="944" 
d="M496 -299q90 0 146 45t56 115q0 135 -200 135q-224 0 -324 105.5t-100 306.5q0 137 61.5 260t177 197.5t271.5 74.5q98 0 164.5 -20.5t142.5 -73.5l-88 -150q-105 72 -223 72q-156 0 -238 -101.5t-82 -254.5q0 -133 58.5 -190.5t189.5 -57.5q186 0 279.5 -77t93.5 -220
q0 -96 -52.5 -172t-144.5 -119t-205 -43q-78 0 -160 21l50 159q67 -12 127 -12z" />
    <glyph glyph-name="sigma" unicode="&#x3c3;" horiz-adv-x="1208" 
d="M899 756q72 -43 116 -123t44 -180q0 -138 -66.5 -245.5t-179.5 -166.5t-248 -59q-143 0 -254.5 63.5t-174 171t-62.5 232.5q0 131 62.5 238.5t174 170t254.5 62.5h613v-164h-279zM260 453q0 -129 80 -218.5t225 -89.5q140 0 223.5 89.5t83.5 222.5q0 75 -37.5 144
t-106.5 112t-161 43q-141 0 -224 -87t-83 -216z" />
    <glyph glyph-name="tau" unicode="&#x3c4;" horiz-adv-x="889" 
d="M31 694v164q108 62 219 62h608v-164h-323v-756h-183v756q-131 0 -192.5 -11.5t-128.5 -50.5z" />
    <glyph glyph-name="upsilon" unicode="&#x3c5;" horiz-adv-x="1012" 
d="M305 385q0 -244 201 -244q100 0 150.5 65.5t50.5 182.5v531h182v-529q0 -186 -94.5 -297.5t-286.5 -111.5q-191 0 -288 101t-97 302v535h182v-535z" />
    <glyph glyph-name="phi" unicode="&#x3c6;" horiz-adv-x="1237" 
d="M74 459q0 121 56 221t158.5 163.5t237.5 76.5v477h183v-477q135 -11 238.5 -74.5t159.5 -164.5t56 -222q0 -189 -119.5 -311.5t-334.5 -147.5v-471h-183v471q-131 8 -234.5 69.5t-160.5 163t-57 226.5zM258 461q0 -121 76 -205t192 -92v592q-125 -11 -196.5 -92.5
t-71.5 -202.5zM977 451q0 127 -73 212t-195 93v-592q122 16 195 89t73 198z" />
    <glyph glyph-name="chi" unicode="&#x3c7;" horiz-adv-x="950" 
d="M0 797l57 145q72 0 117 -28.5t82 -85t113 -195.5l120 -219l259 506h196l-354 -668l217 -383q51 -92 88 -124t80 -34l-80 -178q-66 0 -121 63.5t-139 217.5l-154 274l-272 -534h-195l369 698l-170 313q-61 111 -86 148t-48.5 52t-78.5 32z" />
    <glyph glyph-name="psi" unicode="&#x3c8;" horiz-adv-x="1212" 
d="M123 477v443h182v-469q0 -121 56.5 -202t154.5 -87v1235h182v-1235q99 14 154 81.5t55 192.5v484h183v-445q0 -209 -99.5 -332t-292.5 -143v-471h-182v471q-201 14 -297 138t-96 339z" />
    <glyph glyph-name="omega" unicode="&#x3c9;" horiz-adv-x="1579" 
d="M883 463q0 -148 58 -233t161 -85q100 0 158.5 87t58.5 235q0 104 -36 205.5t-134 247.5h201q67 -82 111 -205t44 -248q0 -135 -45 -245.5t-133 -175t-211 -64.5q-125 0 -203.5 54t-124.5 159q-55 -109 -128.5 -161t-200.5 -52q-117 0 -204 61t-134 170t-47 248
q0 223 155 459h201q-88 -121 -129 -234t-41 -227q0 -144 55.5 -229t153.5 -85q102 0 166.5 79t64.5 239v112h183v-112z" />
    <glyph glyph-name="iotadieresis" unicode="&#x3ca;" horiz-adv-x="475" 
d="M315 209q0 -35 11.5 -48.5t38.5 -13.5q38 0 104 37v-127q-92 -80 -188 -80q-88 0 -118 46.5t-30 158.5v738h182v-711zM44 1317q43 0 74.5 -32t31.5 -75t-31.5 -73.5t-74.5 -30.5t-75 30.5t-32 73.5t32 75t75 32zM408 1317q43 0 74 -32t31 -75t-31 -73.5t-74 -30.5
t-74.5 30.5t-31.5 73.5t31.5 75t74.5 32z" />
    <glyph glyph-name="upsilondieresis" unicode="&#x3cb;" horiz-adv-x="1012" 
d="M305 385q0 -244 201 -244q100 0 150.5 65.5t50.5 182.5v531h182v-529q0 -186 -94.5 -297.5t-286.5 -111.5q-191 0 -288 101t-97 302v535h182v-535zM332 1397q43 0 74.5 -32t31.5 -75t-31.5 -73.5t-74.5 -30.5t-75 30.5t-32 73.5t32 75t75 32zM696 1397q43 0 74 -32
t31 -75t-31 -73.5t-74 -30.5t-74.5 30.5t-31.5 73.5t31.5 75t74.5 32z" />
    <glyph glyph-name="omicrontonos" unicode="&#x3cc;" horiz-adv-x="1130" 
d="M1057 459q0 -158 -75 -265.5t-187.5 -159.5t-231.5 -52q-153 0 -265 69.5t-168 178t-56 223.5q0 137 61.5 247.5t174 174t259.5 63.5q138 0 249.5 -60.5t175 -169t63.5 -249.5zM260 459q0 -144 87 -229t220 -85q135 0 219 89.5t84 226.5q0 153 -91 233t-222 80
q-129 0 -213 -86t-84 -229zM610 1038h-123l97 301h204z" />
    <glyph glyph-name="upsilontonos" unicode="&#x3cd;" horiz-adv-x="1012" 
d="M305 385q0 -244 201 -244q100 0 150.5 65.5t50.5 182.5v531h182v-529q0 -186 -94.5 -297.5t-286.5 -111.5q-191 0 -288 101t-97 302v535h182v-535zM555 1038h-123l97 301h204z" />
    <glyph glyph-name="omegatonos" unicode="&#x3ce;" horiz-adv-x="1579" 
d="M883 463q0 -148 58 -233t161 -85q100 0 158.5 87t58.5 235q0 104 -36 205.5t-134 247.5h201q67 -82 111 -205t44 -248q0 -135 -45 -245.5t-133 -175t-211 -64.5q-125 0 -203.5 54t-124.5 159q-55 -109 -128.5 -161t-200.5 -52q-117 0 -204 61t-134 170t-47 248
q0 223 155 459h201q-88 -121 -129 -234t-41 -227q0 -144 55.5 -229t153.5 -85q102 0 166.5 79t64.5 239v112h183v-112zM839 1038h-123l97 301h204z" />
    <glyph glyph-name="uni0401" unicode="&#x401;" horiz-adv-x="1067" 
d="M354 1219v-426h572v-179h-572v-434h611v-180h-811v1397h792v-178h-592zM361 1761q43 0 75.5 -32.5t32.5 -75.5q0 -45 -32.5 -77t-75.5 -32t-76 32t-33 77q0 43 33 75.5t76 32.5zM729 1761q43 0 76 -32.5t33 -75.5q0 -45 -33 -77t-76 -32t-75.5 32t-32.5 77t32.5 76.5
t75.5 31.5z" />
    <glyph glyph-name="uni0402" unicode="&#x402;" horiz-adv-x="1542" 
d="M35 1399h1167v-176h-483v-398q125 99 321 99q121 0 218.5 -54.5t153.5 -158t56 -242.5q0 -119 -51 -231.5t-158.5 -184t-265.5 -71.5q-80 0 -147 20v172q24 -8 68 -14t81 -6q123 0 198 87t75 226q0 133 -69 209t-204 76q-77 0 -155 -26t-121 -69v-657h-201v1223h-483v176
z" />
    <glyph glyph-name="uni0403" unicode="&#x403;" horiz-adv-x="971" 
d="M946 1217h-592v-1217h-200v1397h792v-180zM559 1493h-126l149 307h252z" />
    <glyph glyph-name="uni0404" unicode="&#x404;" horiz-adv-x="1444" 
d="M305 614q31 -206 184.5 -327t374.5 -121q119 0 244 40t244 118v-220q-230 -122 -504 -122q-244 0 -415 106.5t-256 268t-85 323.5q0 215 101.5 383t276.5 260t388 92q232 0 479 -115v-210q-120 69 -244 105t-237 36q-137 0 -253 -53.5t-193.5 -152.5t-102.5 -230h719
v-181h-721z" />
    <glyph glyph-name="uni0405" unicode="&#x405;" horiz-adv-x="977" 
d="M831 1317v-227q-149 145 -327 145q-94 0 -149.5 -44t-55.5 -118q0 -47 14.5 -83t64.5 -82t150 -103q148 -86 224.5 -152.5t105.5 -136.5t29 -170q0 -102 -51.5 -185t-143.5 -131t-211 -48q-202 0 -377 129v254q74 -99 171.5 -152t205.5 -53q88 0 146.5 52t58.5 132
q0 53 -19.5 94t-85 94.5t-198.5 131.5q-156 90 -220.5 182t-64.5 221q0 98 53.5 178t146.5 125t212 45q172 0 321 -98z" />
    <glyph glyph-name="uni0406" unicode="&#x406;" horiz-adv-x="508" 
d="M154 0v1397h200v-1397h-200z" />
    <glyph glyph-name="uni0407" unicode="&#x407;" horiz-adv-x="508" 
d="M154 0v1397h200v-1397h-200zM73 1761q43 0 75.5 -32.5t32.5 -75.5q0 -45 -32.5 -77t-75.5 -32t-76 32t-33 77q0 43 33 75.5t76 32.5zM441 1761q43 0 76 -32.5t33 -75.5q0 -45 -33 -77t-76 -32t-75.5 32t-32.5 77t32.5 76.5t75.5 31.5z" />
    <glyph glyph-name="uni0408" unicode="&#x408;" horiz-adv-x="508" 
d="M-27 -473q-28 0 -65 6l-37 186q127 0 184.5 21.5t78 83t20.5 199.5v1374h200v-1387q0 -178 -39 -283.5t-121.5 -152.5t-220.5 -47z" />
    <glyph glyph-name="uni0409" unicode="&#x409;" horiz-adv-x="1751" 
d="M205 0h-205l559 1405h141l230 -596h287q147 0 254.5 -51t165 -143.5t57.5 -213.5q0 -116 -58.5 -207.5t-166 -142.5t-252.5 -51h-179l-409 1112h-4zM1487 393q0 109 -64.5 172.5t-173.5 63.5h-250l175 -449h81q107 0 169.5 57.5t62.5 155.5z" />
    <glyph glyph-name="uni040A" unicode="&#x40a;" horiz-adv-x="1976" 
d="M1034 801v596h201v-596h207q147 0 254.5 -50.5t165 -142.5t57.5 -211q0 -116 -58.5 -206.5t-166 -140.5t-252.5 -50h-408v621h-680v-621h-200v1397h200v-596h680zM1712 389q0 107 -64.5 169.5t-172.5 62.5h-240v-441h246q106 0 168.5 55.5t62.5 153.5z" />
    <glyph glyph-name="uni040B" unicode="&#x40b;" horiz-adv-x="1640" 
d="M715 1221v-357q59 29 153.5 50.5t188.5 21.5q264 0 377.5 -125t113.5 -397v-414h-200v412q0 135 -27 207.5t-94.5 104.5t-196.5 32q-176 0 -315 -62v-694h-201v1221h-479v176h1167v-176h-487z" />
    <glyph glyph-name="uni040C" unicode="&#x40c;" horiz-adv-x="1217" 
d="M354 829h11q118 0 182.5 55.5t116.5 186.5l10 27q59 153 142 226t243 73h39v-180h-17q-106 0 -157.5 -44.5t-89.5 -154.5l-11 -29q-28 -82 -82.5 -149.5t-109.5 -94.5q74 -32 120 -71t89 -101.5t121 -199.5l215 -373h-228l-196 342q-82 143 -128 205.5t-104.5 90.5
t-154.5 28h-11v-666h-200v1397h200v-568zM595 1493h-126l149 307h252z" />
    <glyph glyph-name="uni040E" unicode="&#x40e;" horiz-adv-x="1348" 
d="M467 -154q53 0 104.5 46.5t59.5 107.5l-613 1397h201l502 -1168l412 1168h196l-514 -1381q-70 -184 -150.5 -258.5t-203.5 -74.5q-99 0 -176 49v180q37 -35 80 -50.5t102 -15.5zM686 1649q72 0 116 32.5t66 102.5h152q-25 -137 -116 -214t-224 -77q-143 0 -232.5 78
t-109.5 213h152q41 -135 196 -135z" />
    <glyph glyph-name="uni040F" unicode="&#x40f;" horiz-adv-x="1491" 
d="M354 180h783v1217h200v-1397h-491v-287h-201v287h-491v1397h200v-1217z" />
    <glyph glyph-name="uni0410" unicode="&#x410;" horiz-adv-x="1366" 
d="M1161 0l-186 412h-594l-176 -412h-205l600 1405h141l625 -1405h-205zM668 1098l-209 -506h434z" />
    <glyph glyph-name="uni0411" unicode="&#x411;" horiz-adv-x="1202" 
d="M1044 1217h-690v-379h281q149 0 263 -51.5t177.5 -145.5t63.5 -223q0 -125 -62.5 -220.5t-176.5 -146.5t-265 -51h-481v1397h890v-180zM932 418q0 117 -79 178t-230 61h-269v-477h314q110 0 187 68.5t77 169.5z" />
    <glyph glyph-name="uni0412" unicode="&#x412;" horiz-adv-x="1151" 
d="M989 1034q0 -207 -213 -295q154 -28 244 -126.5t90 -231.5q0 -131 -72.5 -217t-188.5 -125t-249 -39h-446v1397h403q207 0 319.5 -100.5t112.5 -262.5zM782 1018q0 106 -60 154.5t-198 48.5h-172v-426h142q147 0 217.5 63.5t70.5 159.5zM903 399q0 224 -348 224h-203
v-447h211q174 0 257 54.5t83 168.5z" />
    <glyph glyph-name="uni0413" unicode="&#x413;" horiz-adv-x="971" 
d="M946 1217h-592v-1217h-200v1397h792v-180z" />
    <glyph glyph-name="uni0414" unicode="&#x414;" horiz-adv-x="1372" 
d="M604 1405h141l484 -1225h123v-467h-201v287h-930v-287h-201v467h123zM344 180h682l-354 932z" />
    <glyph glyph-name="uni0415" unicode="&#x415;" horiz-adv-x="1067" 
d="M354 1219v-426h572v-179h-572v-434h611v-180h-811v1397h792v-178h-592z" />
    <glyph glyph-name="uni0416" unicode="&#x416;" horiz-adv-x="1835" 
d="M606 741q-69 35 -125.5 101.5t-85.5 142.5l-30 82q-33 86 -81 118t-163 32v180h35q149 0 229 -51.5t129 -171.5l41 -103q49 -123 107.5 -182.5t148.5 -59.5h6v568h201v-568h6q90 0 145.5 56.5t110.5 187.5l43 103q47 112 133 166.5t223 54.5h35v-180q-104 0 -153.5 -33
t-85.5 -117l-35 -80q-35 -80 -94.5 -149.5t-116.5 -96.5q69 -24 117.5 -64t83 -90t90.5 -143q12 -20 24 -39.5t25 -39.5l225 -365h-231l-189 319q-82 140 -137 212.5t-104.5 103.5t-108.5 31h-6v-666h-201v666h-6q-63 0 -112.5 -32t-100.5 -102.5t-135 -209.5l-191 -322
h-231l184 297q105 166 159 245t105.5 126t116.5 73z" />
    <glyph glyph-name="uni0417" unicode="&#x417;" horiz-adv-x="1034" 
d="M449 168q147 0 220.5 59.5t73.5 165.5q0 109 -82.5 168.5t-242.5 59.5h-174v176h217q131 0 201.5 65.5t70.5 161.5q0 100 -63.5 153.5t-204.5 53.5q-80 0 -185.5 -23.5t-175.5 -64.5v186q86 41 191.5 63.5t196.5 22.5q210 0 326 -95t116 -267q0 -117 -65.5 -206
t-182.5 -132q119 -39 188.5 -128t69.5 -204q0 -119 -59.5 -210t-171 -141t-260.5 -50q-76 0 -184.5 22.5t-176.5 52.5v213q156 -102 357 -102z" />
    <glyph glyph-name="uni0418" unicode="&#x418;" horiz-adv-x="1493" 
d="M354 354l887 1043h98v-1397h-200v1006l-889 -1024h-96v1415h200v-1043z" />
    <glyph glyph-name="uni0419" unicode="&#x419;" horiz-adv-x="1493" 
d="M354 354l887 1043h98v-1397h-200v1006l-889 -1024h-96v1415h200v-1043zM762 1649q72 0 116 32.5t66 102.5h152q-25 -137 -116 -214t-224 -77q-143 0 -232.5 78t-109.5 213h152q41 -135 196 -135z" />
    <glyph glyph-name="uni041A" unicode="&#x41a;" horiz-adv-x="1217" 
d="M354 829h11q118 0 182.5 55.5t116.5 186.5l10 27q59 153 142 226t243 73h39v-180h-17q-106 0 -157.5 -44.5t-89.5 -154.5l-11 -29q-28 -82 -82.5 -149.5t-109.5 -94.5q74 -32 120 -71t89 -101.5t121 -199.5l215 -373h-228l-196 342q-82 143 -128 205.5t-104.5 90.5
t-154.5 28h-11v-666h-200v1397h200v-568z" />
    <glyph glyph-name="uni041B" unicode="&#x41b;" horiz-adv-x="1366" 
d="M1366 0h-205l-491 1133h-4l-461 -1133h-205l600 1405h141z" />
    <glyph glyph-name="uni041C" unicode="&#x41c;" horiz-adv-x="1610" 
d="M1270 1397h186v-1397h-201v1087l-430 -540h-37l-434 540v-1087h-200v1397h188l465 -574z" />
    <glyph glyph-name="uni041D" unicode="&#x41d;" horiz-adv-x="1493" 
d="M1139 793v604h200v-1397h-200v608h-785v-608h-200v1397h200v-604h785z" />
    <glyph glyph-name="uni041E" unicode="&#x41e;" horiz-adv-x="1686" 
d="M1593 700q0 -190 -91 -355t-265 -264t-408 -99q-215 0 -382.5 97t-261 260t-93.5 355q0 187 88 352.5t257 267t403 101.5q217 0 389 -95t268 -259t96 -361zM299 694q0 -149 72.5 -269t195.5 -187.5t267 -67.5q153 0 278 60.5t199.5 180t74.5 291.5q0 125 -62 246
t-185 200t-293 79q-168 0 -292 -71t-189.5 -191.5t-65.5 -270.5z" />
    <glyph glyph-name="uni041F" unicode="&#x41f;" horiz-adv-x="1491" 
d="M1337 0h-200v1217h-783v-1217h-200v1397h1183v-1397z" />
    <glyph glyph-name="uni0420" unicode="&#x420;" horiz-adv-x="1092" 
d="M1034 1001q0 -200 -127 -297.5t-360 -97.5h-193v-606h-200v1397h426q213 0 333.5 -105.5t120.5 -290.5zM827 1006q0 104 -64.5 159.5t-223.5 55.5h-185v-439h185q163 0 225.5 56.5t62.5 167.5z" />
    <glyph glyph-name="uni0421" unicode="&#x421;" horiz-adv-x="1444" 
d="M1337 1300v-210q-247 139 -483 139q-164 0 -290 -75t-194.5 -197.5t-68.5 -262.5q0 -139 66.5 -260t191.5 -193.5t293 -72.5q264 0 500 156v-220q-230 -122 -508 -122q-244 0 -414 106.5t-254 270t-84 337.5q0 201 101.5 366t275.5 259t379 94q235 0 489 -115z" />
    <glyph glyph-name="uni0422" unicode="&#x422;" horiz-adv-x="1237" 
d="M715 1221v-1221h-201v1221h-479v176h1167v-176h-487z" />
    <glyph glyph-name="uni0423" unicode="&#x423;" horiz-adv-x="1348" 
d="M467 -154q53 0 104.5 46.5t59.5 107.5l-613 1397h201l502 -1168l412 1168h196l-514 -1381q-70 -184 -150.5 -258.5t-203.5 -74.5q-99 0 -176 49v180q37 -35 80 -50.5t102 -15.5z" />
    <glyph glyph-name="uni0424" unicode="&#x424;" horiz-adv-x="1686" 
d="M92 698q0 166 79 296t226.5 203t343.5 75v143h201v-143q197 -2 344.5 -75t227 -202t79.5 -297q0 -163 -83 -292.5t-230 -202t-338 -72.5v-149h-201v149q-190 0 -337.5 74t-229.5 203t-82 290zM299 700q0 -184 119 -281t323 -104v772q-198 0 -320 -103t-122 -284z
M1386 698q0 181 -117.5 284t-326.5 105v-772q207 2 325.5 103.5t118.5 279.5z" />
    <glyph glyph-name="uni0425" unicode="&#x425;" horiz-adv-x="1450" 
d="M729 864l436 533h242l-557 -674l596 -723h-242l-475 578q-244 -293 -481 -578h-244l602 723l-559 674h244z" />
    <glyph glyph-name="uni0426" unicode="&#x426;" horiz-adv-x="1542" 
d="M354 180h783v1217h200v-1217h185v-467h-201v287h-1167v1397h200v-1217z" />
    <glyph glyph-name="uni0427" unicode="&#x427;" horiz-adv-x="1280" 
d="M584 512q-265 0 -378.5 125t-113.5 397v363h201v-361q0 -135 26.5 -207.5t94 -104.5t196.5 -32q176 0 316 62v643h200v-1397h-200v584q-60 -29 -154 -50.5t-188 -21.5z" />
    <glyph glyph-name="uni0428" unicode="&#x428;" horiz-adv-x="1880" 
d="M354 180h486v1217h200v-1217h486v1217h200v-1397h-1572v1397h200v-1217z" />
    <glyph glyph-name="uni0429" unicode="&#x429;" horiz-adv-x="1931" 
d="M354 180h486v1217h200v-1217h486v1217h200v-1217h185v-467h-201v287h-1556v1397h200v-1217z" />
    <glyph glyph-name="uni042A" unicode="&#x42a;" horiz-adv-x="1313" 
d="M35 1397h516v-588h227q148 0 255.5 -51t164.5 -143.5t57 -213.5q0 -116 -57 -207.5t-163.5 -142.5t-252.5 -51h-432v1221h-315v176zM1049 393q0 107 -65.5 171.5t-174.5 64.5h-258v-449h266q107 0 169.5 57.5t62.5 155.5z" />
    <glyph glyph-name="uni042B" unicode="&#x42b;" horiz-adv-x="1610" 
d="M354 809h207q148 0 255.5 -51t164.5 -143.5t57 -213.5q0 -116 -58 -207.5t-165.5 -142.5t-253.5 -51h-407v1397h200v-588zM1456 0h-201v1397h201v-1397zM831 393q0 109 -64.5 172.5t-172.5 63.5h-240v-449h246q107 0 169 57.5t62 155.5z" />
    <glyph glyph-name="uni042C" unicode="&#x42c;" horiz-adv-x="1116" 
d="M354 809h228q147 0 254.5 -51t165 -143.5t57.5 -213.5q0 -116 -58.5 -207.5t-166 -142.5t-252.5 -51h-428v1397h200v-588zM852 393q0 109 -64.5 172.5t-173.5 63.5h-260v-449h267q106 0 168.5 57.5t62.5 155.5z" />
    <glyph glyph-name="uni042D" unicode="&#x42d;" horiz-adv-x="1444" 
d="M588 1231q-113 0 -237 -36t-245 -105v210q248 115 480 115q213 0 388 -92t276.5 -260t101.5 -383q0 -162 -85 -323.5t-256 -268t-415 -106.5q-274 0 -504 122v220q119 -78 244 -118t244 -40q221 0 374.5 121t184.5 327h-721v181h719q-25 131 -103 230t-193.5 152.5
t-252.5 53.5z" />
    <glyph glyph-name="uni042E" unicode="&#x42e;" horiz-adv-x="2118" 
d="M2025 700q0 -190 -90 -355t-259 -264t-398 -99q-195 0 -348.5 82.5t-247.5 226t-115 317.5h-213v-608h-200v1397h200v-604h215q21 170 111 311t245.5 226t362.5 85q213 0 381 -95t262 -259t94 -361zM764 694q0 -149 69.5 -269t188.5 -187.5t256 -67.5q190 0 312 85
t175.5 207t53.5 240q0 125 -60.5 246t-180.5 200t-284 79q-174 0 -293.5 -80t-178 -202t-58.5 -251z" />
    <glyph glyph-name="uni042F" unicode="&#x42f;" horiz-adv-x="1231" 
d="M186 991q0 109 54.5 201t160 148.5t252.5 56.5h424v-1397h-200v573h-91q-61 0 -107 -14t-103.5 -64.5t-122.5 -154.5l-215 -340h-238l240 369q67 100 114 153t123 109q-141 43 -216 138t-75 222zM391 989q0 -135 89 -187t241 -52h156v471h-205q-135 0 -208 -61.5
t-73 -170.5z" />
    <glyph glyph-name="uni0430" unicode="&#x430;" horiz-adv-x="866" 
d="M719 641v-463q0 -43 35 -43q30 0 96 49v-131q-107 -71 -191 -71q-102 0 -124 94q-119 -94 -248 -94q-97 0 -161.5 66.5t-64.5 158.5q0 90 57.5 151.5t139.5 97.5t215 79l64 20v51q0 84 -41 122t-125 38q-78 0 -153 -38t-138 -114v199q106 125 305 125q156 0 245 -81
t89 -216zM377 111q80 0 160 75v269q-158 -52 -224.5 -101t-66.5 -114q0 -56 36.5 -92.5t94.5 -36.5z" />
    <glyph glyph-name="uni0431" unicode="&#x431;" horiz-adv-x="1130" 
d="M279 819q114 119 307 119q125 0 233.5 -58.5t173 -165t64.5 -245.5q0 -150 -66.5 -260.5t-180.5 -168.5t-251 -58q-145 0 -254.5 63.5t-170 183t-60.5 279.5q0 276 65.5 464.5t217 299t407.5 137.5l211 21l-17 -162q-221 -17 -355 -57t-215 -132t-109 -260zM260 469
q0 -141 76 -232.5t221 -91.5q141 0 227 84t86 238q0 139 -84 223t-225 84q-131 0 -216 -84t-85 -221z" />
    <glyph glyph-name="uni0432" unicode="&#x432;" horiz-adv-x="903" 
d="M803 676q0 -68 -35 -122t-100 -87q157 -53 157 -211q0 -119 -88 -187.5t-256 -68.5h-348v920h332q168 0 253 -64.5t85 -179.5zM616 649q0 53 -38.5 86t-116.5 33h-146v-240h144q82 0 119.5 33t37.5 88zM639 266q0 58 -41 90.5t-119 32.5h-164v-237h164q78 0 119 29.5
t41 84.5z" />
    <glyph glyph-name="uni0433" unicode="&#x433;" horiz-adv-x="750" 
d="M719 756h-404v-756h-182v920h586v-164z" />
    <glyph glyph-name="uni0434" unicode="&#x434;" horiz-adv-x="1014" 
d="M469 938h102l347 -774h75v-451h-180v287h-612v-287h-181v451h76zM285 164h442l-219 483z" />
    <glyph glyph-name="uni0435" unicode="&#x435;" horiz-adv-x="981" 
d="M905 463v-19h-647q10 -131 89 -209.5t208 -78.5q88 0 174 28.5t160 83.5v-178q-88 -59 -173 -83.5t-186 -24.5q-124 0 -228.5 59t-166 168.5t-61.5 257.5q0 133 53 240.5t150.5 169t226.5 61.5q114 0 205.5 -56.5t143.5 -164t52 -254.5zM502 780q-96 0 -164 -65.5
t-76 -161.5h463q-6 106 -63.5 166.5t-159.5 60.5z" />
    <glyph glyph-name="uni0436" unicode="&#x436;" horiz-adv-x="1333" 
d="M358 254l-127 -254h-200l125 233q69 127 114 175.5t119 70.5q-57 19 -89 47.5t-62 83.5l-48 84q-22 41 -42.5 51.5t-41.5 10.5h-40v164h40q84 0 127 -29t97 -121l55 -98q43 -72 84 -97.5t106 -25.5v371h183v-371q71 0 116.5 32.5t77.5 94.5l52 94q45 86 92 118t129 32h43
v-164h-39q-27 0 -47.5 -15.5t-42.5 -54.5l-43 -76q-33 -57 -64 -83.5t-88 -47.5q62 -16 113 -66.5t108 -156.5l138 -256h-201l-127 254q-43 82 -94.5 117t-122.5 35v-406h-183v406q-71 0 -123.5 -35t-93.5 -117z" />
    <glyph glyph-name="uni0437" unicode="&#x437;" horiz-adv-x="852" 
d="M348 143q129 0 184.5 33t55.5 103q0 63 -64.5 95t-169.5 32h-92v143h72q121 0 178 27.5t57 93.5q0 51 -51 77.5t-143 26.5q-80 0 -154 -23.5t-129 -56.5v156q49 41 135 64.5t170 23.5q172 0 264.5 -63.5t92.5 -174.5q0 -79 -49.5 -136.5t-133.5 -71.5v-5
q91 -22 147 -85.5t56 -145.5q0 -135 -105.5 -205.5t-289.5 -70.5q-86 0 -181.5 23.5t-131.5 62.5v176q55 -43 130.5 -71t151.5 -28z" />
    <glyph glyph-name="uni0438" unicode="&#x438;" horiz-adv-x="1081" 
d="M315 293l535 627h98v-920h-182v590l-530 -608h-103v938h182v-627z" />
    <glyph glyph-name="uni0439" unicode="&#x439;" horiz-adv-x="1081" 
d="M315 293l535 627h98v-920h-182v590l-530 -608h-103v938h182v-627zM549 1196q64 0 95.5 26.5t52.5 93.5h139q-13 -116 -94.5 -190t-196.5 -74t-190.5 70t-98.5 194h139q15 -55 53 -87.5t101 -32.5z" />
    <glyph glyph-name="uni043A" unicode="&#x43a;" horiz-adv-x="901" 
d="M315 549h21q65 0 102 31.5t78 105.5l47 88q41 80 93.5 113t131.5 33h48v-164h-41q-29 0 -47.5 -14.5t-34.5 -43.5l-54 -96q-28 -53 -60 -76.5t-87 -46.5q72 -20 119 -70.5t98 -144.5l141 -264h-200l-123 246q-80 160 -211 160h-21v-406h-182v920h182v-371z" />
    <glyph glyph-name="uni043B" unicode="&#x43b;" horiz-adv-x="885" 
d="M201 0h-201l414 938h65l406 -938h-197l-246 573z" />
    <glyph glyph-name="uni043C" unicode="&#x43c;" horiz-adv-x="1231" 
d="M621 352l282 568h172l66 -920h-172l-49 623l-299 -623l-320 623l-39 -623h-172l62 920h172z" />
    <glyph glyph-name="uni043D" unicode="&#x43d;" horiz-adv-x="1081" 
d="M315 557h451v363h182v-920h-182v393h-451v-393h-182v920h182v-363z" />
    <glyph glyph-name="uni043E" unicode="&#x43e;" horiz-adv-x="1130" 
d="M1057 459q0 -158 -75 -265.5t-187.5 -159.5t-231.5 -52q-153 0 -265 69.5t-168 178t-56 223.5q0 137 61.5 247.5t174 174t259.5 63.5q138 0 249.5 -60.5t175 -169t63.5 -249.5zM260 459q0 -144 87 -229t220 -85q135 0 219 89.5t84 226.5q0 153 -91 233t-222 80
q-129 0 -213 -86t-84 -229z" />
    <glyph glyph-name="uni043F" unicode="&#x43f;" horiz-adv-x="1081" 
d="M948 0h-182v756h-451v-756h-182v920h815v-920z" />
    <glyph glyph-name="uni0440" unicode="&#x440;" horiz-adv-x="1044" 
d="M514 -18q-55 0 -92 7t-107 34v-494h-182v1391h342q230 0 363 -120t133 -341q0 -133 -58.5 -243t-162 -172t-236.5 -62zM496 141q127 0 207.5 88t80.5 230q0 145 -79.5 223t-237.5 78h-152v-576q33 -18 81 -30.5t100 -12.5z" />
    <glyph glyph-name="uni0441" unicode="&#x441;" horiz-adv-x="893" 
d="M795 874v-194q-70 45 -129.5 65.5t-126.5 20.5q-88 0 -150.5 -43t-95.5 -112.5t-33 -149.5q0 -121 74 -214t239 -93q66 0 121.5 16t120.5 45v-180q-135 -53 -268 -53q-166 0 -272.5 70.5t-153.5 177t-47 216.5q0 150 58 261.5t160.5 171t233.5 59.5q68 0 129.5 -14.5
t139.5 -49.5z" />
    <glyph glyph-name="uni0442" unicode="&#x442;" horiz-adv-x="891" 
d="M31 920h829v-164h-323v-756h-183v756h-323v164z" />
    <glyph glyph-name="uni0443" unicode="&#x443;" horiz-adv-x="897" 
d="M700 920h197l-651 -1391h-195l314 668l-365 723h207l256 -519z" />
    <glyph glyph-name="uni0444" unicode="&#x444;" horiz-adv-x="1337" 
d="M74 469q0 125 67.5 228.5t182 163t254.5 59.5v477h182v-477q137 0 252.5 -58.5t183.5 -161t68 -231.5q0 -127 -67 -235.5t-182.5 -171t-254.5 -62.5v-473h-182v473q-140 0 -255.5 62.5t-182 170t-66.5 236.5zM260 467q0 -133 89 -220t229 -87v600q-93 0 -164.5 -39
t-112.5 -105.5t-41 -148.5zM1077 467q0 82 -40 148.5t-112.5 105.5t-164.5 39v-600q145 0 231 87t86 220z" />
    <glyph glyph-name="uni0445" unicode="&#x445;" horiz-adv-x="1024" 
d="M764 920h233l-379 -453l406 -467h-233l-289 330l-273 -330h-229l387 467l-387 453h229l273 -316z" />
    <glyph glyph-name="uni0446" unicode="&#x446;" horiz-adv-x="1133" 
d="M315 164h451v756h182v-756h164v-451h-180v287h-799v920h182v-756z" />
    <glyph glyph-name="uni0447" unicode="&#x447;" horiz-adv-x="989" 
d="M446 487q72 0 135.5 22.5t92.5 57.5v353h182v-920h-182v408q-39 -35 -117 -59.5t-145 -24.5q-179 0 -259.5 89t-80.5 269v238h182v-236q0 -86 23.5 -129t63.5 -55.5t105 -12.5z" />
    <glyph glyph-name="uni0448" unicode="&#x448;" horiz-adv-x="1493" 
d="M315 164h340v756h183v-756h340v756h182v-920h-1227v920h182v-756z" />
    <glyph glyph-name="uni0449" unicode="&#x449;" horiz-adv-x="1544" 
d="M315 164h340v756h183v-756h340v756h182v-756h164v-451h-181v287h-1210v920h182v-756z" />
    <glyph glyph-name="uni044A" unicode="&#x44a;" horiz-adv-x="1038" 
d="M31 920h424v-310h209q94 0 166.5 -41t111.5 -110.5t39 -151.5q0 -84 -39 -154.5t-112.5 -111.5t-170.5 -41h-387v756h-241v164zM797 309q0 70 -47.5 106t-137.5 36h-157v-291h155q90 0 138.5 39t48.5 110z" />
    <glyph glyph-name="uni044B" unicode="&#x44b;" horiz-adv-x="1337" 
d="M315 610h183q164 0 259 -86t95 -217q0 -133 -95 -220t-270 -87h-354v920h182v-310zM666 309q0 68 -49.5 105t-139.5 37h-162v-291h160q90 0 140.5 39t50.5 110zM1022 0v920h182v-920h-182z" />
    <glyph glyph-name="uni044C" unicode="&#x44c;" horiz-adv-x="909" 
d="M315 610h183q164 0 259 -86t95 -217q0 -133 -95 -220t-270 -87h-354v920h182v-310zM666 309q0 68 -49.5 105t-139.5 37h-162v-291h160q90 0 140.5 39t50.5 110z" />
    <glyph glyph-name="uni044D" unicode="&#x44d;" horiz-adv-x="893" 
d="M819 442q0 -135 -59.5 -239.5t-166 -162.5t-241.5 -58q-69 0 -150 15t-124 38v176q139 -61 244 -61q124 0 205 59t102 170h-385v164h383q-17 100 -91.5 163.5t-183.5 63.5q-67 0 -126.5 -21.5t-127.5 -66.5v192q72 33 133.5 48.5t133.5 15.5q208 0 331 -133t123 -363z
" />
    <glyph glyph-name="uni044E" unicode="&#x44e;" horiz-adv-x="1518" 
d="M1444 469q0 -143 -62.5 -254t-175 -172t-260.5 -61q-186 0 -317 110.5t-160 290.5h-154v-383h-182v920h182v-373h152q18 115 87 204t171 138t221 49q139 0 253 -59.5t179.5 -166t65.5 -243.5zM647 469q0 -145 82 -234.5t215 -89.5q148 0 230.5 88.5t82.5 233.5
q0 137 -90 222t-225 85q-84 0 -150.5 -40t-105.5 -109.5t-39 -155.5z" />
    <glyph glyph-name="uni044F" unicode="&#x44f;" horiz-adv-x="952" 
d="M311 365q-200 71 -200 268q0 76 42 141.5t124.5 105.5t201.5 40h340v-920h-182v332h-51q-90 0 -145.5 -32t-104.5 -110l-121 -190h-215l150 217q77 113 161 148zM475 760q-86 0 -132 -33t-46 -98q0 -64 44 -100.5t130 -36.5h166v268h-162z" />
    <glyph glyph-name="uni0451" unicode="&#x451;" horiz-adv-x="981" 
d="M905 463v-19h-647q10 -131 89 -209.5t208 -78.5q88 0 174 28.5t160 83.5v-178q-88 -59 -173 -83.5t-186 -24.5q-124 0 -228.5 59t-166 168.5t-61.5 257.5q0 133 53 240.5t150.5 169t226.5 61.5q114 0 205.5 -56.5t143.5 -164t52 -254.5zM502 780q-96 0 -164 -65.5
t-76 -161.5h463q-6 106 -63.5 166.5t-159.5 60.5zM322 1317q43 0 74.5 -32t31.5 -75t-31.5 -73.5t-74.5 -30.5t-75 30.5t-32 73.5t32 75t75 32zM686 1317q43 0 74 -32t31 -75t-31 -73.5t-74 -30.5t-74.5 30.5t-31.5 73.5t31.5 75t74.5 32z" />
    <glyph glyph-name="uni0452" unicode="&#x452;" horiz-adv-x="1030" 
d="M582 -406q-45 0 -107 13v160q37 -13 82 -13q64 0 99.5 17.5t52 61.5t16.5 128v610q0 215 -178 215q-66 0 -118 -28.5t-114 -98.5v-659h-182v1102h-151v106h151v189h182v-189h330v-106h-330v-303q56 67 129.5 103t153.5 36q152 0 230.5 -96.5t78.5 -266.5v-606
q0 -180 -70.5 -277.5t-254.5 -97.5z" />
    <glyph glyph-name="uni0453" unicode="&#x453;" horiz-adv-x="750" 
d="M719 756h-404v-756h-182v920h586v-164zM352 1036l135 310h223l-231 -310h-127z" />
    <glyph glyph-name="uni0454" unicode="&#x454;" horiz-adv-x="893" 
d="M795 874v-192q-68 45 -127.5 66.5t-126.5 21.5q-109 0 -183.5 -63.5t-91.5 -163.5h383v-164h-385q21 -111 101.5 -170t205.5 -59q107 0 244 61v-176q-43 -23 -124 -38t-150 -15q-135 0 -241.5 58t-166 162.5t-59.5 239.5q0 230 122.5 363t331.5 133q72 0 133.5 -15.5
t133.5 -48.5z" />
    <glyph glyph-name="uni0455" unicode="&#x455;" horiz-adv-x="788" 
d="M383 938q141 0 279 -76v-182q-84 51 -145.5 74.5t-121.5 23.5q-59 0 -87.5 -20.5t-28.5 -48.5q0 -27 11 -45.5t50 -47t121 -75.5q112 -66 179 -131.5t67 -165.5q0 -60 -32 -120.5t-103.5 -101t-180.5 -40.5q-78 0 -142.5 17t-164.5 67v196q66 -51 147.5 -86t145.5 -35
q72 0 106.5 24.5t34.5 61.5q0 31 -13 51.5t-57.5 51t-148.5 92.5q-102 63 -155.5 125.5t-53.5 150.5q0 105 83 172.5t210 67.5z" />
    <glyph glyph-name="uni0456" unicode="&#x456;" horiz-adv-x="449" 
d="M332 1200q0 -43 -32 -75.5t-77 -32.5t-75.5 33.5t-30.5 74.5t30.5 74t75.5 33t77 -32t32 -75zM133 0v920h182v-920h-182z" />
    <glyph glyph-name="uni0457" unicode="&#x457;" horiz-adv-x="449" 
d="M133 0v920h182v-920h-182zM44 1317q43 0 74.5 -32t31.5 -75t-31.5 -73.5t-74.5 -30.5t-75 30.5t-32 73.5t32 75t75 32zM408 1317q43 0 74 -32t31 -75t-31 -73.5t-74 -30.5t-74.5 30.5t-31.5 73.5t31.5 75t74.5 32z" />
    <glyph glyph-name="uni0458" unicode="&#x458;" horiz-adv-x="449" 
d="M328 1200q0 -49 -30 -78.5t-79 -29.5q-45 0 -75.5 33.5t-30.5 74.5t31.5 74t74.5 33q47 0 78 -33t31 -74zM131 -471l-137 133q72 29 105.5 82t33.5 174v1002h182v-992q0 -121 -16 -191.5t-55 -117.5t-113 -90z" />
    <glyph glyph-name="uni0459" unicode="&#x459;" horiz-adv-x="1284" 
d="M0 0l414 938h65l142 -328h251q164 0 259.5 -86t95.5 -217q0 -133 -95.5 -220t-269.5 -87h-174l-246 573l-241 -573h-201zM1040 309q0 68 -49 105t-139 37h-162l127 -291h33q90 0 140 39t50 110z" />
    <glyph glyph-name="uni045A" unicode="&#x45a;" horiz-adv-x="1493" 
d="M315 569h412v351h182v-351h172q164 0 259.5 -79.5t95.5 -202.5t-95.5 -205t-269.5 -82h-344v410h-412v-410h-182v920h182v-351zM1249 289q0 57 -49 89t-139 32h-152v-250h150q90 0 140 33.5t50 95.5z" />
    <glyph glyph-name="uni045B" unicode="&#x45b;" horiz-adv-x="1030" 
d="M907 575v-575h-182v571q0 215 -178 215q-66 0 -118 -28.5t-114 -98.5v-659h-182v1102h-151v106h151v189h182v-189h330v-106h-330v-303q56 67 129.5 103t153.5 36q152 0 230.5 -96.5t78.5 -266.5z" />
    <glyph glyph-name="uni045C" unicode="&#x45c;" horiz-adv-x="901" 
d="M315 549h21q65 0 102 31.5t78 105.5l47 88q41 80 93.5 113t131.5 33h48v-164h-41q-29 0 -47.5 -14.5t-34.5 -43.5l-54 -96q-28 -53 -60 -76.5t-87 -46.5q72 -20 119 -70.5t98 -144.5l141 -264h-200l-123 246q-80 160 -211 160h-21v-406h-182v920h182v-371zM393 1036
l135 310h223l-231 -310h-127z" />
    <glyph glyph-name="uni045E" unicode="&#x45e;" horiz-adv-x="897" 
d="M700 920h197l-651 -1391h-195l314 668l-365 723h207l256 -519zM457 1196q64 0 95.5 26.5t52.5 93.5h139q-13 -116 -94.5 -190t-196.5 -74t-190.5 70t-98.5 194h139q15 -55 53 -87.5t101 -32.5z" />
    <glyph glyph-name="uni045F" unicode="&#x45f;" horiz-adv-x="1081" 
d="M315 920v-756h451v756h182v-920h-315v-276h-180v276h-320v920h182z" />
    <glyph glyph-name="uni0490" unicode="&#x490;" horiz-adv-x="971" 
d="M745 1634h201v-417h-592v-1217h-200v1397h591v237z" />
    <glyph glyph-name="uni0491" unicode="&#x491;" horiz-adv-x="750" 
d="M539 1139h180v-383h-404v-756h-182v920h406v219z" />
    <glyph glyph-name="uni0496" unicode="&#x496;" horiz-adv-x="1868" 
d="M606 741q-76 39 -125 96.5t-84 147.5q-51 131 -110.5 181.5t-165.5 50.5v180h35q151 0 238 -71t159 -251q49 -125 108.5 -185.5t149.5 -60.5h6v568h201v-568h6q90 0 147.5 57.5t108.5 186.5q68 176 158 250t241 74h35v-180q-106 0 -167.5 -50.5t-106.5 -179.5
q-64 -178 -211 -246q71 -24 115.5 -60t99.5 -116t168 -270l69 -115h166v-467h-200v287h-84l-189 319q-82 140 -137 212.5t-104.5 103.5t-108.5 31h-6v-666h-201v666h-6q-63 0 -112.5 -32t-100.5 -102.5t-135 -209.5l-191 -322h-231l184 297q105 170 164.5 253t106.5 125
t110 66z" />
    <glyph glyph-name="uni0497" unicode="&#x497;" horiz-adv-x="1360" 
d="M358 254l-127 -254h-200l125 233q69 127 114 175.5t119 70.5q-57 19 -89 47.5t-62 83.5l-48 84q-22 41 -42.5 51.5t-41.5 10.5h-40v164h40q84 0 127 -29t97 -121l55 -98q41 -72 82 -97.5t108 -25.5v371h183v-371q71 0 116.5 32.5t77.5 94.5l52 94q45 86 92 118t129 32h43
v-164h-39q-27 0 -47.5 -15.5t-42.5 -54.5l-43 -76q-33 -57 -64 -83.5t-88 -47.5q62 -16 113 -66.5t108 -156.5l49 -92h125v-451h-180v287h-57l-127 254q-43 82 -94.5 117t-122.5 35v-406h-183v406q-71 0 -123.5 -35t-93.5 -117z" />
    <glyph glyph-name="uni049A" unicode="&#x49a;" horiz-adv-x="1249" 
d="M354 666v-666h-200v1397h200v-568q88 0 142.5 25t91.5 75t76 142q51 123 103 193.5t120.5 101.5t171.5 31h39v-180q-90 0 -141.5 -26t-79 -71t-54.5 -129q-26 -80 -81.5 -149.5t-110.5 -96.5q82 -38 133 -87.5t108.5 -140.5t198.5 -337h158v-467h-201v287h-80l-196 342
q-84 147 -133.5 210.5t-106.5 88.5t-158 25z" />
    <glyph glyph-name="uni049B" unicode="&#x49b;" horiz-adv-x="920" 
d="M315 549h21q65 0 102 31.5t78 105.5l47 88q41 80 93.5 113t131.5 33h48v-164h-41q-29 0 -47.5 -14.5t-34.5 -43.5l-54 -96q-28 -53 -60 -76.5t-87 -46.5q72 -20 119 -70.5t98 -144.5l53 -100h117v-451h-180v287h-49l-123 246q-80 160 -211 160h-21v-406h-182v920h182
v-371z" />
    <glyph glyph-name="uni04B0" unicode="&#x4b0;" horiz-adv-x="1237" 
d="M995 1397h242l-518 -660v-41h409v-180h-409v-516h-201v516h-409v180h409v43l-518 658h242l374 -482z" />
    <glyph glyph-name="uni04B1" unicode="&#x4b1;" horiz-adv-x="1067" 
d="M152 156h297v20l-357 744h199l248 -525l241 525h195l-344 -736v-28h297v-156h-297v-471h-182v471h-297v156z" />
    <glyph glyph-name="uni04B2" unicode="&#x4b2;" horiz-adv-x="1470" 
d="M729 864l436 533h242l-557 -674l446 -543h154v-467h-201v287h-45l-475 578q-244 -293 -481 -578h-244l602 723l-559 674h244z" />
    <glyph glyph-name="uni04B3" unicode="&#x4b3;" horiz-adv-x="1034" 
d="M764 920h233l-379 -453l263 -303h133v-451h-180v287h-43l-289 330l-273 -330h-229l387 467l-387 453h229l273 -316z" />
    <glyph glyph-name="uni04B6" unicode="&#x4b6;" horiz-adv-x="1311" 
d="M555 512q-252 0 -367.5 122t-115.5 400v363h200v-371q0 -115 25 -186.5t93.5 -109.5t195.5 -38q180 0 319 62v643h201v-1217h184v-467h-200v287h-185v584q-55 -31 -150.5 -51.5t-199.5 -20.5z" />
    <glyph glyph-name="uni04B7" unicode="&#x4b7;" horiz-adv-x="1126" 
d="M494 324q-175 0 -257.5 89t-82.5 269v238h182v-230q0 -88 21.5 -131t61.5 -57.5t109 -14.5q72 0 135.5 22.5t92.5 57.5v353h182v-756h164v-451h-180v287h-166v408q-41 -35 -118 -59.5t-144 -24.5z" />
    <glyph glyph-name="uni0E3F" unicode="&#xe3f;" horiz-adv-x="1024" 
d="M901 1034q0 -209 -207 -295q129 -39 201 -129t72 -207q0 -194 -121 -292.5t-299 -108.5v-162h-137v160h-308v1397h308v131h137v-133q168 -15 261 -113t93 -248zM410 1225h-113v-432h113v432zM547 1221v-424q82 18 124 78.5t42 142.5q0 178 -166 203zM297 625v-453h113
v453h-113zM547 621v-447q106 10 162.5 67.5t56.5 157.5q0 93 -55.5 151t-163.5 71z" />
    <glyph glyph-name="endash" unicode="&#x2013;" horiz-adv-x="1024" 
d="M-10 449v129h1044v-129h-1044z" />
    <glyph glyph-name="emdash" unicode="&#x2014;" horiz-adv-x="2048" 
d="M-10 453v131h2068v-131h-2068z" />
    <glyph glyph-name="uni2015" unicode="&#x2015;" horiz-adv-x="1659" 
d="M287 453v131h1085v-131h-1085z" />
    <glyph glyph-name="quoteleft" unicode="&#x2018;" horiz-adv-x="449" 
d="M111 1100q0 108 63.5 194t175.5 121v-37q-43 -41 -63.5 -87t-20.5 -120q49 -12 78 -45.5t29 -85.5q0 -53 -37 -93t-88 -40q-60 0 -98.5 56.5t-38.5 136.5z" />
    <glyph glyph-name="quoteright" unicode="&#x2019;" horiz-adv-x="449" 
d="M340 1225q0 -109 -61.5 -196t-178.5 -122v39q45 45 64.5 90t19.5 115q-49 14 -77.5 48t-28.5 83q0 53 36 93t87 40q61 0 100 -55t39 -135z" />
    <glyph glyph-name="quotesinglbase" unicode="&#x201a;" horiz-adv-x="449" 
d="M340 74q0 -111 -63.5 -197t-176.5 -121v37q82 82 84 207q-47 12 -76.5 47t-29.5 84q0 53 37 93t86 40q61 0 100 -56t39 -134z" />
    <glyph glyph-name="quotedblleft" unicode="&#x201c;" horiz-adv-x="874" 
d="M68 1100q0 108 62.5 194t176.5 121v-37q-45 -45 -64.5 -90t-19.5 -117q49 -12 78 -45.5t29 -87.5q0 -51 -36 -91t-87 -40q-64 0 -101.5 56.5t-37.5 136.5zM526 1100q0 106 62.5 193t179.5 122v-37q-43 -43 -64.5 -91t-21.5 -116q49 -12 77.5 -45.5t28.5 -87.5
q0 -49 -34.5 -90t-87.5 -41q-62 0 -101 56.5t-39 136.5z" />
    <glyph glyph-name="quotedblright" unicode="&#x201d;" horiz-adv-x="874" 
d="M342 1225q0 -109 -63.5 -196t-178.5 -122v39q43 43 61.5 82t24.5 123q-49 14 -77.5 48t-28.5 83q0 53 36 93t87 40q61 0 100 -56t39 -134zM801 1225q0 -111 -63.5 -198t-176.5 -120v39q41 43 59.5 82t24.5 123q-49 14 -77.5 48t-28.5 83q0 53 35.5 93t87.5 40
q61 0 100 -56t39 -134z" />
    <glyph glyph-name="quotedblbase" unicode="&#x201e;" horiz-adv-x="918" 
d="M362 74q0 -111 -63 -197t-176 -121v37q45 45 64.5 89t19.5 118q-47 12 -77 47t-30 84q0 53 37 93t88 40q62 0 99.5 -56t37.5 -134zM821 74q0 -111 -63.5 -197t-175.5 -121v37q45 45 64.5 89t19.5 118q-48 12 -76.5 47t-28.5 84q0 53 36 93t89 40q62 0 98.5 -57t36.5 -133
z" />
    <glyph glyph-name="dagger" unicode="&#x2020;" horiz-adv-x="1004" 
d="M614 1370q0 -29 -6 -72l-76 -454l267 57q75 17 96 17q20 0 32.5 -10.5t12.5 -26.5v-136q0 -26 -8 -38.5t-27 -12.5q-24 0 -53 6.5t-49 10.5l-271 63l68 -1003q4 -54 4 -80q6 -66 6 -101q0 -28 -12 -45.5t-47 -17.5h-127q-29 0 -42 14.5t-13 46.5q0 43 10 181l76 1005
l-244 -63q-68 -17 -102 -17q-23 0 -34.5 9.5t-11.5 21.5v154q0 22 10.5 30.5t39.5 8.5q22 0 98 -17l244 -57l-74 452q-2 11 -4 26t-2 48q0 45 57 45h125q31 0 44 -10t13 -35z" />
    <glyph glyph-name="daggerdbl" unicode="&#x2021;" horiz-adv-x="1004" 
d="M614 1372q0 -22 -14 -108l-57 -363l229 57q21 5 51.5 11t57.5 6q28 0 43.5 -17.5t15.5 -46.5v-98q0 -29 -14.5 -47t-42.5 -18q-37 0 -119 18l-221 57l59 -354l-59 -354l250 61q16 4 42.5 10.5t57.5 6.5q25 0 36 -18.5t11 -37.5v-117q0 -57 -45 -57q-27 0 -55.5 6t-42.5 8
l-254 58l57 -357l8 -45q8 -49 8 -57q0 -31 -20.5 -46t-52.5 -15h-82q-70 0 -70 55q0 27 12 88l60 377l-264 -58q-78 -14 -101 -14q-18 0 -26.5 13.5t-8.5 46.5v122q0 19 11.5 33.5t27.5 14.5q19 0 42.5 -4.5t39.5 -8.5l279 -65l-70 354l70 354l-242 -59q-71 -16 -108 -16
q-29 0 -39.5 15t-10.5 42v110q0 31 12.5 45.5t43.5 14.5q24 0 82 -12l262 -62l-60 363q-14 86 -14 108q0 43 60 43h100q37 0 51 -10t14 -33z" />
    <glyph glyph-name="bullet" unicode="&#x2022;" horiz-adv-x="725" 
d="M362 444q-67 0 -125.5 34t-93 92.5t-34.5 127.5q0 68 34.5 126.5t93 93t125.5 34.5q68 0 126.5 -33.5t93 -92t34.5 -128.5q0 -106 -74.5 -180t-179.5 -74z" />
    <glyph glyph-name="ellipsis" unicode="&#x2026;" horiz-adv-x="2048" 
d="M340 -18q-51 0 -87 35.5t-36 86.5q0 52 37 87.5t86 35.5q51 0 87 -36.5t36 -86.5q0 -51 -36 -86.5t-87 -35.5zM1024 -18q-51 0 -87 35.5t-36 86.5q0 52 37 87.5t86 35.5q51 0 87 -36.5t36 -86.5q0 -51 -36 -86.5t-87 -35.5zM1708 -18q-51 0 -87 35.5t-36 86.5
q0 52 37 87.5t86 35.5q51 0 87 -36.5t36 -86.5q0 -51 -36 -86.5t-87 -35.5z" />
    <glyph glyph-name="perthousand" unicode="&#x2030;" horiz-adv-x="2109" 
d="M383 795q-84 0 -155.5 41t-113.5 112.5t-42 157.5t42 157.5t113.5 112.5t155.5 41t154.5 -42t113.5 -112.5t43 -156.5t-42 -157.5t-113.5 -112.5t-155.5 -41zM172 -18l920 1435h153l-919 -1435h-154zM541 1104q0 67 -46 116.5t-112 49.5t-112 -48t-46 -118q0 -68 45 -115
t113 -47t113 47t45 115zM1022 -18q-84 0 -155.5 42t-113.5 113.5t-42 155.5t42 155.5t113.5 113.5t155.5 42t154.5 -41t113.5 -112.5t43 -157.5q0 -84 -42 -155.5t-113.5 -113.5t-155.5 -42zM1726 -18q-84 0 -155.5 42t-113.5 113.5t-42 155.5t42 155.5t113.5 113.5
t155.5 42t155 -41t114 -112.5t43 -157.5q0 -84 -42 -155.5t-114 -113.5t-156 -42zM1180 291q0 67 -47.5 116.5t-114.5 49.5q-66 0 -110 -49.5t-44 -116.5q0 -68 44 -115t112 -47q67 0 113.5 47t46.5 115zM1884 291q0 67 -47 116.5t-115 49.5q-65 0 -109 -49.5t-44 -116.5
q0 -68 44 -115t111 -47q68 0 114 47t46 115z" />
    <glyph glyph-name="guilsinglleft" unicode="&#x2039;" horiz-adv-x="639" 
d="M555 0h-180l-301 461l301 459h180l-303 -459z" />
    <glyph glyph-name="guilsinglright" unicode="&#x203a;" horiz-adv-x="639" 
d="M264 0h-178l303 459l-303 461h178l303 -461z" />
    <glyph glyph-name="uni20A0" unicode="&#x20a0;" horiz-adv-x="1333" 
d="M872 780v-235h357v-150h-357v-241h379v-154h-551v485q-86 -26 -184 -26q-125 0 -226.5 61.5t-158.5 170t-57 243.5q0 143 59.5 252.5t164.5 169t239 59.5q155 0 274 -45v-186q-123 71 -268 71q-144 0 -217.5 -91t-73.5 -236q0 -148 79 -229t208 -81q77 0 161 39v277h541
v-154h-369z" />
    <glyph glyph-name="colonmonetary" unicode="&#x20a1;" horiz-adv-x="1024" 
d="M70 702q0 158 46 302.5t141 249t235 141.5l20 133h123l-17 -115l23 2q57 0 104 -8l19 121h123l-21 -146q43 -10 109 -34l-39 -179q-84 35 -96 39l-152 -1052q143 14 279 135v-207q-125 -92 -303 -102l-21 -142h-123l21 148q-66 8 -125 30l-25 -178h-123l35 244
q-119 92 -176 253t-57 365zM565 160l156 1077q-39 6 -80 6q-16 0 -49 -4l-148 -1026q52 -39 121 -53zM340 340l123 856q-101 -63 -147 -195.5t-46 -298.5q0 -225 70 -362z" />
    <glyph glyph-name="uni20A2" unicode="&#x20a2;" horiz-adv-x="1024" 
d="M999 844l-73 -170q-23 39 -52.5 64.5t-52.5 25.5q-53 0 -93 -75t-56 -200v-313q92 12 237 92v-200q-75 -41 -148 -59.5t-155 -18.5q-258 0 -397 180t-139 520q0 215 65.5 379t190.5 255t299 91q155 0 293 -67l-39 -191q-115 74 -261 74q-178 0 -263 -145.5t-85 -387.5
q0 -422 219 -503v725h183v-160q73 178 184 178q76 0 143 -94z" />
    <glyph glyph-name="franc" unicode="&#x20a3;" horiz-adv-x="1024" 
d="M186 0v276h-161v160h161v961h740v-172h-545v-396h545v-172h-545v-221h328v-160h-328v-276h-195z" />
    <glyph glyph-name="lira" unicode="&#x20a4;" horiz-adv-x="1024" 
d="M838 1415q30 0 71 -8l115 -213q-12 12 -61.5 21.5t-88.5 9.5q-98 0 -179 -74t-148 -272h180v-144h-223l-41 -149h264v-144h-301l-66 -243q37 4 78 4q101 0 162.5 -9.5t71.5 -11.5q71 -14 127 -14q125 0 207 45v-195q-70 -20 -108 -28t-99 -8q-127 0 -234 20
q-71 14 -139 14q-168 0 -315 -34l122 460h-141v144h180l41 149h-221v144h262q170 536 484 536z" />
    <glyph glyph-name="uni20A5" unicode="&#x20a5;" horiz-adv-x="1591" 
d="M1161 938q150 0 228.5 -95t78.5 -265v-578h-180v563q0 105 -48 162t-134 57q-55 0 -112.5 -29.5t-102.5 -84.5v-668h-180v231l-256 -620h-123l379 917v50q0 206 -181 206q-63 0 -115.5 -29.5t-101.5 -86.5v-668h-180v920h180v-121q70 75 133.5 107t141.5 32
q74 0 136 -29.5t105 -89.5l187 451h123l-160 -385q82 53 182 53z" />
    <glyph glyph-name="uni20A6" unicode="&#x20a6;" horiz-adv-x="1229" 
d="M1079 0h-188l-264 504h-293v-504h-184v504h-130v143h130v150h-130v143h130v457h188l248 -457h309v457h184v-457h129v-143h-129v-150h129v-143h-129v-504zM334 1065v-125h65zM473 797h-139v-150h217zM895 797h-231l79 -150h152v150zM821 504l74 -133v133h-74z" />
    <glyph glyph-name="peseta" unicode="&#x20a7;" horiz-adv-x="2224" 
d="M879 1001q0 -45 -7 -81h107v190l182 102v-292h260v-164h-260v-428q0 -84 21.5 -132.5t89.5 -48.5q84 0 180 72v-170q-45 -29 -106.5 -48t-108.5 -19q-129 0 -193.5 79.5t-64.5 266.5v428h-176q-117 -150 -412 -150h-43v-606h-194v1397h270q213 0 334 -105.5t121 -290.5z
M678 1006q0 106 -65.5 160.5t-223.5 54.5h-41v-439h41q162 0 225.5 57.5t63.5 166.5zM1819 938q141 0 278 -76v-182q-84 51 -145.5 74.5t-120.5 23.5t-88 -20.5t-29 -48.5q0 -27 11.5 -45.5t50.5 -47t120 -75.5q113 -66 179.5 -131.5t66.5 -165.5q0 -60 -31.5 -120.5
t-103.5 -101t-180 -40.5q-170 0 -307 67v189q55 -39 141 -68t151 -29q72 0 107 24.5t35 61.5q0 31 -13.5 51.5t-56.5 50t-149 93.5q-103 61 -156 124.5t-53 151.5q0 105 83 172.5t210 67.5z" />
    <glyph glyph-name="uni20A8" unicode="&#x20a8;" horiz-adv-x="1722" 
d="M590 651q47 -22 97 -83.5t124 -194.5l205 -373h-232l-180 344q-59 115 -99 171t-73 74.5t-74 18.5h-10v-608h-194v1397h270q221 0 338 -97.5t117 -289.5q0 -162 -76 -247t-213 -112zM678 1006q0 106 -62.5 160.5t-207.5 54.5h-60v-437h53q154 0 215.5 57.5t61.5 164.5z
M1317 938q141 0 278 -76v-182q-139 98 -266 98q-59 0 -88 -20.5t-29 -48.5q0 -27 11.5 -45.5t50.5 -47t121 -75.5q112 -66 178.5 -131.5t66.5 -165.5q0 -119 -83.5 -190.5t-231.5 -71.5q-170 0 -307 67v189q55 -39 141 -68t152 -29q69 0 105 23.5t36 52.5q0 33 -13.5 55.5
t-58.5 55t-147 94.5q-103 61 -156 124.5t-53 151.5q0 105 75 172.5t218 67.5z" />
    <glyph glyph-name="uni20A9" unicode="&#x20a9;" horiz-adv-x="1294" 
d="M1012 -18h-189l-84 522h-188l-90 -522h-189l-100 522h-152v143h123l-28 150h-95v143h68l-88 457h205l76 -457h182l82 457h205l73 -457h187l80 457h204l-92 -457h72v-143h-100l-29 -150h129v-143h-158zM649 1051h-4l-20 -111h43zM438 797h-135l25 -150h84zM690 797h-90
l-25 -150h140zM985 797h-137l24 -150h89zM352 504l15 -86h4l14 86h-33zM895 504l18 -107h5l18 107h-41z" />
    <glyph glyph-name="uni20AA" unicode="&#x20aa;" horiz-adv-x="1300" 
d="M887 573v-286h-172v291q0 100 -53.5 145t-135.5 45h-221v-768h-172v920h412q172 0 257 -92.5t85 -254.5zM1178 346v574h-172v-578q0 -100 -53.5 -145t-135.5 -45h-221v481h-172v-633h412q172 0 257 92t85 254z" />
    <glyph glyph-name="dong" unicode="&#x20ab;" horiz-adv-x="1024" 
d="M1024 1208v-106h-133v-1102h-336q-252 0 -366.5 128t-114.5 347q0 141 60.5 246.5t161.5 161t222 55.5q53 0 94 -9t95 -28v201h-211v106h211v189h184v-189h133zM594 154h113v585q-43 23 -82 33t-88 10q-125 0 -202 -85t-77 -228q0 -162 76 -238.5t260 -76.5zM152 -287
v150h739v-150h-739z" />
    <glyph glyph-name="Euro" unicode="&#x20ac;" horiz-adv-x="1249" 
d="M1178 1348l-39 -191q-101 41 -171.5 57.5t-144.5 16.5q-282 0 -377 -322h594l-26 -145h-588q-2 -19 -2 -62q0 -53 2 -71h563l-26 -144h-517q43 -157 139.5 -239t239.5 -82q93 0 176.5 33.5t167.5 103.5v-219q-143 -102 -352 -102q-225 0 -374.5 132t-202.5 373h-162
l28 144h121q-2 18 -2 71l2 62h-149l26 145h142q55 234 209.5 370t373.5 136q160 0 349 -67z" />
    <glyph glyph-name="uni20AD" unicode="&#x20ad;" horiz-adv-x="1024" 
d="M795 0l-433 635h-40v-635h-195v635h-127v160h127v602h195v-602h38l441 602h217l-451 -602h279v-160h-275l453 -635h-229z" />
    <glyph glyph-name="uni20AE" unicode="&#x20ae;" horiz-adv-x="1024" 
d="M18 1397h990v-176h-400v-289l271 104v-168l-271 -104v-182l271 104v-168l-271 -104v-414h-190v344l-271 -104v168l271 104v182l-271 -104v168l271 104v359h-400v176z" />
    <glyph glyph-name="uni20AF" unicode="&#x20af;" horiz-adv-x="2243" 
d="M496 1415q39 86 85 145.5t105 106.5l109 -117q-68 -57 -113 -141q172 -14 300 -95t198.5 -218.5t70.5 -319.5q0 -215 -107.5 -391t-321.5 -280.5t-519 -104.5h-330v137q111 39 207 189.5t162 515.5q35 194 94 403q-129 -14 -278 -84v180q63 29 157.5 49.5t180.5 24.5z
M621 1245q-29 -100 -70 -340q-2 -14 -6 -34.5t-8 -45.5q-52 -280 -119.5 -431.5t-157.5 -229.5q258 0 434 77.5t263 216t87 318.5q0 221 -108.5 340t-314.5 129zM1823 938q164 0 255 -99.5t91 -283.5q0 -158 -64.5 -290t-183.5 -211t-272 -79q-125 0 -211 52l-92 -435h-177
l177 828q53 252 171.5 385t305.5 133zM1821 774q-113 0 -182.5 -84t-114.5 -291l-49 -225q53 -35 170 -35q100 0 176.5 59.5t117.5 155t41 203.5q0 100 -45 158.5t-114 58.5z" />
    <glyph glyph-name="uni20B0" unicode="&#x20b0;" horiz-adv-x="1024" 
d="M281 1110q0 82 38.5 151.5t111.5 111.5t171 42q148 0 229.5 -87t81.5 -220q0 -156 -147 -324q121 -106 171 -205.5t50 -199.5q0 -193 -125 -296t-344 -103q-174 0 -319 92v223q69 -70 149 -102.5t160 -32.5q278 0 278 223q0 57 -30.5 123.5t-106.5 130.5l-207 -246
l-182 189l-125 -191l-135 90l244 373l198 -209l74 90q-127 105 -181 191t-54 186zM631 883q53 61 71.5 113.5t18.5 111.5q0 57 -32 94t-87 37q-63 0 -96 -37t-33 -94q0 -107 158 -225z" />
    <glyph glyph-name="uni20B1" unicode="&#x20b1;" horiz-adv-x="1024" 
d="M471 1397q154 0 262.5 -65.5t155.5 -186.5h135v-133h-102q4 -45 4 -70q0 -24 -4 -70h102v-133h-133q-47 -127 -163 -189.5t-290 -62.5h-104v-487h-201v739h-133v133h133v140h-133v133h133v252h338zM436 1233h-102v-88h336q-68 88 -234 88zM721 1012h-387v-140h387
q4 46 4 76q0 23 -4 64zM670 739h-336v-88h102q166 0 234 88z" />
    <glyph glyph-name="uni20B2" unicode="&#x20b2;" horiz-adv-x="1184" 
d="M1032 1331v-188q-141 71 -301 80v-535h330v-620q-72 -31 -163 -51.5t-167 -24.5v-152h-168v152q-145 26 -251.5 125.5t-164 253t-57.5 344.5q0 301 127 479t346 213v121h168v-121q152 -6 301 -76zM563 174v1049q-133 -29 -202.5 -163t-69.5 -353q0 -201 71.5 -346.5
t200.5 -186.5zM872 195v321h-141v-342q60 2 141 21z" />
    <glyph glyph-name="uni20B3" unicode="&#x20b3;" horiz-adv-x="1024" 
d="M1014 0h-199l-80 279h-446l-80 -279h-199l82 279h-72v143h113l45 149h-158v144h199l201 682h190l197 -682h197v-144h-156l43 -149h113v-143h-72zM514 1069l-100 -354h198zM653 571h-280l-43 -149h366z" />
    <glyph glyph-name="uni20B4" unicode="&#x20b4;" horiz-adv-x="1024" 
d="M410 754h-359v155h574q86 76 86 160q0 76 -59.5 125t-162.5 49q-172 0 -327 -145v219q147 98 327 98q195 0 301.5 -93t106.5 -249q0 -94 -49 -164h121v-155h-277l-51 -33q-57 -43 -119 -78h447v-156h-619q-57 -57 -57 -147q0 -80 59.5 -133t165.5 -53q84 0 191.5 52
t179.5 130v-225q-90 -66 -184.5 -97.5t-204.5 -31.5q-193 0 -293.5 102t-100.5 258q0 82 35 145h-90v156h205q76 66 154 111z" />
    <glyph glyph-name="uni20B5" unicode="&#x20b5;" horiz-adv-x="1024" 
d="M938 1348l-39 -191q-92 57 -190 70v-1049q82 15 221 90v-200q-111 -60 -221 -72v-156h-168v156q-217 29 -334 206t-117 488q0 293 118 484.5t333 230.5v123h168v-117q114 -10 229 -63zM541 184v1033q-127 -39 -188.5 -177.5t-61.5 -341.5q0 -448 250 -514z" />
    <glyph glyph-name="uni2116" unicode="&#x2116;" horiz-adv-x="2243" 
d="M1184 299v778q0 168 74.5 244t232.5 76h90v-180h-80q-71 0 -100 -36t-29 -114v-1067h-172l-858 1075v-1075h-188v1397h159zM1862 1022q92 0 167.5 -42t119.5 -115.5t44 -164.5q0 -88 -44 -161.5t-119.5 -116.5t-167.5 -43q-90 0 -166 42t-121 115.5t-45 163.5
q0 93 45 165.5t121 114.5t166 42zM1862 522q71 0 121.5 51.5t50.5 126.5q0 76 -49.5 127.5t-122.5 51.5q-74 0 -123 -50.5t-49 -128.5q0 -73 50 -125.5t122 -52.5zM2185 115h-633v131h633v-131z" />
    <glyph glyph-name="trademark" unicode="&#x2122;" horiz-adv-x="1886" 
d="M68 1397h710v-125h-280v-672h-148v672h-282v125zM1321 827l201 570h213v-797h-142v629l-217 -629h-114l-215 629v-629h-142v797h213z" />
    <glyph glyph-name="glyph113" 
d="M618 1286v-149h-555v149h555z" />
    <glyph glyph-name="glyph220" horiz-adv-x="1030" 
d="M907 575v-575h-182v571q0 215 -178 215q-66 0 -118 -28.5t-114 -98.5v-659h-182v1102h-151v106h151v189h182v-189h330v-106h-330v-303q56 67 129.5 103t153.5 36q152 0 230.5 -96.5t78.5 -266.5z" />
    <glyph glyph-name="glyph285" 
d="M340 1427q82 0 139.5 -57t57.5 -139t-57.5 -138.5t-139.5 -56.5t-138.5 56.5t-56.5 138.5t56.5 139t138.5 57zM340 1120q47 0 80 33t33 78q0 47 -33 79.5t-80 32.5q-45 0 -78 -32.5t-33 -79.5q0 -45 33 -78t78 -33z" />
    <glyph glyph-name="glyph485" horiz-adv-x="406" 
d="M-332 -55l930 1470h139l-932 -1470h-137z" />
    <glyph glyph-name="glyph511" horiz-adv-x="662" 
d="M229 201q105 116 138.5 176.5t33.5 118.5q0 59 -36.5 92t-94.5 33q-104 0 -194 -119v160q96 73 209 73q108 0 184 -61.5t76 -165.5q0 -80 -54.5 -167t-193.5 -230h307v-111h-547v14q52 52 172 187z" />
    <glyph glyph-name="glyph512" horiz-adv-x="662" 
d="M610 334v-101h-92v-233h-139v233h-348v54l420 448h67v-401h92zM379 334v174l-160 -174h160z" />
    <glyph glyph-name="glyph513" horiz-adv-x="662" 
d="M311 670v518l-139 -121l-72 96l287 242h59v-735h-135z" />
    <glyph glyph-name="glyph514" horiz-adv-x="662" 
d="M229 870q105 117 138.5 177.5t33.5 117.5q0 60 -36.5 92.5t-94.5 32.5q-104 0 -194 -119v160q96 74 209 74q108 0 184 -61.5t76 -165.5q0 -80 -54.5 -167t-193.5 -231h307v-110h-547v14q52 51 172 186z" />
    <glyph glyph-name="glyph515" horiz-adv-x="662" 
d="M539 1206q0 -104 -97 -153q111 -43 111 -172q0 -97 -78 -159.5t-188 -62.5q-94 0 -193 46v129q101 -60 191 -60q55 0 88 27.5t33 77.5q0 55 -38 82.5t-135 29.5v107h21q145 0 145 102q0 45 -34.5 71.5t-94.5 26.5q-69 0 -155 -41v113q41 19 77.5 27t90.5 8q112 0 184 -51
t72 -148z" />
    <glyph glyph-name="glyph516" 
d="M319 1493h-126l149 307h252z" />
    <glyph glyph-name="glyph517" 
d="M369 1493l-275 307h252l150 -307h-127z" />
    <glyph glyph-name="glyph518" 
d="M682 1493h-127l-213 180l-215 -180h-125l193 307h290z" />
    <glyph glyph-name="glyph519" 
d="M387 1698q29 -12 56.5 -21.5t45.5 -9.5q35 0 51.5 19.5t22.5 60.5h99q-3 -111 -57 -173.5t-128 -62.5q-33 0 -64.5 10.5t-88.5 32.5q-33 15 -67 26t-60 11q-64 0 -72 -80h-105q3 107 55 171.5t132 64.5q43 0 84 -13.5t96 -35.5z" />
    <glyph glyph-name="glyph520" 
d="M158 1761q43 0 75.5 -32.5t32.5 -75.5q0 -45 -32.5 -77t-75.5 -32t-76 32t-33 77q0 43 33 75.5t76 32.5zM526 1761q43 0 76 -32.5t33 -75.5q0 -45 -33 -77t-76 -32t-75.5 32t-32.5 77t32.5 76.5t75.5 31.5z" />
    <glyph glyph-name="glyph521" 
d="M461 1661q0 -47 -35 -82t-84 -35t-84 35t-35 82t35 82t84 35t84 -35t35 -82z" />
    <glyph glyph-name="glyph522" 
d="M342 1884q82 0 139.5 -57.5t57.5 -138.5q0 -82 -57.5 -138.5t-139.5 -56.5t-138.5 56.5t-56.5 138.5q0 81 56.5 138.5t138.5 57.5zM342 1581q45 0 77 30.5t32 76.5q0 45 -32 76.5t-77 31.5t-75.5 -31.5t-30.5 -76.5q0 -46 30.5 -76.5t75.5 -30.5z" />
    <glyph glyph-name="glyph523" 
d="M348 1649q72 0 116 32.5t66 102.5h152q-25 -137 -116 -214t-224 -77q-143 0 -232.5 78t-109.5 213h152q41 -135 196 -135z" />
    <glyph glyph-name="glyph524" 
d="M618 1577h-555v149h555v-149z" />
    <glyph glyph-name="glyph525" 
d="M342 1620l215 180h125l-193 -307h-290l-197 307h127z" />
    <glyph glyph-name="glyph526" 
d="M184 1493h-106l90 307h235zM520 1493h-106l90 307h235z" />
    <glyph glyph-name="glyph527" 
d="M352 1055h-123l97 342h204z" />
    <glyph glyph-name="glyph528" 
d="M285 -473q102 37 106 129q-47 4 -70.5 30.5t-23.5 73.5q0 56 34 89.5t83 33.5q53 0 89 -42t36 -113q0 -103 -69 -165.5t-185 -74.5v39z" />
    <glyph glyph-name="glyph529" horiz-adv-x="455" 
d="M100 1001q52 19 78.5 71t28.5 116q-47 4 -70.5 30.5t-23.5 73.5q0 56 33.5 89.5t82.5 33.5q54 0 89.5 -42t35.5 -113q0 -60 -19.5 -111t-53 -91t-79.5 -64.5t-102 -30.5v38z" />
    <glyph glyph-name="glyph535" 
d="M457 1440q-27 -23 -44.5 -42.5t-28.5 -40t-15 -43t-7 -50.5q46 -11 72.5 -38.5t26.5 -68.5q0 -43 -33 -74.5t-80 -31.5q-57 0 -92 43t-35 102q0 37 14.5 76t42 75.5t68.5 66.5t94 46z" />
    <glyph glyph-name="glyph536" 
d="M565 -270q0 -101 -70.5 -151t-228.5 -50q-35 0 -84 6v119q41 -4 92 -4q56 0 81.5 17.5t25.5 51.5q0 31 -27.5 47.5t-70.5 16.5q-29 0 -52 -2l29 119h35q131 0 200.5 -44t69.5 -126z" />
    <glyph glyph-name="glyph537" horiz-adv-x="1038" 
d="M453 -246q0 -88 -63.5 -135t-190.5 -47q-41 0 -66 6v113q37 -4 62 -4q45 0 71.5 14t26.5 41q0 55 -76 55q-20 0 -33 -2l39 105h6q224 0 224 -146z" />
    </font>
</defs>
</svg>
